<?xml version="1.0" encoding="UTF-8" standalone="no"?>
<!-- Created with Inkscape (http://www.inkscape.org/) -->

<svg
   xmlns:dc="http://purl.org/dc/elements/1.1/"
   xmlns:cc="http://creativecommons.org/ns#"
   xmlns:rdf="http://www.w3.org/1999/02/22-rdf-syntax-ns#"
   xmlns:svg="http://www.w3.org/2000/svg"
   xmlns="http://www.w3.org/2000/svg"
   xmlns:sodipodi="http://sodipodi.sourceforge.net/DTD/sodipodi-0.dtd"
   xmlns:inkscape="http://www.inkscape.org/namespaces/inkscape"
   width="960"
   height="500"
   viewBox="0 0 960 500"
   version="1.1"
   id="svg2"
   inkscape:version="0.91 r13725"
   sodipodi:docname="base-simpl.svg">
  <metadata
     id="metadata14">
    <rdf:RDF>
      <cc:Work
         rdf:about="">
        <dc:format>image/svg+xml</dc:format>
        <dc:type
           rdf:resource="http://purl.org/dc/dcmitype/StillImage" />
        <dc:title></dc:title>
      </cc:Work>
    </rdf:RDF>
  </metadata>
  <defs
     id="defs12" />
  <sodipodi:namedview
     pagecolor="#ffffff"
     bordercolor="#666666"
     borderopacity="1"
     objecttolerance="10"
     gridtolerance="10"
     guidetolerance="10"
     inkscape:pageopacity="0"
     inkscape:pageshadow="2"
     inkscape:window-width="1680"
     inkscape:window-height="987"
     id="namedview10"
     showgrid="false"
     inkscape:zoom="0.98111066"
     inkscape:cx="392.22602"
     inkscape:cy="393.51011"
     inkscape:window-x="-8"
     inkscape:window-y="-8"
     inkscape:window-maximized="1"
     inkscape:current-layer="layer2" />
  <g
     inkscape:label="Layer 1"
     inkscape:groupmode="layer"
     id="layer1">
    <path
       id="sphere"
       d="M228.57208253316594,12.460785375990469L480,12.460785375990469L731.4279174668341,12.460785375990469L742.8225042383983,13.27156944207988L752.7109591863313,14.619106515594979L761.3913491679461,16.400333763613645L769.1093806545234,18.530701789275895L776.0661485845737,20.94138853193479L782.424914994471,23.576852512263713L788.3170194985687,26.39269267206913L793.8470148447593,29.353784484812792L804.1310158382381,35.60813612528722L813.7317762236394,42.18841835842437L822.902286984003,49.009276153043345L831.7650518380347,56.02585729552885L840.3625861041382,63.216033056732726L848.6921507322825,70.56860210604893L856.7287980293588,78.07594743562365L864.4399358002961,85.72991011102155L871.793895723485,93.51989713599127L878.7644004659287,101.4324572248353L885.3323447039959,109.45174127561583L891.4859218496341,117.56041713310768L897.2198264310734,125.74073396689052L902.5340287495605,133.9755332548512L907.4324420289544,142.2490837860091L911.9216725086862,150.5476799521L916.0099507590226,158.85998840063056L919.7062800429586,167.17716023178292L923.0197980239883,175.49274653899644L925.9593257513308,183.80246626243263L928.5330678119205,192.10387893274276L930.748425854372,200.39601265927647L932.6118911867104,208.67899123450943L934.1289883638324,216.95369490021466L935.3042487885982,225.22147840868993L936.141200092376,233.48395861488027L936.6423626658127,241.74287289595256L936.8092488212658,250L936.6423626658127,258.25712710404747L936.141200092376,266.51604138511976L935.3042487885982,274.7785215913101L934.1289883638324,283.04630509978534L932.6118911867104,291.32100876549055L930.748425854372,299.6039873407235L928.5330678119205,307.89612106725724L925.9593257513308,316.19753373756737L923.0197980239883,324.50725346100353L919.7062800429586,332.8228397682171L916.0099507590226,341.1400115993695L911.9216725086862,349.4523200479L907.4324420289544,357.7509162139909L902.5340287495605,366.0244667451488L897.2198264310734,374.2592660331095L891.4859218496341,382.43958286689235L885.3323447039959,390.54825872438414L878.7644004659287,398.5675427751647L871.793895723485,406.4801028640087L864.4399358002961,414.2700898889784L856.7287980293588,421.9240525643763L848.6921507322825,429.43139789395104L840.3625861041382,436.7839669432673L831.7650518380347,443.97414270447115L822.902286984003,450.99072384695666L813.7317762236394,457.81158164157563L804.1310158382381,464.3918638747128L793.8470148447593,470.64621551518724L788.3170194985687,473.60730732793087L782.424914994471,476.4231474877363L776.0661485845737,479.05861146806524L769.1093806545234,481.4692982107241L761.3913491679461,483.5996662363864L752.7109591863313,485.380893484405L742.8225042383983,486.7284305579201L731.4279174668341,487.53921462400956L480,487.53921462400956L228.57208253316594,487.53921462400956L217.17749576160168,486.7284305579201L207.28904081366875,485.380893484405L198.60865083205385,483.5996662363864L190.89061934547652,481.4692982107241L183.93385141542632,479.05861146806524L177.57508500552905,476.4231474877363L171.68298050143125,473.60730732793087L166.15298515524069,470.64621551518724L155.8689841617619,464.3918638747128L146.26822377636057,457.81158164157563L137.09771301599704,450.99072384695666L128.23494816196535,443.97414270447115L119.63741389586176,436.7839669432673L111.30784926771753,429.43139789395104L103.27120197064119,421.9240525643763L95.56006419970385,414.2700898889784L88.20610427651502,406.4801028640087L81.23559953407135,398.5675427751647L74.66765529600411,390.54825872438414L68.51407815036589,382.43958286689235L62.7801735689265,374.2592660331095L57.46597125043945,366.0244667451488L52.56755797104563,357.7509162139909L48.0783274913137,349.4523200479L43.9900492409775,341.1400115993695L40.29371995704139,332.8228397682171L36.9802019760117,324.50725346100353L34.040674248669234,316.19753373756737L31.466932188079397,307.89612106725724L29.251574145627956,299.6039873407235L27.38810881328959,291.32100876549055L25.871011636167623,283.04630509978534L24.69575121140184,274.7785215913101L23.85879990762396,266.51604138511976L23.357637334187245,258.25712710404747L23.190751178734274,250L23.357637334187245,241.74287289595256L23.85879990762396,233.48395861488027L24.69575121140184,225.22147840868993L25.871011636167623,216.95369490021466L27.38810881328959,208.67899123450943L29.251574145627956,200.39601265927647L31.466932188079397,192.10387893274276L34.040674248669234,183.80246626243263L36.9802019760117,175.49274653899644L40.29371995704139,167.17716023178292L43.9900492409775,158.85998840063056L48.0783274913137,150.5476799521L52.56755797104563,142.2490837860091L57.46597125043945,133.9755332548512L62.7801735689265,125.74073396689052L68.51407815036589,117.56041713310768L74.66765529600411,109.45174127561583L81.23559953407135,101.4324572248353L88.20610427651502,93.51989713599127L95.56006419970385,85.72991011102155L103.27120197064119,78.07594743562365L111.30784926771753,70.56860210604893L119.63741389586176,63.216033056732726L128.23494816196535,56.02585729552885L137.09771301599704,49.009276153043345L146.26822377636057,42.18841835842437L155.8689841617619,35.60813612528722L166.15298515524069,29.353784484812792L171.68298050143125,26.39269267206913L177.57508500552905,23.576852512263713L183.93385141542632,20.94138853193479L190.89061934547652,18.530701789275895L198.60865083205385,16.400333763613645L207.28904081366875,14.619106515594979L217.17749576160168,13.27156944207988L228.57208253316594,12.460785375990469Z"
       style="fill:none;fill-opacity:1;stroke:#000000;stroke-opacity:1;stroke-width:4;stroke-miterlimit:4;stroke-dasharray:none" />
    <path
       style="fill:none;stroke:#000000;stroke-opacity:1"
       d="m 565.83864,222.20191 c 0.21433,5.70337 0.0121,0.49189 0,0 z m -25.63501,2.34764 c 2.15597,1.42315 2.7288,1.79519 0,0 z m 61.71793,-97.63059 c -0.45659,-5.14407 -9.25105,-6.40711 -4.74099,-9.96365 7.96043,1.24917 1.69938,-8.2609 -3.21232,-4.34326 -5.37569,1.8515 -8.35666,5.93274 -4.3018,10.80076 2.37739,4.51655 10.28296,6.97077 6.27212,10.24899 -3.00727,5.00389 3.90275,7.7837 8.10107,8.183 6.96365,0.27049 1.41572,-9.09513 -0.69497,-9.80198 1.36501,-2.34652 6.68558,-4.33981 -0.50934,-5.36738 0.1773,2.73445 0.60743,2.76103 -0.91377,0.24352 z M 132.81186,52.352433 c 6.91324,5.164853 -0.33182,6.590017 8.77775,5.097523 4.80931,4.053544 -7.52248,4.00847 -10.12069,6.850117 -4.2355,-2.659468 -4.80259,-4.670689 -8.00763,-4.137922 -6.95038,6.014065 4.19295,-3.911418 6.4796,-5.448793 0.95699,-0.786975 1.91398,-1.57395 2.87097,-2.360925 z m 706.68521,10.122148 c -8.76873,1.554788 4.34677,2.915147 6.37026,6.962508 -4.53523,-1.545334 -11.41193,1.510111 -11.66203,6.171222 -4.6113,-2.87596 -8.96605,1.220572 -13.89058,0.310173 -2.26591,5.307118 10.87726,7.908968 6.26604,10.162815 4.97653,4.947485 -1.12413,6.864726 1.03012,11.450933 -2.05194,6.126148 -8.149,-5.588489 -11.78589,-7.553595 -5.56438,-4.928183 -4.08876,-8.281954 -1.27398,-12.584066 5.09218,-4.695851 -1.51891,-12.935639 -2.06018,-4.636749 -2.43537,0.213841 -13.93395,-4.535599 -10.49775,3.911835 4.19074,4.508221 -8.11116,-0.588596 -10.64164,0.498986 -4.63859,1.836926 -13.94573,-2.678744 -15.49681,4.621495 -5.00495,6.51002 -4.05278,9.09238 3.68664,10.705116 2.73707,-3.186569 11.6381,2.030406 10.77022,7.199689 3.96269,4.660267 4.21759,10.548317 2.82921,16.007667 -0.46031,7.66899 -6.09687,7.43696 -10.17302,8.97063 -0.80867,2.76526 -2.15865,6.56455 -3.73537,9.77469 4.42169,2.30482 9.48696,6.81722 9.04229,12.1641 -5.75431,6.13004 -8.65892,-4.28521 -8.15949,-6.04241 -5.07627,-1.93464 -4.67662,-3.97867 -7.66925,-7.43167 -6.8415,0.2743 -7.34969,3.64269 -8.56059,-3.51379 -2.90266,2.13463 -11.19769,7.09409 -3.09525,8.69277 0.95282,3.11502 13.92228,-0.78546 6.68556,3.67113 -5.99822,5.11108 1.73386,7.16385 4.35804,11.95915 3.91338,4.41802 3.67795,7.05934 5.32277,12.62631 -3.75776,3.19182 -2.25464,11.76665 -8.09729,14.57266 -5.15074,2.94575 -8.07939,3.89198 -13.9345,5.91022 -0.405,8.63995 -3.81687,-6.10113 -8.40515,0.89467 -6.36138,4.13144 -0.59824,10.03277 3.03539,13.56279 4.55712,2.93844 6.70681,10.21365 4.91488,14.93794 -3.11839,1.48523 -10.22489,12.59205 -9.22722,4.44529 -5.26973,-1.00415 -5.65978,-8.58165 -11.44254,-7.99383 -1.66492,-7.07254 -3.02621,5.83932 -3.36258,8.83954 3.07143,2.38007 3.67087,8.63867 8.71541,10.26544 4.38713,3.438 1.73581,9.26592 5.1784,13.20138 -3.09149,2.57657 -9.28272,-4.9163 -9.6002,-9.20813 -0.29783,-4.05289 -5.01739,-11.34673 -6.40556,-9.84878 -0.001,-5.92447 1.3082,-11.98631 -2.04013,-17.19648 -1.27304,-7.2304 -2.98957,-9.34083 -8.67343,-5.40217 -2.29661,-2.90162 -1.89139,-10.78317 -6.62806,-12.70864 -2.12167,-2.51213 -6.28048,-12.6955 -7.20715,-5.08088 -3.40521,-0.80886 -8.26676,0.11216 -8.62389,4.97144 -4.71972,2.4184 -7.5104,8.1131 -10.59595,11.32446 -7.32047,1.0953 -0.76828,9.01187 -3.37746,13.53924 0.21321,5.3396 -2.04302,6.96738 -5.17546,11.00624 -4.07557,-4.05787 -4.76252,-10.28204 -7.88938,-15.02764 -2.23004,-7.22956 -6.84685,-13.71566 -7.10691,-21.63648 -0.82787,-3.32649 -10.96325,-0.26481 -9.52153,-7.15139 -5.17621,-1.5707 -6.33455,-9.46469 -12.41789,-7.12731 -6.10734,0.52521 -13.59088,0.64895 -18.54147,-2.3729 -1.9227,-6.4612 -9.53634,1.81225 -13.288,-4.83663 -4.391,-2.48365 -5.40798,-9.99738 -10.87943,-6.75067 0.15081,5.19721 5.92146,7.5733 6.58509,11.92307 1.88125,7.44861 3.41801,-5.46459 3.54866,3.89052 2.69266,4.0738 9.08208,0.42067 10.91812,-4.03679 1.29479,-1.90882 1.55875,8.90758 7.54443,7.17688 5.36493,3.39526 0.83648,8.02187 -1.3874,10.81178 0.82158,4.41014 -4.96613,5.16828 -6.58028,8.70417 -6.09857,-0.75567 -6.44081,6.3957 -12.64231,6.60308 -3.33506,3.51662 -8.94092,3.52881 -12.47384,5.85177 -4.63994,0.78152 -4.5775,-7.50722 -4.85204,-10.67949 -2.52028,-3.8949 -4.24084,-9.00195 -8.16824,-11.76527 -2.8519,-4.51206 -2.66531,-10.29469 -7.50378,-13.34867 -0.59313,-4.93395 -7.2156,-7.9952 -6.66304,-12.11664 0.6557,-0.89782 -3.9323,7.69663 -5.79682,-2.06635 -0.10124,2.01114 4.17798,9.10547 6.1855,12.88861 2.01169,4.79156 6.05077,8.32633 6.6447,13.17235 -0.32768,6.18862 5.77439,8.66776 6.55987,14.48922 3.62691,3.62302 9.02344,6.92787 10.64155,11.62282 -2.38003,3.89845 6.73602,5.69311 10.4921,2.62125 3.59818,0.15075 10.73063,-5.70203 9.22977,0.77053 -2.08132,12.32233 -9.00386,23.75608 -19.36633,30.92438 -2.63259,4.5429 -6.69548,7.23635 -8.53215,11.66967 -4.04107,5.31999 -1.20745,9.50396 -1.4022,15.03622 3.61027,4.9725 2.19266,10.99087 2.78441,16.86936 -0.49527,7.12003 -8.95182,7.77401 -12.6349,12.6361 -6.1079,3.07431 -0.74279,8.40149 -1.76443,12.53336 2.12056,5.27302 -9.26407,5.1679 -7.09702,9.29338 -0.28819,5.65745 -4.21507,8.92609 -7.1293,13.26497 -4.41243,6.10523 -10.96501,10.73407 -18.08427,9.38308 -4.27816,0.57153 -10.03815,4.75922 -11.85754,-0.0286 0.43204,-4.87572 -0.37595,-8.92178 -3.06833,-13.67752 -4.36311,-6.07163 -4.98034,-13.77033 -5.33457,-21.07122 -2.61116,-4.78851 -5.27067,-9.9267 -6.10202,-15.19656 -0.35217,-6.18744 3.68114,-11.24377 5.40957,-16.66478 -2.75725,-4.8636 -0.15498,-10.04082 -3.68774,-14.70282 0.42124,-7.31837 -11.76735,-11.62018 -7.39843,-19.27324 0.53505,-4.26704 2.59373,-9.66341 -2.05742,-12.4094 -4.29751,2.24733 -8.23437,-1.535 -11.57947,-5.19302 -5.87761,-1.2466 -10.72328,3.88345 -15.87303,4.20766 -5.1354,-2.99408 -10.38455,1.66116 -15.18726,0.91215 -4.09195,-3.43605 -9.1355,-6.30848 -12.08247,-10.70463 -0.77659,-4.66305 -4.58728,-8.07958 -7.92985,-10.70485 -0.75092,-4.75305 -4.23892,-8.38872 -0.38283,-12.16886 1.16654,-5.09656 1.90613,-11.50615 -0.774,-15.9319 1.02943,-4.53244 4.67651,-8.22123 5.89019,-12.68408 2.40164,-4.86371 6.46089,-7.12868 10.68108,-9.99238 4.61865,-3.15791 0.0679,-11.28151 6.69206,-13.47681 4.3997,-4.28998 5.66914,-8.10242 12.31057,-4.86663 5.41162,-0.66748 10.08163,-5.54389 16.25265,-4.7243 5.06278,-0.32413 9.66344,-0.63513 14.64841,-1.18969 2.43456,0.0779 1.84671,5.65736 0.42596,9.51829 2.40635,3.63858 8.03105,2.98351 12.15617,5.13316 1.10111,3.48277 12.97134,8.8622 11.21329,1.83385 1.80224,-6.7153 8.28408,-1.30774 12.1985,-0.75596 3.90131,0.88799 9.6745,4.41984 13.60499,1.14486 3.08618,-0.0386 8.30966,4.09199 9.92781,-1.22678 0.23334,-4.38351 4.05189,-8.95965 1.35389,-12.83356 -0.39836,-3.19196 -8.06619,2.62773 -11.84856,-1.16697 -3.1041,3.33465 -10.4048,-1.34174 -10.74472,-5.47033 -2.50202,-4.85729 4.90806,-7.16941 8.65426,-7.62986 4.746,-2.29209 10.71161,-4.13551 15.74158,-0.28918 3.8676,2.5234 14.17321,-0.64704 7.507,-5.2104 -2.83632,-2.99412 -13.84111,-4.95324 -7.96942,-8.66909 3.24637,-4.88765 -0.86581,-3.24747 -6.96716,-0.80935 4.95323,3.23037 2.88491,4.50797 -3.08131,4.97039 -1.52762,-3.1409 -0.16272,-5.63053 -6.64529,-5.83923 -2.18464,4.82464 -5.4341,7.00411 -5.19059,12.50963 6.10831,3.24845 -2.9238,7.0324 -4.76381,4.17194 -4.43661,0.82064 -4.68533,2.00977 -6.1817,3.47688 4.0189,5.22645 1.25853,4.44052 1.13349,8.79623 -3.51006,2.72814 -4.97235,-6.71859 -7.87636,-8.90322 -2.10763,-4.04275 -1.82074,-8.69363 -7.78424,-10.27568 -3.67081,-2.90759 -7.39329,-5.1602 -7.28415,-6.90871 -8.19626,-0.51939 0.23176,7.7839 2.97538,10.2179 1.5153,-0.30586 12.56793,8.24254 5.74649,5.02854 -0.85984,-0.15346 -2.72596,11.47552 -2.6069,4.08425 -2.48917,-7.1787 -12.9806,-6.3391 -14.43257,-14.48802 -5.05887,-3.26212 -8.25075,4.59597 -13.92818,1.79098 -2.71885,3.82025 -7.15808,6.32359 -9.99044,11.19765 1.37887,5.55398 -5.57653,8.92007 -10.73503,8.80731 -2.8538,2.63058 -7.38653,-2.83375 -9.71204,-2.14325 -2.08112,-4.17447 0.23892,-7.71198 0.06,-12.61661 -2.51947,-6.58767 4.19904,-6.95823 9.3945,-5.82925 6.38817,2.87849 11.46967,-3.37856 7.51165,-8.89 -5.1841,-3.30745 -9.30572,-8.1699 0.32593,-5.94286 -1.8194,-4.07087 7.51766,-3.10911 10.15101,-7.42472 2.94538,-4.043737 7.1592,-7.736402 11.87658,-7.0865 -1.27171,-3.687553 -1.10502,-12.24677 3.96715,-9.854519 2.18529,2.868256 -4.59461,6.324177 1.32049,8.239503 3.23673,0.387115 8.88723,2.184215 13.59704,-1.097765 4.23275,1.512337 9.80864,0.266656 7.59155,-5.577614 2.84928,-3.627949 10.25868,0.305003 4.07033,-5.962481 1.12966,-3.193233 15.16516,0.519865 9.16817,-4.092792 -4.72892,-0.117019 -13.40716,4.426935 -13.95388,-2.613189 -5.55476,-5.563071 8.70095,-7.855834 5.17851,-10.948596 -7.05526,-3.252542 -6.11337,5.647806 -11.98642,6.966694 -6.44834,3.942063 6.64708,9.300259 -2.0434,11.384435 1.51243,5.502694 -5.58995,11.543494 -8.13668,7.243094 -2.68521,-4.907894 -4.87357,-12.596229 -10.52471,-5.917003 -5.99124,2.048776 -8.21233,-8.893515 -4.60828,-11.707453 11.59927,-2.937329 15.72613,-16.807004 27.62224,-19.178508 5.12174,-0.06094 9.05716,-3.521768 14.5313,-2.29429 6.74236,1.813275 2.61142,3.314616 11.76106,4.473445 5.02345,0.872036 12.39323,1.349675 14.9142,6.202662 -4.45069,4.472019 -10.44511,-0.586402 -15.5271,0.401927 2.98982,1.122203 10.23357,10.998428 7.76138,4.792336 8.10974,1.209297 4.80008,-1.462405 10.91116,-4.314544 8.57721,2.91338 -5.42693,-9.128382 5.13965,-4.654005 0.74205,3.015202 2.12932,5.352211 7.80416,0.972066 7.84421,-4.272199 6.25815,0.269618 12.52386,-1.396286 8.23494,0.597424 6.08076,-1.697588 8.3843,-3.221339 5.37274,-0.850059 12.16227,5.220489 15.98943,2.817174 -5.59522,-1.823894 -8.70167,-5.037296 -5.20406,-10.205146 6.47016,-2.725151 6.51212,2.832498 9.91424,5.802039 5.6595,2.809595 1.11626,11.697705 4.95029,9.664157 6.62807,-3.615287 -3.17287,-5.538853 -2.20712,-10.257176 -5.58524,-3.724145 -0.99226,-7.008132 2.73787,-1.327702 -5.90418,-5.689057 14.33639,0.33812 6.59749,-3.14227 -7.74566,-6.155511 12.25911,-1.176093 7.21791,-4.438135 1.39867,-3.452406 9.7305,-3.308328 13.89914,-4.148086 5.86221,0.853503 7.89684,-1.78958 12.47699,-3.519884 3.61703,0.979796 5.66039,2.718641 12.91351,2.198743 4.89264,-0.462531 13.71216,3.616406 4.29341,5.145543 1.2756,1.666346 8.95448,2.329439 12.49127,1.768399 3.79358,-0.623987 15.78097,4.554223 13.19119,-0.02213 5.69595,0.181234 12.425,0.641662 15.59134,5.045616 6.83766,3.45353 5.52801,-1.2147 13.26653,0.113736 11.11206,2.397379 0.61368,-2.976547 8.21152,-2.835195 8.90836,0.12507 17.40316,1.733195 25.76134,4.646325 5.82017,-0.625385 12.44476,-1.147833 16.95599,2.979639 6.89621,0.559634 14.4571,-1.106934 20.96907,2.336113 -3.92709,-4.369833 0.93894,-2.875761 8.22938,-2.940101 7.0177,0.416539 13.40698,2.750088 18.15308,8.088836 1.74349,1.433744 3.48698,2.867487 5.23047,4.301231 z M 329.83911,404.23817 c 1.41686,3.95813 15.22531,7.75236 5.81866,6.30142 -2.53735,4.35292 -9.10739,-0.41043 -12.75721,-1.60007 -7.7451,-4.41261 -5.10253,-4.31897 1.66746,-1.08645 3.41475,1.76865 0.50733,-6.06148 5.27109,-3.6149 z m 12.22034,-166.60491 c 0.49962,5.4988 0.45391,7.33128 0,0 z m 9.87828,111.87203 c -1.31592,7.59747 -11.65856,-0.65997 -11.9594,1.95883 4.44439,2.13695 7.77215,9.19054 1.95167,11.96336 -7.37076,0.90893 -8.46574,1.21941 -8.15144,7.44284 -9.49092,-1.5951 -1.96445,3.8768 -1.52878,4.92293 -1.94762,4.28745 -5.2497,7.08318 -4.87781,11.01845 7.67193,1.88015 2.0699,7.62513 -0.30391,11.6931 5.96074,6.31255 -1.45879,3.78432 -2.11919,9.14575 -5.46034,-1.72846 -10.491,-4.64793 -12.41215,-9.78043 -2.39298,-6.56138 -1.68383,-9.80935 -2.60854,-13.22159 -1.74384,-4.33838 5.33465,-8.0009 -0.009,-9.58045 -0.61264,6.97649 -3.45899,-6.61996 -1.88042,-9.38522 -3.85808,-5.3834 -0.41291,-9.48476 -0.37939,-15.76215 0.5031,-6.68511 -2.88518,-12.93198 -1.18164,-19.54738 -1.38911,-8.83656 1.28441,-19.13383 -3.1241,-26.97064 -4.17983,-4.92657 -12.55612,-6.35298 -15.58116,-12.78705 -2.32268,-6.24189 -6.6765,-13.07111 -9.70622,-19.48857 -4.6199,-2.4902 -5.8618,-8.42665 -1.23306,-12.00735 -0.52244,-2.32012 -3.42595,-5.08724 -0.0581,-11.18558 4.14417,-2.25607 3.99034,-5.62512 7.61916,-9.23519 -0.46855,-3.85543 -1.317,-9.40125 -2.17549,-13.12883 -4.19431,-5.12229 -4.93899,2.73862 -7.00165,3.22451 -0.49479,-4.28157 -7.08899,-1.11014 -7.31841,-6.08233 -4.89781,-1.62021 -3.24923,-3.05313 -6.5014,-8.3177 -1.89191,-4.54227 -2.88544,-2.14461 -8.04229,-4.75137 -5.96143,0.57684 -7.6868,-10.5548 -13.97084,-6.11468 -4.80908,0.0827 -10.47521,-2.92736 -14.16354,-6.20158 -4.08091,-0.39621 -10.65386,-5.91479 -6.82139,-9.32232 0.25463,-5.49711 -4.18068,-10.23782 -7.4125,-14.02447 1.11132,-4.5794 -5.11057,-7.00368 -5.02222,-12.41079 1.5268,-6.68184 -6.82267,-5.56337 -3.92833,0.80108 2.66417,4.58818 3.77655,9.04718 5.15296,14.56099 2.98578,4.54392 1.27992,7.66174 -2.58993,1.01864 0.2652,-4.42623 -3.54248,-6.61545 -5.73968,-9.80759 5.82694,-1.93168 -3.23912,-8.24299 -1.06507,-13.38188 0.95791,-6.41434 -7.51195,-4.14966 -6.82827,-10.25191 -0.6342,-4.8977 -2.32123,-9.53514 -1.22602,-14.13687 2.10256,-5.11429 4.60125,-9.65509 7.78471,-14.32436 1.19364,-6.34396 4.39699,-9.88469 6.29643,-5.29638 5.10803,-6.11205 -5.52971,-7.87685 -5.54053,-11.924099 0.81058,-3.06323 0.44796,-7.6648 -1.60544,-11.024214 3.54372,-7.777242 -2.95864,-6.260279 -7.50122,-9.839463 -3.97277,-3.294997 -10.42112,-2.728577 -14.84158,-4.367304 -1.64655,2.644537 -15.86257,6.301617 -8.95092,1.375864 8.97628,-5.024783 -0.79096,-0.54769 -5.15847,1.566026 -2.37503,3.862319 -9.20321,4.896276 -13.85331,7.494253 -6.19899,3.092216 -12.78635,3.955968 -19.38881,6.184514 -8.23111,1.562471 6.65689,-3.924334 9.51315,-3.820278 5.04086,-2.402567 10.31176,-4.086353 14.47688,-7.934902 -6.57261,2.270862 -4.95433,-1.092273 -10.67553,0.670656 5.75198,-4.712783 -4.89539,-1.780599 -1.49221,-7.387166 3.61644,-3.521452 8.74828,-4.249474 13.26397,-5.553575 5.98393,-0.854794 7.47052,-4.661829 0.25984,-2.585466 -6.97964,1.88424 -7.15489,-4.942842 -0.14803,-4.420176 4.38597,-2.565551 8.62132,4.020813 6.80781,-3.205412 -5.62793,-5.038855 6.60118,-2.145007 9.3107,-5.848625 6.04268,-1.766473 12.50751,-3.368201 18.61526,-3.170036 2.94121,1.818757 7.12207,1.151416 12.63717,2.35991 5.87138,0.04294 11.55603,1.092457 16.99978,3.195564 4.98403,-1.586392 12.13867,-3.234903 16.25831,-2.256943 3.03839,-1.594022 10.66724,-0.54201 8.41092,1.007611 5.58071,-2.950618 10.57703,2.073574 16.3762,1.227668 -3.5188,4.469445 3.32229,2.008701 8.9951,3.181897 2.85485,0.756188 5.72526,-6.30282 10.44295,-0.958982 5.38961,1.274311 10.44438,0.371039 14.88094,-1.067877 -2.57563,5.138056 10.24694,-0.715435 3.92502,-4.093554 1.32856,-7.035463 14.39492,-3.469939 7.11983,0.965792 4.67396,2.373406 1.19083,1.178516 6.73098,2.701583 -3.77509,8.060091 6.21273,-3.03636 8.77025,-3.005079 7.87653,-0.572263 3.18226,6.714059 -0.92457,7.846756 -6.04591,0.328814 -9.85792,2.617587 -14.93363,6.349954 -5.6396,0.933374 -9.77469,4.040419 -14.80889,6.990639 -7.41453,4.570004 -4.03566,6.387384 -3.75731,12.029114 7.00501,-2.399013 10.64742,6.614668 17.6992,5.184613 0.93853,0.750337 -3.17352,13.168757 3.91069,10.241277 4.29815,-5.197035 0.65188,-10.230782 8.61359,-11.632385 5.73893,-4.291641 -0.46695,-9.221583 5.01,-13.304907 -0.40905,-7.289275 7.69846,-4.370667 11.66149,-3.960928 6.53028,2.557562 2.86217,5.567062 6.19244,9.702772 4.5318,1.493255 9.88178,-10.125048 10.92473,0.192405 0.56866,5.36272 1.35751,8.6145 7.81442,10.098177 2.76768,3.171489 3.60873,8.483908 -2.7931,9.481342 -5.29908,2.820674 -10.72863,4.332164 -16.86879,2.929234 -6.81426,0.23369 -11.84104,6.03986 -17.19551,9.93202 5.41283,-1.49126 10.3407,-8.84215 16.4351,-6.23354 -1.87348,1.66143 -4.22931,11.65114 3.7389,9.02725 6.35526,-6.61504 4.76554,3.15518 -2.41408,2.91797 -5.58605,4.25084 -13.31399,3.41155 -3.91091,-1.24789 -5.69801,-1.24445 -8.31051,3.71879 -14.20706,4.61771 -5.77705,5.08968 2.82704,5.79757 -5.87845,6.89349 -8.54263,0.70224 3.47235,1.60693 -5.32137,1.66691 -1.29874,5.2818 -5.09705,3.05491 -5.04186,7.63747 -4.34983,6.65443 0.49992,-6.92301 -3.99557,-0.26807 3.7285,4.35852 0.0838,10.76095 -5.58953,12.72066 -4.18302,2.6144 -11.60756,6.09328 -10.21613,12.50824 0.61931,4.37439 2.60869,10.33083 -1.28718,13.64258 -3.4415,-2.22022 -3.93937,-7.99775 -3.32594,-11.88595 -2.86859,-3.52743 -7.38829,-2.65206 -12.53746,-3.80003 -3.97593,2.33751 -4.27019,4.87942 -10.27334,2.42703 -4.97822,-1.84368 -9.68232,3.12282 -13.22477,5.98445 -0.55271,5.72972 -4.36598,10.69422 -4.32632,16.67231 0.72925,4.61439 2.95684,11.87971 8.33012,10.39183 6.91225,0.95216 7.7526,-5.60951 11.45894,-8.51558 7.88405,-2.94285 6.65242,1.67248 4.06478,6.55808 -2.82218,1.68574 -1.11142,5.49157 -4.4317,9.14319 2.72248,1.77186 8.33347,-1.45369 12.04348,0.85175 4.00743,2.31749 -0.13217,7.46921 -0.16924,11.05478 -1.01284,3.7744 3.36588,10.79623 7.23847,8.35989 3.67737,-4.45255 6.8504,2.0706 10.2234,0.48087 3.17034,-4.02958 4.85887,-7.5899 10.46994,-8.37087 6.1979,-4.50091 1.0786,2.90782 1.39558,6.4485 2.64132,2.53454 1.47705,-6.46868 5.24554,-7.49851 2.27696,4.01576 7.13589,4.14115 11.68299,5.7428 7.23098,-2.8633 5.82112,-1.70466 10.02711,1.40403 2.10653,3.65253 6.63145,5.99598 9.03205,9.80625 3.96558,2.92032 10.41166,-0.75819 13.95777,4.77219 1.8711,3.48027 6.98492,9.27477 3.15507,13.11674 6.17791,2.70704 4.82139,2.85904 11.40732,3.83562 5.25365,3.65954 5.09378,4.288 12.02646,5.38957 6.59013,-2.11077 8.87929,7.07368 14.97986,6.56754 4.19462,5.40437 1.74163,13.16041 -3.25223,17.31316 -2.70349,4.99252 -5.76679,8.53395 -4.166,14.62655 -0.17691,5.89236 -2.17188,11.07694 -3.84807,16.45991 -1.60286,5.25367 -8.08461,4.00699 -12.47011,7.1329 -6.3,2.29933 -4.84331,8.73952 -5.26322,13.79782 -3.09077,4.91157 -5.77677,10.10802 -8.76066,14.96913 l -0.0686,0.0872 z m 25.8678,123.86153 c 1.98407,4.31304 -14.34073,0.51866 -9.16694,0.48585 4.01533,1.32815 6.23377,-1.67744 9.16694,-0.48585 z m -172.83672,-1.12966 c -3.1219,1.53774 -16.29707,-3.40699 -7.37328,-2.39155 2.51254,0.61457 5.08729,1.12734 7.37328,2.39155 z m 195.63665,-3.1149 c 8.83449,2.68604 2.0597,6.46206 -3.75146,5.97286 -6.01509,0.86979 -12.30441,-0.37458 -4.24638,-3.45999 1.12538,-3.54545 5.05003,-3.09612 7.99784,-2.51287 z M 256.11282,458.70851 c 14.95936,1.5953 -10.23983,0.7513 0,0 z m -8.0813,-0.0495 c 10.47415,2.36819 -9.50958,-0.89659 0,0 z m 46.29132,-3.7103 c 9.07831,0.64369 3.92074,1.71876 -2.34004,1.3697 -7.07407,-1.57768 -2.16092,-2.14339 2.34004,-1.3697 z m 56.06026,-2.3786 c 2.12009,6.14232 -5.98384,2.07006 -8.97313,3.4224 -5.56426,-3.16139 6.29391,-2.09633 1.39712,-8.16479 2.9526,-1.20009 5.42217,3.242 7.57601,4.74239 z m -157.70761,29.44101 c -2.71766,-1.32747 5.6171,-0.71573 8.03854,-0.28639 3.50275,-2.63984 10.24821,0.64946 15.01642,0.27 11.0744,1.24868 22.21186,0.68073 33.26321,1.05362 9.36038,-1.36891 -6.19201,-1.33108 -9.23844,-1.63908 -5.21225,-0.76791 -10.47166,-0.74007 -14.78871,-4.06236 -7.04421,-1.1986 -13.44815,-1.98202 -2.829,-1.9959 6.52462,2.40597 9.88772,-3.16964 1.58464,-2.96675 -8.7659,-1.11267 -18.38233,-0.36688 -25.912,-5.83263 5.27047,0.81587 10.57792,1.35432 15.78659,0.65753 8.28396,-1.64935 -2.07345,-4.99423 7.38773,-4.14309 6.83562,-1.08477 13.56135,-3.29251 20.60666,-2.0717 7.83302,-0.59499 16.05223,0.9896 23.5869,-0.85815 5.14547,-1.26689 9.12693,1.26888 14.19314,1.60891 6.0221,1.61247 12.08566,-0.38601 18.15682,1.18571 -0.60919,-2.36567 -16.15293,-6.18423 -7.0091,-5.89096 5.95313,-0.70612 11.15666,3.64105 17.09195,1.01381 5.80533,0.54011 6.83341,-1.41984 12.85588,-0.32915 5.18574,2.53331 9.94912,0.53582 14.10586,0.92548 5.06751,1.50332 9.70712,0.38907 14.84498,-0.73883 7.16476,0.53705 4.22519,-5.13788 0.0458,-7.25516 0.14035,-3.3407 -3.51631,-7.26748 -0.0104,-9.9581 2.8619,-3.42938 6.48717,-4.93865 10.81377,-6.29858 7.69783,-2.44209 -0.3898,2.19565 -4.32272,2.67185 3.59538,4.83609 -5.83222,4.11267 -2.6043,9.08098 6.44856,2.06515 11.40654,7.33891 14.52451,13.01343 -2.83862,3.3309 -7.30085,4.82184 -12.01503,5.61411 -2.94088,2.89086 -13.2526,-0.24571 -12.59419,2.25475 9.85262,1.34053 3.90712,1.66184 0.83472,3.69633 6.38826,4.39505 15.37753,3.62323 22.97315,5.35416 6.24422,0.0811 12.81746,1.99949 18.49209,3.01373 7.44314,-2.31793 15.34826,-3.04567 23.06257,-1.67937 4.11202,-2.75031 10.25143,-1.02585 15.10454,-2.4537 7.90269,1.03573 8.10938,-3.86809 0.49734,-3.04908 -8.04819,2.30791 -7.98126,-4.35405 -0.15269,-3.98289 8.54791,-4.49301 20.17406,-1.27061 27.65058,-7.79602 -5.24483,-2.59417 7.42748,-3.03158 8.43738,-6.60508 5.08561,1.77888 6.81969,-1.9648 11.44145,0.25616 5.30027,-1.48765 8.91648,0.99473 13.98574,-1.11203 5.34956,-0.0788 10.74672,-5.07039 14.92262,-0.40404 4.60596,-2.84156 8.28606,-1.04838 13.06923,-2.3111 5.155,-1.15127 8.64079,2.70579 13.45535,1.4555 6.40348,-0.12773 13.59402,-0.71984 18.5747,-4.92111 3.94952,1.22305 8.619,4.62509 12.47508,1.28274 7.3115,-2.14507 14.48956,-3.6099 21.65406,-5.38672 2.82305,-2.57921 11.66394,-4.43631 12.96616,-0.4944 4.10082,2.84266 9.05542,3.87867 13.54646,2.16505 5.71924,-0.70589 12.23872,4.06273 3.97265,6.42663 1.70689,0.89147 -5.55548,6.52248 2.4285,4.90206 4.92005,-2.7775 9.19295,-6.73025 15.26849,-6.29277 6.644,-3.8314 14.23835,-6.71374 22.1425,-6.01049 4.16396,-3.72906 7.04307,1.81693 13.22885,0.14958 6.50088,0.26647 13.31791,0.71243 19.11956,-3.21015 4.46277,-2.70078 6.70107,5.77486 12.15982,2.26744 4.23253,0.0459 10.01307,-4.82594 12.93797,-0.34876 4.36347,0.57155 9.17205,2.74871 13.50687,-0.34916 8.42526,0.51966 16.80079,-0.0163 25.31645,-0.89905 4.52897,-5.16642 0.79711,5.2016 8.59346,1.69402 6.86882,-0.84229 10.59981,-0.21513 13.09175,3.56659 4.34758,2.63688 9.82911,-0.58965 13.1314,2.64826 4.98456,0.60479 7.43109,4.97646 13.70396,3.4802 6.55788,-0.40191 8.50279,3.65913 1.27887,5.16856 -8.55271,4.06783 -20.09239,3.6979 -26.53483,11.38626 5.81684,2.87334 -6.18463,2.32091 -9.9295,3.21977 -3.71587,1.94601 -11.94421,2.69239 -7.10315,6.66128 4.36288,1.86775 3.96369,3.40546 10.55177,2.63889 9.38499,0.81961 -4.95829,2.98259 -8.20941,3.76129 -26.89632,4.73653 -54.35858,1.79712 -81.51528,2.61615 -148.94697,-0.0939 -297.90694,0.18779 -446.84578,-0.14085 -11.445,-0.56911 -22.84121,-2.21089 -33.86492,-5.38723 z m 441.84554,-89.13576 c 9.21141,2.50328 -5.81708,6.20253 0,0 z m 184.66386,-22.69638 c 8.21153,-1.79327 5.97148,4.46952 1.63018,6.26983 -5.64744,6.69183 -5.38276,-5.60652 -2.01494,-6.34184 l 0.38476,0.072 z m 21.94087,-79.73712 c 2.99232,1.55794 3.86988,5.01028 4.25049,10.27214 -2.503,6.47787 6.97625,7.49836 5.54309,13.85813 2.71273,0.90508 2.08555,5.60725 5.33443,9.80335 -0.77419,5.33217 -1.05932,10.6777 -4.79705,15.02898 -2.5652,6.63943 -9.31321,9.96322 -13.25798,15.71841 -2.09831,6.59555 -8.22875,5.79871 -13.04969,9.17679 -4.18843,-2.93704 -4.2153,0.0694 -10.99693,-1.36664 -3.29696,-2.46818 -3.7971,-8.27055 -3.44015,-10.42102 -4.86977,1.60717 -2.25685,0.75474 0.95326,-5.57175 -5.10067,4.23969 -7.85154,7.81265 -8.90988,-0.15393 -0.98099,-4.13247 -9.54462,-4.91587 -14.10137,-2.34952 -5.57931,-0.13395 -9.6582,3.79505 -14.10688,5.49832 -5.50734,-1.48992 -9.4555,2.59002 -14.38475,3.28195 -8.09583,-1.2536 -0.87247,-5.27257 -0.53946,-10.07997 -0.20194,-5.73199 0.0774,-10.70423 -1.24524,-16.25152 2.69378,1.30718 1.01369,-1.82541 2.66014,-7.55422 1.74552,-7.04992 1.99694,-2.34736 8.00792,-7.824 4.53482,-1.69311 9.43778,-2.13016 13.71587,-4.93449 2.80431,-4.86752 5.89863,-8.48451 6.87383,-7.31982 1.26711,-1.80858 5.03589,-6.54342 7.53975,-7.83497 4.4362,-1.77034 8.11015,6.89934 9.61789,-1.40551 1.62052,-4.39776 9.28364,-4.08503 7.17861,-7.32547 2.73299,5.14881 13.78874,-0.27445 9.53724,5.91496 -5.08702,3.51239 -1.67647,7.71106 2.86444,10.80404 4.33123,5.22782 8.01625,-0.0786 9.45844,-5.19161 -0.13913,-3.53296 2.00586,-13.45835 4.4719,-11.44058 -0.40799,2.61202 1.97639,4.79183 0.82208,7.66795 z M 288.44847,180.08201 c -3.99796,-1.08216 1.13285,-9.5504 0,0 z m 0.64401,-8.335 c -5.57053,1.85024 -1.26694,-2.85992 0,0 z m 2.01882,-0.0308 c -0.25802,6.64044 -3.33248,-5.27199 0,0 z m 467.14162,72.39223 c 4,1.22884 8.01557,-3.70417 11.22018,-7.26091 3.19473,-1.40125 6.84726,-11.27908 8.71062,-4.42615 8.99146,2.18414 -2.83221,4.70173 0.55561,9.7537 4.06116,5.52527 0.18313,5.52822 -2.07835,11.47276 -1.38197,4.94083 -1.99927,11.10206 -7.33725,6.52176 -4.53589,-1.01419 -10.48812,0.40664 -10.87221,-6.04952 -2.24085,-2.549 -2.89561,-7.49111 -0.1986,-10.01164 z M 335.64182,113.07966 c 10.22148,2.94301 -5.83787,-0.83031 0,0 z m 6.19678,-7.32549 c -5.34593,0.64306 -8.06479,-6.480443 0,0 z m -138.86971,1.70142 c -3.4777,1.40719 -11.16281,-6.99916 -5.12791,-5.8198 3.47234,0.38558 4.04074,3.16037 5.12791,5.8198 z m 152.72174,-6.19864 c -5.44682,4.36125 5.72392,1.07865 3.85701,5.85319 4.64716,1.78619 -2.64155,8.47139 -2.533,3.13865 -3.97323,3.89651 -2.52847,-2.37114 -10.62732,-0.19587 1.33794,-3.13523 5.60915,-8.75283 10.28344,-11.324695 3.25801,-0.972172 -0.73159,1.889025 -0.98013,2.528725 z M 191.50381,91.477777 c 5.81757,-1.343007 -2.69657,10.621523 -0.82735,1.154431 0.099,-0.484734 0.5352,-0.77887 0.82735,-1.154431 z M 318.00098,69.82147 c -2.90548,3.837697 -2.58178,-2.283988 0,0 z m -4.64165,-1.452939 c -8.08943,4.541968 -3.46318,-2.619594 0,0 z m -2.4639,-7.64994 c 0.23047,1.93457 10.26978,4.315872 5.24233,5.812801 -4.10767,-3.111447 -10.97563,2.386266 -11.51739,-0.810358 2.86752,-0.363924 3.16516,-6.012562 6.27506,-5.002443 z m 20.38603,-3.803767 c -7.50611,-0.997586 7.79921,-4.561139 0,0 z m -35.52713,-4.921429 c -7.14242,2.912826 -8.5186,-4.198066 -0.78072,-1.423292 0.25312,0.47832 0.51888,0.949736 0.78072,1.423292 z m -27.43188,-9.798128 c -4.81079,3.311761 11.22451,-2.662596 8.17179,3.540603 4.91983,-7.476972 6.56339,-0.905341 8.03641,2.816365 4.73656,1.869529 -3.84085,5.420301 -7.67165,3.460133 -5.38698,-0.116491 -10.78339,1.533248 -16.26549,1.407567 -5.49677,-2.650471 -5.15446,-4.682513 2.52682,-4.115577 8.58868,-1.635116 -14.45486,0.141756 -4.46929,-2.32177 2.77288,0.127809 -7.40641,-1.910606 2.89674,-4.020299 2.23636,-0.190593 4.60449,-1.854719 6.77467,-0.767022 z m 18.50029,-0.711318 c -4.65055,4.208835 -6.19772,-3.005957 0,0 z m 51.60587,0.756901 c -6.01266,3.65012 -11.26088,-3.860039 -1.50811,-0.819066 l 0.89482,0.485985 0.61329,0.333081 z M 319.5611,42.112416 c 3.0121,-0.07671 11.3957,-1.933144 11.1547,2.288624 5.84094,-3.654149 8.75251,3.180337 13.27116,1.562584 7.88811,2.092543 5.42238,6.541736 4.87654,7.802185 4.91658,1.943648 13.52416,4.409266 4.78464,7.838991 -2.7165,-0.820037 -12.81991,-4.578679 -5.6949,1.492365 6.36591,9.332591 -10.60181,0.457528 -4.83872,4.815715 5.43404,4.976891 -11.13622,0.259214 -8.23927,-2.07919 -2.32733,-4.365555 -16.86106,0.762862 -8.99208,-4.234833 5.29245,0.98928 10.88832,-2.292042 11.56638,-7.007051 -6.81871,-1.059565 -3.83595,-6.304245 -11.53784,-4.31763 -4.21719,-0.05053 -14.35306,-0.221656 -14.77603,-2.758147 -1.70692,-0.226695 2.77187,-7.969842 9.66913,-6.801604 3.11471,-0.6714 -0.95859,0.894112 -1.24371,1.397991 z m -24.28601,-1.63281 c 7.19695,-0.911285 5.31103,4.15856 -0.15473,5.976032 -8.20073,-1.503372 -4.40325,-3.784889 -0.0777,-5.889785 l 0.23245,-0.08625 z m 11.32613,2.554457 c -8.16946,5.941288 -4.6774,-5.32044 1.99866,-3.194322 5.22687,0.212241 7.38372,0.841248 -1.99866,3.194322 z m -53.76649,3.351942 c -4.58983,2.709789 -12.81672,-1.285781 -4.80831,-3.755157 3.62557,-3.79516 7.81857,-3.999468 13.82113,-3.030218 9.90175,1.180465 -2.32238,3.223357 -6.08271,4.856675 -1.13705,0.492998 -2.28186,0.76175 -2.93011,1.9287 z m 56.86163,-8.569223 c -9.93972,4.249496 -3.16695,-5.196249 0,0 z m -5.54574,-3.986687 c -0.73172,6.392844 -7.92263,3.139025 -9.47401,2.636442 1.71105,-3.125197 6.58891,-1.699006 9.47401,-2.636442 z m -18.45204,1.17673 c 8.05096,1.289157 -2.98439,3.62691 -7.54027,3.479922 -12.44379,2.1304 4.63825,-2.526577 -7.25168,-0.892843 -9.61227,1.116946 2.97008,-5.225573 6.51887,-2.50288 4.84985,5.840051 5.54371,-5.235716 8.27308,-0.0842 z m 25.98257,-2.027119 c 6.35365,0.2937 4.94459,4.156393 12.01228,3.674932 4.38832,-2.173564 16.83336,0.662595 6.4247,2.412119 -6.14119,-0.495814 -12.43321,0.897822 -18.50515,-0.918548 3.77528,-4.839009 -10.74405,-4.318059 -0.42461,-5.187934 l 0.49278,0.01943 z m -36.96179,-1.216768 c -4.10578,3.346787 -10.40066,4.042073 -15.52201,3.437826 5.04079,-1.973743 10.09463,-3.421699 15.52201,-3.437826 z m 39.2615,0.276822 c -7.26821,0.729271 -3.05723,-2.09962 0,0 z m -28.52295,-0.391931 c -10.8943,1.988297 0.82076,-3.063829 0,0 z m 2.99225,-1.976058 c -6.18261,1.811859 -6.96023,-1.392821 0,0 z m 23.06576,1.185635 c -11.14191,1.186278 2.64059,-4.748105 0,0 z m -6.87958,-0.583563 c -4.12176,1.404966 -11.30886,-0.570534 -6.30994,-2.00302 1.91185,0.50799 5.70942,-0.159524 6.30994,2.00302 z m 25.3512,-2.8511 c 1.43126,1.460966 -9.99152,4.746762 -13.50853,2.164404 3.47728,-1.427213 -6.42168,-3.718282 3.77864,-4.859436 1.2751,-1.035914 9.23092,0.418669 9.72989,2.695032 z m 37.59232,-6.728811 c 5.66608,-0.447219 14.61167,1.474774 3.88768,2.269781 -7.95959,0.530791 1.40905,1.081134 -9.73007,2.489393 -2.79964,2.642522 -16.25776,2.282074 -12.86787,2.92379 0.36239,2.311137 -10.72166,3.387932 -9.57706,4.831479 4.483,1.47574 -9.22639,1.674862 -12.28521,1.480621 -8.18649,0.367001 -7.11813,-1.097257 -1.26239,-3.641289 4.31469,1.348379 0.35854,-2.039151 6.05435,-3.406248 -2.09472,-2.680235 15.2464,-0.921462 3.94265,-2.09275 -7.67712,1.668318 -12.28526,-4.364014 -1.92516,-3.206893 5.56031,-0.689555 10.36365,-0.912628 15.94726,-1.683093 5.95376,0.05754 11.84194,-0.299281 17.81582,0.03521 z M 755.46121,195.07943 c -8.68629,5.00759 -0.99773,-9.73786 0.58738,-2.15369 -0.5923,0.56095 -0.36133,1.44777 -0.58738,2.15369 z m -478.97578,-13.3097 c 5.04432,0.68944 9.33869,1.40244 12.76174,5.22852 6.32843,1.87347 7.0586,5.56931 -1.36516,4.48336 0.011,-0.80674 -2.93935,-5.10685 -7.56677,-6.31181 -4.36508,-2.57864 -5.53417,-0.96042 -11.0862,0.42377 2.04353,-2.0022 4.18444,-3.41478 7.25639,-3.82384 z m 281.66595,-35.3268 c 8.41656,-4.52429 -0.98368,4.41349 -0.1105,0.0106 l 0.1105,-0.0106 z M 507.21972,87.491481 c -2.30698,5.898939 -5.56625,-4.214558 -0.275,-0.492486 l 0.275,0.492486 z M 301.31656,192.02187 c 2.93992,-1.84485 10.51951,4.02926 5.93339,3.81023 -5.41882,1.31622 -5.76521,1.38329 -11.70362,1.02177 -2.65059,-1.76048 7.0201,-1.17735 2.15301,-5.42112 1.23471,0.0142 2.42044,0.32397 3.61722,0.58912 z m 625.01891,108.9501 c 2.1266,5.07368 -7.17413,0.8787 -0.74386,0.48619 l 0.74386,-0.48619 z m 4.6418,-2.30753 c -8.62199,4.7533 0.80637,-4.13555 0,0 z M 28.680092,297.22191 c 1.36482,-0.0769 -0.06509,3.09642 0,0 z M 345.43829,402.02739 c 4.86196,-4.39976 10.3783,1.54711 2.19173,0.65859 -0.73527,1.6245 -1.46117,-0.43163 -2.19173,-0.65859 z M 502.16245,125.84375 c -3.40554,7.6872 -1.90516,-7.95177 0,0 z M 463.70163,88.810047 c 7.10531,-0.53447 2.21474,10.850554 -3.55883,9.530877 -3.28128,-0.04746 -0.27127,-8.582725 3.55883,-9.530877 z m 9.99077,-9.5793 c -3.88622,3.582129 4.60783,2.690329 0.64745,7.337652 3.96846,1.915806 5.90108,8.316463 9.19737,9.912716 0.58824,6.353785 -7.75309,3.546425 -11.56757,6.075735 -10.98941,2.1544 4.92232,-4.298176 -2.5398,-3.806024 -2.57008,-3.944118 5.8271,-3.999692 2.87955,-8.323896 -4.04553,-2.630302 -4.68591,-2.309662 -4.79954,-8.112067 0.70267,-3.610223 3.40459,-2.849394 6.18254,-3.084116 z m 62.77414,65.547283 c 9.10991,0.83775 3.79292,4.12766 -0.0782,0.27545 l 0.0782,-0.27545 z M 402.67055,21.562025 c 14.13959,-2.055147 28.69995,-2.693447 42.91038,-0.181361 -6.09512,1.452167 -12.46628,0.505475 -18.68055,0.975934 4.17513,0.962481 14.50406,-0.580088 15.20972,1.359954 -0.3871,1.151022 10.43088,-1.628854 14.57482,-0.585794 6.49725,1.357405 -7.79357,3.122214 -10.55436,3.189253 5.1995,-2.414839 -1.89926,6.725723 -1.04864,6.980594 -7.19935,-0.470673 3.89219,6.466553 -3.63056,6.242761 1.7196,1.964751 -6.13765,2.168238 -4.16246,4.624868 -8.12386,-3.351677 7.82792,7.027395 -3.35571,3.506616 -7.19425,-0.982661 0.40969,2.960319 2.47474,2.15551 -6.39804,3.394547 -13.65907,3.914566 -20.39838,5.600846 -4.37362,5.478112 -12.26167,3.51047 -17.32384,7.392853 -3.03123,4.827518 -6.45992,6.786326 -8.73038,12.412215 -3.70899,-1.509381 -11.16668,-0.355057 -11.75688,-6.009501 -3.63292,-4.008119 -3.80042,-9.930203 -3.23062,-13.125271 3.24848,-2.401927 12.19719,-7.607346 3.08368,-4.709857 -9.66714,-3.425909 10.59356,-2.731584 0.75347,-5.10148 -6.99159,1.287033 2.82925,-6.14886 -5.22358,-8.724732 -1.37405,-3.852441 -10.05376,-2.095747 -14.32825,-2.332589 -11.27425,-0.549854 -0.0942,-3.786214 1.41863,-2.953859 -6.69759,0.525763 -13.26126,-2.83499 -2.67149,-3.094442 8.3859,-0.536777 8.51253,-1.792839 7.32066,-3.446537 6.25699,-0.803001 10.2126,-2.929041 16.12655,-3.178559 5.4925,-0.505777 10.68396,0.455582 15.9775,-0.448305 4.82693,0.274372 9.36798,2.63079 5.20272,-0.502725 l 0.0428,-0.04639 z M 784.86521,280.07296 c -8.52356,-0.94257 -0.60093,-5.31026 0,0 z m 11.29151,-2.48591 c -6.76601,6.92052 -2.98451,-2.92927 2.41946,-2.82217 8.22463,-1.33289 -0.2413,1.98016 -2.41946,2.82217 z m -17.85566,-3.81208 c 10.55442,1.73619 -10.94559,5.4241 0,0 z m 12.66132,-0.005 c -3.11453,5.81411 -12.36636,-0.89417 -2.35514,1.07665 0.78505,-0.35888 1.57009,-0.71777 2.35514,-1.07665 z m -35.88369,-3.8671 c 6.1829,-1.57863 9.09319,1.19664 14.63753,2.93339 6.81538,4.34331 -6.35812,1.46604 -9.57658,1.09363 -4.69426,-1.62112 -9.53791,-1.58348 -13.32403,-3.81278 1.08872,-4.49315 6.75397,-2.90585 8.26308,-0.21424 z m 66.22246,-1.65776 c -3.65298,6.44456 0.0646,-6.85355 0,0 z m -18.54429,-8.08786 c -3.29724,3.45227 -4.64834,-4.05033 0,0 z m 8.20917,-1.07581 c 3.60055,4.10145 -13.09321,-1.01143 -2.75925,-0.85654 0.91975,0.28551 1.8395,0.57103 2.75925,0.85654 z m 25.57486,17.6942 c -2.7277,-5.44003 -12.00415,0.73154 -5.62904,-6.29088 0.41183,-7.16595 -8.28696,-6.05698 -11.89191,-10.09297 -6.68522,3.27074 0.97121,-6.00455 -1.83487,-3.89291 -8.31168,-1.2716 -4.14607,-7.23983 2.67189,-4.25655 0.43411,7.14614 4.0518,8.96357 8.56427,2.95952 5.66737,-0.0507 10.92376,3.92939 16.50845,5.49925 2.61287,2.24426 12.07086,8.18828 7.27484,9.03853 2.67835,5.58823 5.13105,8.41265 8.62144,10.4968 -3.48802,2.05442 -10.40511,-1.38598 -11.29729,-6.543 -6.64651,-4.72347 -6.06791,6.28086 -12.41405,3.11028 l -0.57373,-0.0281 z m -38.73313,-30.94397 c -1.5584,7.11415 -11.97035,-0.76936 -13.13269,5.48213 0.96834,5.68729 12.32746,-2.85932 5.89336,3.13844 -5.60741,1.23002 6.01074,11.68719 -0.49586,11.34027 1.02253,-0.44465 -4.25177,-8.65077 -4.85145,-6.16742 0.69255,9.30979 -2.58494,6.43456 -3.14527,0.61468 -0.61216,-4.02886 1.14224,-9.87686 3.97553,-13.35545 3.33526,-0.2216 9.25664,1.46958 11.75638,-1.05265 z m 8.76283,0.84627 c -0.8361,6.09288 -3.30494,6.68231 -2.8601,-1.64378 0.32769,-3.0349 2.17043,0.96757 2.8601,1.64378 z m -58.44862,20.50629 c -5.3824,-0.18398 -8.95054,-6.40785 -11.86337,-10.74684 -2.93304,-4.5691 -4.45974,-10.00049 -8.38267,-13.6391 -2.56949,-3.87543 -10.92225,-11.14445 -0.79404,-8.20419 3.78224,4.93266 8.01156,8.76025 13.01809,11.29875 4.2396,3.98686 2.33896,8.917 7.88081,11.23591 2.53988,2.67368 -0.56643,6.72143 0.14118,10.05547 z M 451.38418,58.675775 c 3.458,5.220167 -4.99592,6.978386 -10.11249,7.484747 -5.75962,0.03659 -9.88877,-3.42825 -6.12531,-3.891222 -5.53249,-1.52202 -0.30637,-4.728269 4.95458,-2.150119 3.62358,-0.729458 7.30578,-1.404716 11.28322,-1.443406 z m 65.22736,78.660445 c 3.06404,8.49195 -11.23989,0.80639 -4.92344,0.50428 1.63532,0.17475 3.2928,-0.37247 4.92344,-0.50428 z m -15.16518,-8.73675 c 4.5756,5.98494 -3.37377,9.17337 -2.42531,0.75715 1.06491,0.52443 1.69826,-0.11283 2.42531,-0.75715 z M 286.2869,195.63242 c 10.43663,2.51618 -7.49702,2.45495 0,0 z m 516.33165,-46.26259 c 2.16551,4.57067 -8.67602,3.73412 -2.50922,0.6051 0.0826,-2.01019 1.39696,-0.82108 2.50922,-0.6051 z m 11.38088,-8.8294 c 4.45279,7.79178 -4.70631,5.69245 -7.35436,10.07833 -1.38096,-2.57341 -13.04212,-2.31835 -10.79596,0.65767 4.75711,7.93263 -1.52054,7.20718 -4.831,0.61172 3.8599,-2.71622 5.95442,-9.57374 12.44301,-6.58769 -2.2309,-7.22625 7.37617,-2.99216 5.214,-11.51019 -6.23636,-8.39911 5.46199,-4.72747 4.40488,1.74064 -1.1848,1.93997 0.18237,3.24035 0.91943,5.00952 z m -3.63515,-20.58262 c 7.19248,-1.7932 3.51551,7.25689 -0.99771,5.15052 -0.40965,3.35989 -9.27858,0.93638 -3.88537,-2.84567 -2.78965,-8.36476 -1.93955,-5.53595 4.88308,-2.30485 z M 687.01903,227.90694 c -0.0477,8.72776 -7.92242,1.4067 -5.0283,-3.99327 0.0654,-6.64525 4.34516,2.13125 5.0283,3.99327 z m -82.19738,58.72824 c 2.99455,6.42248 0.71334,9.26305 0.0988,11.55064 -2.57829,8.18432 -5.75108,16.91983 -8.89615,25.22478 -5.36809,4.15888 -9.19065,-0.84482 -8.69733,-6.39768 -0.32028,-5.19587 5.50726,-8.36613 2.68528,-14.13636 -0.73404,-6.42216 6.34264,-5.25925 9.24786,-9.48156 1.79691,-1.09219 3.92247,-9.07392 5.56153,-6.75982 z m 287.14537,25.36863 c 6.62763,7.7609 -6.62605,-0.36025 -2.50027,-2.8338 1.00765,0.77973 1.822,1.76178 2.50027,2.8338 z M 523.57062,31.303336 c -7.0122,3.152276 -9.0501,-3.247159 -1.65182,-0.308435 l 1.00098,0.186907 0.65084,0.121528 z m -12.1252,-3.967746 c 10.72239,1.244414 0.28748,2.276902 -1.92892,6.335899 -5.73389,-1.222188 -5.39901,-2.450327 -11.5077,-6.234209 4.80755,-0.209587 8.82778,-1.020789 13.43662,-0.10169 z m 11.99762,-1.455752 c 8.45124,1.424341 -6.82164,3.39628 -9.22483,1.162491 -9.8035,-1.034324 3.45651,-1.75428 6.80253,-1.438985 0.80743,0.09216 1.61487,0.184329 2.4223,0.276494 z M 883.39407,370.55011 c 4.58439,-0.0291 -1.09561,5.07583 -5.34036,7.16295 -3.4427,2.00434 -8.66321,6.73683 -13.48461,9.08445 -7.57963,1.45811 -5.59901,-4.22262 0.58794,-6.12261 7.12342,-2.18719 12.65526,-7.21131 18.49508,-11.37072 l -0.20652,0.99712 -0.0515,0.24881 z m 11.89537,-13.9986 c 1.0746,1.88455 0.0704,5.6183 5.711,4.19464 1.23719,3.75614 -6.84339,5.05496 -8.8911,8.8836 -7.98331,6.27298 -1.83895,-0.52117 -3.75088,-4.06278 6.11873,-2.08846 5.58021,-8.73469 4.73586,-13.81576 1.64355,-0.34367 3.64217,3.06521 2.19512,4.8003 z M 799.67356,225.28947 c 1.33681,8.19425 -1.61585,2.19829 -2.78291,7.83174 -3.75433,-4.15714 -3.38086,-6.85376 -8.21712,-4.23986 1.67208,-5.53926 8.59465,-3.37409 9.05627,-6.99892 1.74123,0.47265 1.47109,2.04312 1.94376,3.40704 z m -6.56507,-5.48163 c -4.58082,8.09257 -3.04571,-4.55338 -0.64308,-1.74915 1.005,-2.65069 0.4637,1.02303 0.64308,1.74915 z m -13.5735,2.83301 c -8.82306,10.48153 2.36106,-5.47858 2.23302,-5.06179 1.36026,2.09016 -1.98795,3.00715 -2.23302,5.06179 z m 7.75827,-7.57683 c 7.4937,0.96664 -0.55835,8.05261 0,0 z m 9.02501,-0.79682 c 1.79768,4.35659 -2.78768,6.88372 -1.78294,2.12322 0.34048,-1.30262 -2.36692,-5.62171 1.78294,-2.12322 z m -10.34625,-2.66679 c 0.0586,6.4838 -5.52921,-5.26544 0,0 z m -2.99531,-16.00383 c 6.17508,0.36972 1.24967,7.688 2.83588,11.85823 4.1669,-1.48772 10.10219,8.58246 4.03082,3.44835 -2.99083,0.6382 -8.21117,-4.49018 -7.49193,-3.97376 -1.71146,-2.42325 -2.53487,-8.61811 0.62523,-11.33282 z m 91.76872,74.42861 c -5.56314,-2.81281 -2.49683,-8.93637 0,0 z m -9.56951,-3.94269 c -2.20271,4.49448 -14.02437,0.3553 -5.82185,0.1466 1.53689,1.51005 6.38204,-6.35986 6.78308,-1.9366 l -0.48175,0.89711 -0.47948,0.89289 z m 3.10399,-2.87107 c -0.85396,-0.0827 -9.38628,-9.31433 -2.10792,-3.69671 0.76409,1.31284 2.37719,1.9351 2.10792,3.69671 z M 314.47915,195.56074 c 6.63027,2.9335 -9.24125,1.21195 0,0 z m 483.51386,-94.47592 c 9.95766,6.16206 -1.93331,2.82444 4.58488,9.42811 6.9989,3.916 -1.56633,5.57891 -2.66505,-0.87523 -2.89359,-4.89525 -5.76542,-9.662246 -9.86088,-13.610613 -4.30616,-7.750967 1.62092,-3.348158 4.90495,1.961182 0.91452,1.110361 2.04731,2.047271 3.0361,3.096551 z M 140.97886,46.065061 c 9.80632,-0.527692 -6.70403,4.049589 0,0 z m 680.2559,1.669316 c -4.80748,1.219804 -3.20628,-3.839125 0,0 z m -75.21642,-5.754445 c -8.6873,1.378115 -7.40285,-3.553952 -0.0805,-0.0543 l 0.0805,0.0543 z m 7.8953,-4.405193 c -5.79653,2.616311 -12.83794,-2.679714 -2.27145,-0.259987 0.75715,0.08666 1.5143,0.173325 2.27145,0.259987 z m -11.59212,-1.104202 c -0.0988,2.915979 -11.40564,2.828644 -14.3568,-0.201184 1.76264,-2.74581 10.74965,0.02423 14.3568,0.201184 z m -153.1372,11.53615 c -3.34472,0.973763 -14.45855,-1.252853 -11.02132,-3.670061 1.70387,-4.107488 1.2162,-6.060056 7.39283,-8.25119 5.43797,-1.236086 11.35327,-2.676319 16.73868,-2.292558 -0.86073,3.041681 -11.43341,1.960682 -15.1674,5.59025 -4.33515,4.378548 -4.34737,6.746718 2.05721,8.623559 z m 75.00636,-17.69507 c -7.19019,3.33789 -12.90778,-3.6724 -3.07035,-1.453468 0.94079,0.542031 2.99703,-0.127666 3.07035,1.453468 z m -97.054,-4.71782 c -3.82311,1.665395 -13.39426,-0.205622 -7.72584,-0.441493 2.45957,0.663257 6.90145,-1.065161 7.72584,0.441493 z m 86.83881,3.480383 c -6.35939,1.157582 -12.29866,-1.528929 -18.17581,-3.05963 5.51706,-3.396484 13.44525,-0.995186 17.92446,2.746382 l 0.25135,0.313248 z M 889.33486,280.7877 c 1.35364,3.41602 -4.5545,-2.38121 0,0 z m -2.96422,-1.79186 c -5.07017,0.8726 -2.55231,-4.51311 0,0 z m 2.19304,-0.8014 c -2.99318,-0.50766 -2.12622,-6.75086 -0.3181,-0.53391 l 0.3181,0.53391 z m -4.13134,-3.71021 c -3.54541,0.11086 -5.13973,-6.13742 0,0 z m -5.62265,-2.90822 c -2.34024,0.42215 -4.41881,-5.25614 0,0 z m -554.50613,-53.1824 c 6.41146,-1.73773 -2.65026,6.47078 0,0 z m 456.09185,-40.1895 c 1.72991,9.83652 -5.9178,5.34604 -2.23058,-1.28543 0.77016,-2.7029 2.85654,-0.43966 2.23058,1.28543 z M 91.976998,193.88626 c -4.418786,-3.06053 5.780128,-3.74856 0.0022,-0.001 l -0.0022,0.001 z m -0.175389,-4.6055 c -3.038763,0.68243 -0.103641,-2.98576 0,0 z m -1.271397,-1.57338 c -0.771133,1.34261 -2.547131,-0.79999 -0.178998,-0.0185 l 0.178998,0.0185 z m -2.110747,-0.42544 c -2.681689,1.17518 -0.679443,-3.24055 0,0 z m -3.65318,-1.94807 c -3.024922,1.20315 0.864275,-2.50327 0,0 z M 155.1969,83.359871 c -10.41076,2.268163 8.78678,-5.734166 0.13815,-0.06114 l -0.13815,0.06114 z M 135.65086,75.79966 c -7.91237,1.22289 2.41385,-3.684046 0,0 z m -2.04651,-10.23289 c 11.64339,1.886363 -2.85315,2.923687 0,0 z M 900.58669,298.3982 c -2.32745,1.07782 -1.25958,-3.71338 0,0 z m -0.89277,-4.51093 c 0.46023,6.55368 -3.2675,-2.5336 0,0 z"
       id="path8"
       inkscape:connector-curvature="0" />
  </g>
  <g
     inkscape:groupmode="layer"
     id="layer2"
     inkscape:label="graticule"
     style="display:inline">
    <path
       class="graticule"
       d="m 228.57207,487.53921 -11.39458,-0.81078 -9.88846,-1.34754 -8.68038,-1.78123 -7.71804,-2.13036 -6.95676,-2.41069 -6.35877,-2.63546 -5.8921,-2.81584 -5.53,-2.9611 -10.284,-6.25435 -9.60076,-6.58028 -9.17051,-6.82086 -8.86276,-7.01658 -8.59754,-7.19018 -8.32956,-7.35256 -8.03665,-7.50735 -7.711138,-7.65396 -7.35396,-7.78999 -6.970505,-7.91256 -6.567944,-8.01928 -6.153577,-8.10868 -5.733904,-8.18032 -5.314203,-8.2348 -4.898413,-8.27355 -4.48923,-8.29859 -4.088278,-8.31231 -3.696329,-8.31717 -3.313518,-8.31559 -2.939528,-8.30972 -2.573742,-8.30141 -2.215358,-8.29214 -1.863465,-8.28297 -1.517097,-8.27471 -1.17526,-8.26778 L 23.8588,266.51604 23.357637,258.25712 23.190751,250 l 0.166886,-8.25713 0.501163,-8.25891 0.836952,-8.26248 1.17526,-8.26779 1.517097,-8.2747 1.863466,-8.28298 2.215358,-8.29213 2.573742,-8.30142 2.939527,-8.30971 3.313518,-8.31559 3.69633,-8.31717 4.088278,-8.31231 4.48923,-8.2986 4.898413,-8.27355 5.314203,-8.2348 5.733904,-8.18031 6.153577,-8.10868 6.567944,-8.01928 6.970505,-7.912562 7.35396,-7.789987 7.711136,-7.653963 8.03665,-7.507345 8.32956,-7.352569 8.59754,-7.190175 8.86276,-7.016581 9.17051,-6.820858 9.60076,-6.580282 10.284,-6.254352 5.53,-2.961092 5.8921,-2.81584 6.35877,-2.635464 6.95676,-2.410687 7.71804,-2.130368 8.68038,-1.781227 9.88846,-1.347538 11.39458,-0.810784 m 10.47617,475.078424 -10.91981,-0.81078 -9.47644,-1.34754 -8.31871,-1.78123 -7.39644,-2.13036 -6.6669,-2.41069 -6.09382,-2.63546 -5.6466,-2.81584 -5.29958,-2.9611 -9.8555,-6.25435 -9.20073,-6.58028 -8.7884,-6.82086 -8.49349,-7.01658 -8.2393,-7.19018 -7.9825,-7.35256 -7.70179,-7.50735 -7.38984,-7.65396 -7.04754,-7.78999 -6.680069,-7.91256 -6.29428,-8.01928 -5.897178,-8.10868 -5.494992,-8.18032 -5.092777,-8.2348 -4.694313,-8.27355 -4.302179,-8.29859 -3.917933,-8.31231 -3.542315,-8.31717 -3.175455,-8.31559 -2.817047,-8.30972 -2.466503,-8.30141 -2.123051,-8.29214 -1.785821,-8.28297 -1.453885,-8.27471 -1.126291,-8.26778 -0.802078,-8.26248 -0.480281,-8.25892 L 42.22447,250 l 0.159933,-8.25713 0.48028,-8.25891 0.802079,-8.26248 1.126291,-8.26779 1.453885,-8.2747 1.785821,-8.28298 2.123051,-8.29213 2.466503,-8.30142 2.817048,-8.30971 3.175454,-8.31559 3.542316,-8.31717 3.917933,-8.31231 4.302179,-8.2986 4.694313,-8.27355 5.092777,-8.2348 5.494992,-8.18031 5.897178,-8.10868 6.29428,-8.01928 6.680067,-7.912562 7.04754,-7.789987 7.38984,-7.653963 7.70179,-7.507345 7.9825,-7.352569 8.2393,-7.190175 8.49349,-7.016581 8.7884,-6.820858 9.20073,-6.580282 9.8555,-6.254352 5.29958,-2.961092 5.6466,-2.81584 6.09382,-2.635464 6.6669,-2.410687 7.39645,-2.130368 8.3187,-1.781227 9.47644,-1.347538 10.91981,-0.810784 m 10.47616,475.078424 -10.44504,-0.81078 -9.06441,-1.34754 -7.95703,-1.78123 -7.07486,-2.13036 -6.37703,-2.41069 -5.82887,-2.63546 -5.4011,-2.81584 -5.06916,-2.9611 -9.427,-6.25435 -8.8007,-6.58028 -8.4063,-6.82086 -8.1242,-7.01658 -7.88107,-7.19018 -7.63544,-7.35256 -7.36692,-7.50735 -7.06855,-7.65396 -6.74113,-7.78999 -6.38963,-7.91256 -6.02061,-8.01928 -5.64078,-8.10868 -5.256079,-8.18032 -4.871352,-8.2348 -4.490212,-8.27355 -4.115128,-8.29859 -3.747588,-8.31231 -3.388302,-8.31717 -3.037392,-8.31559 -2.694567,-8.30972 -2.359263,-8.30141 -2.030745,-8.29214 -1.708176,-8.28297 -1.390672,-8.27471 -1.077322,-8.26778 -0.767206,-8.26248 -0.459399,-8.25892 L 61.258189,250 l 0.152979,-8.25713 0.459399,-8.25891 0.767205,-8.26248 1.077322,-8.26779 1.390673,-8.2747 1.708176,-8.28298 2.030745,-8.29213 2.359264,-8.30142 2.694567,-8.30971 3.037391,-8.31559 3.388302,-8.31717 3.747589,-8.31231 4.115127,-8.2986 4.490213,-8.27355 4.871352,-8.2348 5.256077,-8.18031 5.64078,-8.10868 6.02062,-8.01928 6.38963,-7.912562 6.74112,-7.789987 7.06855,-7.653963 7.36692,-7.507345 7.63544,-7.352569 7.88107,-7.190175 8.1242,-7.016581 8.4063,-6.820858 8.8007,-6.580282 9.427,-6.254352 5.06916,-2.961092 5.4011,-2.81584 5.82887,-2.635464 6.37703,-2.410687 7.07487,-2.130368 7.95702,-1.781227 9.06441,-1.347538 10.44504,-0.810784 m 10.47616,475.078424 -9.97026,-0.81078 -8.6524,-1.34754 -7.59534,-1.78123 -6.75327,-2.13036 -6.08717,-2.41069 -5.56392,-2.63546 -5.1556,-2.81584 -4.83874,-2.9611 -8.9985,-6.25435 -8.40067,-6.58028 -8.02419,-6.82086 -7.75492,-7.01658 -7.52285,-7.19018 -7.28836,-7.35256 -7.03207,-7.50735 -6.74725,-7.65396 -6.43471,-7.78999 -6.09919,-7.91256 -5.74695,-8.01928 -5.38438,-8.10868 -5.01717,-8.18032 -4.64993,-8.2348 -4.28611,-8.27355 -3.92807,-8.29859 -3.577248,-8.31231 -3.234288,-8.31717 -2.899328,-8.31559 -2.572087,-8.30972 -2.252024,-8.30141 -1.938438,-8.29214 -1.630532,-8.28297 -1.32746,-8.27471 -1.028353,-8.26778 -0.732332,-8.26248 -0.438517,-8.25892 L 80.291907,250 l 0.146026,-8.25713 0.438517,-8.25891 0.732333,-8.26248 1.028352,-8.26779 1.327461,-8.2747 1.630532,-8.28298 1.938438,-8.29213 2.252024,-8.30142 2.572087,-8.30971 2.899328,-8.31559 3.234288,-8.31717 3.577247,-8.31231 3.92807,-8.2986 4.28612,-8.27355 4.64992,-8.2348 5.01717,-8.18031 5.38438,-8.10868 5.74695,-8.01928 6.09919,-7.912562 6.43472,-7.789987 6.74724,-7.653963 7.03207,-7.507345 7.28837,-7.352569 7.52284,-7.190175 7.75492,-7.016581 8.02419,-6.820858 8.40067,-6.580282 8.9985,-6.254352 4.83875,-2.961092 5.15559,-2.81584 5.56392,-2.635464 6.08717,-2.410687 6.75327,-2.130368 7.59535,-1.781227 8.65239,-1.347538 9.97026,-0.810784 m 10.47617,475.078424 -9.49549,-0.81078 -8.24038,-1.34754 -7.23366,-1.78123 -6.43169,-2.13036 -5.7973,-2.41069 -5.29898,-2.63546 -4.91008,-2.81584 -4.60833,-2.9611 -8.57,-6.25435 -8.00064,-6.58028 -7.64209,-6.82086 -7.38564,-7.01658 -7.16461,-7.19018 -6.9413,-7.35256 -6.69721,-7.50735 -6.42595,-7.65396 -6.1283,-7.78999 -5.80875,-7.91256 -5.47329,-8.01928 -5.12798,-8.10868 -4.77825,-8.18032 -4.4285,-8.2348 -4.08201,-8.27355 -3.74103,-8.29859 -3.4069,-8.31231 -3.08027,-8.31717 -2.76127,-8.31559 -2.4496,-8.30972 -2.14479,-8.30141 -1.84613,-8.29214 -1.55289,-8.28297 -1.26424,-8.27471 -0.97939,-8.26778 -0.697457,-8.26248 -0.417635,-8.25892 L 99.325626,250 l 0.139072,-8.25713 0.417635,-8.25891 0.697457,-8.26248 0.97939,-8.26779 1.26424,-8.2747 1.55289,-8.28298 1.84613,-8.29213 2.14479,-8.30142 2.44961,-8.30971 2.76126,-8.31559 3.08027,-8.31717 3.4069,-8.31231 3.74103,-8.2986 4.08201,-8.27355 4.4285,-8.2348 4.77826,-8.18031 5.12798,-8.10868 5.47328,-8.01928 5.80876,-7.912562 6.1283,-7.789987 6.42594,-7.653963 6.69721,-7.507345 6.9413,-7.352569 7.16462,-7.190175 7.38563,-7.016581 7.64209,-6.820858 8.00064,-6.580282 8.57,-6.254352 4.60833,-2.961092 4.91008,-2.81584 5.29898,-2.635464 5.7973,-2.410687 6.43169,-2.130368 7.23366,-1.781227 8.24038,-1.347538 9.49549,-0.810784 m 10.47616,475.078424 -9.02071,-0.81078 -7.82836,-1.34754 -6.87198,-1.78123 -6.1101,-2.13036 -5.50744,-2.41069 -5.03403,-2.63546 -4.66458,-2.81584 -4.37791,-2.9611 -8.1415,-6.25435 -7.60061,-6.58028 -7.25998,-6.82086 -7.01636,-7.01658 -6.80638,-7.19018 -6.59424,-7.35256 -6.36234,-7.50735 -6.10465,-7.65396 -5.82189,-7.78999 -5.51832,-7.91256 -5.19962,-8.01928 -4.87158,-8.10868 -4.53934,-8.18032 -4.20708,-8.2348 -3.87791,-8.27355 -3.55397,-8.29859 -3.23656,-8.31231 -2.92626,-8.31717 -2.6232,-8.31559 -2.32712,-8.30972 -2.03755,-8.30141 -1.75382,-8.29214 -1.47525,-8.28297 -1.20103,-8.27471 -0.93042,-8.26778 -0.66258,-8.26248 -0.39676,-8.25892 -0.13212,-8.25712 0.13212,-8.25713 0.39676,-8.25891 0.66258,-8.26248 0.93042,-8.26779 1.20103,-8.2747 1.47525,-8.28298 1.75382,-8.29213 2.03755,-8.30142 2.32712,-8.30971 2.62321,-8.31559 2.92626,-8.31717 3.23655,-8.31231 3.55397,-8.2986 3.87791,-8.27355 4.20708,-8.2348 4.53934,-8.18031 4.87158,-8.10868 5.19963,-8.01928 5.51831,-7.912562 5.82189,-7.789987 6.10465,-7.653963 6.36234,-7.507345 6.59424,-7.352569 6.80638,-7.190175 7.01636,-7.016581 7.25999,-6.820858 7.6006,-6.580282 8.1415,-6.254352 4.37791,-2.961092 4.66458,-2.81584 5.03403,-2.635464 5.50744,-2.410687 6.1101,-2.130368 6.87198,-1.781227 7.82836,-1.347538 9.02071,-0.810784 m 10.47617,475.078424 -8.54594,-0.81078 -7.41634,-1.34754 -6.5103,-1.78123 -5.78852,-2.13036 -5.21757,-2.41069 -4.76908,-2.63546 -4.41908,-2.81584 -4.14749,-2.9611 -7.713,-6.25435 -7.20057,-6.58028 -6.87789,-6.82086 -6.64707,-7.01658 -6.44815,-7.19018 -6.24718,-7.35256 -6.02748,-7.50735 -5.78335,-7.65396 -5.51547,-7.78999 -5.22788,-7.91256 -4.92596,-8.01928 -4.61518,-8.10868 -4.30043,-8.18032 -3.98565,-8.2348 -3.67381,-8.27355 -3.36693,-8.29859 -3.0662,-8.31231 -2.77225,-8.31717 -2.48514,-8.31559 -2.20465,-8.30972 -1.9303,-8.30141 -1.66152,-8.29214 -1.3976,-8.28297 -1.13782,-8.27471 -0.88145,-8.26778 -0.62771,-8.26248 -0.37587,-8.25892 -0.12517,-8.25712 0.12517,-8.25713 0.37587,-8.25891 0.62771,-8.26248 0.88145,-8.26779 1.13782,-8.2747 1.3976,-8.28298 1.66152,-8.29213 1.93031,-8.30142 2.20464,-8.30971 2.48514,-8.31559 2.77225,-8.31717 3.06621,-8.31231 3.36692,-8.2986 3.67381,-8.27355 3.98565,-8.2348 4.30043,-8.18031 4.61518,-8.10868 4.92596,-8.01928 5.22788,-7.912562 5.51547,-7.789987 5.78335,-7.653963 6.02749,-7.507345 6.24717,-7.352569 6.44815,-7.190175 6.64707,-7.016581 6.87789,-6.820858 7.20057,-6.580282 7.713,-6.254352 4.14749,-2.961092 4.41908,-2.81584 4.76908,-2.635464 5.21757,-2.410687 5.78852,-2.130368 6.5103,-1.781227 7.41634,-1.347538 8.54594,-0.810784 m 10.47616,475.078424 -8.07117,-0.81078 -7.00432,-1.34754 -6.14861,-1.78123 -5.46693,-2.13036 -4.92772,-2.41069 -4.50412,-2.63546 -4.17358,-2.81584 -3.91707,-2.9611 -7.28451,-6.25435 -6.80053,-6.58028 -6.49578,-6.82086 -6.27779,-7.01658 -6.08992,-7.19018 -5.90011,-7.35256 -5.69263,-7.50735 -5.46205,-7.65396 -5.20906,-7.78999 -4.93744,-7.91256 -4.65229,-8.01928 -4.35879,-8.10868 -4.06151,-8.18032 -3.76423,-8.2348 -3.46971,-8.27355 -3.17987,-8.29859 -2.89586,-8.31231 -2.61824,-8.31717 -2.34707,-8.31559 -2.08217,-8.30972 -1.82306,-8.30141 -1.56922,-8.29214 -1.31995,-8.28297 -1.07461,-8.27471 -0.83248,-8.26778 -0.59284,-8.26248 -0.35499,-8.25892 -0.11821,-8.25712 0.11821,-8.25713 0.35499,-8.25891 0.59284,-8.26248 0.83248,-8.26779 1.07461,-8.2747 1.31996,-8.28298 1.56921,-8.29213 1.82306,-8.30142 2.08217,-8.30971 2.34708,-8.31559 2.61823,-8.31717 2.89586,-8.31231 3.17987,-8.2986 3.46971,-8.27355 3.76423,-8.2348 4.06152,-8.18031 4.35878,-8.10868 4.65229,-8.01928 4.93744,-7.912562 5.20906,-7.789987 5.46205,-7.653963 5.69263,-7.507345 5.90011,-7.352569 6.08992,-7.190175 6.27779,-7.016581 6.49578,-6.820858 6.80054,-6.580282 7.2845,-6.254352 3.91708,-2.961092 4.17357,-2.81584 4.50413,-2.635464 4.92771,-2.410687 5.46693,-2.130368 6.14861,-1.781227 7.00432,-1.347538 8.07117,-0.810784 m 10.47616,475.078424 -7.59639,-0.81078 -6.5923,-1.34754 -5.78693,-1.78123 -5.14535,-2.13036 -4.63785,-2.41069 -4.23917,-2.63546 -3.92807,-2.81584 -3.68667,-2.9611 -6.856,-6.25435 -6.4005,-6.58028 -6.11368,-6.82086 -5.90851,-7.01658 -5.73169,-7.19018 -5.55304,-7.35256 -5.35776,-7.50735 -5.14076,-7.65396 -4.90264,-7.78999 -4.64701,-7.91256 -4.37862,-8.01928 -4.10239,-8.10868 -3.8226,-8.18032 -3.5428,-8.2348 -3.26561,-8.27355 -2.99282,-8.29859 -2.72552,-8.31231 -2.46422,-8.31717 -2.20901,-8.31559 -1.95969,-8.30972 -1.71583,-8.30141 -1.4769,-8.29214 -1.24231,-8.28297 -1.0114,-8.27471 -0.78351,-8.26778 -0.55796,-8.26248 -0.33411,-8.25892 L 175.4605,250 l 0.11126,-8.25713 0.33411,-8.25891 0.55796,-8.26248 0.78351,-8.26779 1.0114,-8.2747 1.24231,-8.28298 1.47691,-8.29213 1.71582,-8.30142 1.95969,-8.30971 2.20901,-8.31559 2.46422,-8.31717 2.72552,-8.31231 2.99282,-8.2986 3.26561,-8.27355 3.5428,-8.2348 3.8226,-8.18031 4.10239,-8.10868 4.37863,-8.01928 4.647,-7.912562 4.90264,-7.789987 5.14076,-7.653963 5.35776,-7.507345 5.55305,-7.352569 5.73168,-7.190175 5.90851,-7.016581 6.11368,-6.820858 6.4005,-6.580282 6.856,-6.254352 3.68667,-2.961092 3.92807,-2.81584 4.23917,-2.635464 4.63785,-2.410687 5.14535,-2.130368 5.78693,-1.781227 6.5923,-1.347538 7.59639,-0.810784 m 10.47617,475.078424 -7.12162,-0.81078 -6.18028,-1.34754 -5.42525,-1.78123 -4.82377,-2.13036 -4.34798,-2.41069 -3.97422,-2.63546 -3.68257,-2.81584 -3.45625,-2.9611 -6.4275,-6.25435 -6.00047,-6.58028 -5.73157,-6.82086 -5.53923,-7.01658 -5.37346,-7.19018 -5.20598,-7.35256 -5.0229,-7.50735 -4.81946,-7.65396 -4.59623,-7.78999 -4.35656,-7.91256 -4.10497,-8.01928 -3.84598,-8.10868 -3.58369,-8.18032 -3.32138,-8.2348 -3.06151,-8.27355 -2.80577,-8.29859 -2.55517,-8.31231 -2.31021,-8.31717 -2.07094,-8.31559 -1.83721,-8.30972 -1.60859,-8.30141 -1.3846,-8.29214 -1.16466,-8.28297 -0.94819,-8.27471 -0.73454,-8.26778 -0.52309,-8.26248 -0.31323,-8.25892 -0.1043,-8.25712 0.1043,-8.25713 0.31323,-8.25891 0.52309,-8.26248 0.73454,-8.26779 0.94819,-8.2747 1.16466,-8.28298 1.3846,-8.29213 1.60859,-8.30142 1.83721,-8.30971 2.07095,-8.31559 2.3102,-8.31717 2.55517,-8.31231 2.80577,-8.2986 3.06151,-8.27355 3.32138,-8.2348 3.58369,-8.18031 3.84598,-8.10868 4.10497,-8.01928 4.35656,-7.912562 4.59623,-7.789987 4.81946,-7.653963 5.02291,-7.507345 5.20597,-7.352569 5.37346,-7.190175 5.53923,-7.016581 5.73157,-6.820858 6.00047,-6.580282 6.4275,-6.254352 3.45625,-2.961092 3.68257,-2.81584 3.97422,-2.635464 4.34798,-2.410687 4.82377,-2.130368 5.42525,-1.781227 6.18028,-1.347538 7.12162,-0.810784 m 10.47616,475.078424 -6.64684,-0.81078 -5.76827,-1.34754 -5.06356,-1.78123 -4.50218,-2.13036 -4.05812,-2.41069 -3.70928,-2.63546 -3.43706,-2.81584 -3.22583,-2.9611 -5.999,-6.25435 -5.60044,-6.58028 -5.34947,-6.82086 -5.16994,-7.01658 -5.01523,-7.19018 -4.85891,-7.35256 -4.68805,-7.50735 -4.49816,-7.65396 -4.28981,-7.78999 -4.06613,-7.91256 -3.8313,-8.01928 -3.58959,-8.10868 -3.34477,-8.18032 -3.09995,-8.2348 -2.85741,-8.27355 -2.61872,-8.29859 -2.38483,-8.31231 -2.15619,-8.31717 -1.93289,-8.31559 -1.71472,-8.30972 -1.50135,-8.30141 -1.29229,-8.29214 -1.972,-16.55768 -1.17379,-16.53026 L 213.52794,250 l 0.38969,-16.51604 1.17379,-16.53027 1.972,-16.55768 1.29229,-8.29213 1.50135,-8.30142 1.71472,-8.30971 1.93289,-8.31559 2.15619,-8.31717 2.38483,-8.31231 2.61872,-8.2986 2.85741,-8.27355 3.09995,-8.2348 3.34478,-8.18031 3.58958,-8.10868 3.8313,-8.01928 4.06613,-7.912562 4.28981,-7.789987 4.49816,-7.653963 4.68805,-7.507345 4.85891,-7.352569 5.01523,-7.190175 5.16994,-7.016581 5.34947,-6.820858 5.60044,-6.580282 5.999,-6.254352 3.22583,-2.961092 3.43706,-2.81584 3.70928,-2.635464 4.05812,-2.410687 4.50218,-2.130368 5.06356,-1.781227 5.76827,-1.347538 6.64684,-0.810784 m 10.47616,475.078424 -6.17206,-0.81078 -5.35625,-1.34754 -4.70188,-1.78123 -4.1806,-2.13036 -3.76825,-2.41069 -3.44433,-2.63546 -3.19155,-2.81584 -2.99542,-2.9611 -5.5705,-6.25435 -5.20041,-6.58028 -4.96736,-6.82086 -4.80066,-7.01658 -4.657,-7.19018 -4.51185,-7.35256 -4.35318,-7.50735 -4.17687,-7.65396 -3.98339,-7.78999 -3.77569,-7.91256 -3.55764,-8.01928 -3.33319,-8.10868 -3.10586,-8.18032 -2.87853,-8.2348 -2.65331,-8.27355 -2.43166,-8.29859 -2.21449,-8.31231 -2.00218,-8.31717 -3.38706,-16.62531 -2.5941,-16.59355 -1.83114,-16.55768 -1.08994,-16.53026 L 232.56166,250 l 0.36186,-16.51604 1.08994,-16.53027 1.83114,-16.55768 2.5941,-16.59355 3.38707,-16.6253 2.00217,-8.31717 2.21449,-8.31231 2.43166,-8.2986 2.65331,-8.27355 2.87853,-8.2348 3.10586,-8.18031 3.33319,-8.10868 3.55764,-8.01928 3.77569,-7.912562 3.98339,-7.789987 4.17687,-7.653963 4.35318,-7.507345 4.51185,-7.352569 4.657,-7.190175 4.80066,-7.016581 4.96736,-6.820858 5.20041,-6.580282 5.5705,-6.254352 2.99542,-2.961092 3.19155,-2.81584 3.44433,-2.635464 3.76825,-2.410687 4.1806,-2.130368 4.70188,-1.781227 5.35625,-1.347538 6.17206,-0.810784 m 10.47617,475.078424 -5.6973,-0.81078 -4.94422,-1.34754 -4.3402,-1.78123 -3.85901,-2.13036 -3.47839,-2.41069 -3.17938,-2.63546 -2.94605,-2.81584 -2.765,-2.9611 -5.142,-6.25435 -4.80038,-6.58028 -4.58526,-6.82086 -4.43138,-7.01658 -8.46355,-14.54274 -4.01832,-7.50735 -3.85557,-7.65396 -3.67698,-7.78999 -3.48525,-7.91256 -3.28397,-8.01928 -3.07679,-8.10868 -2.86695,-8.18032 -2.65711,-8.2348 -2.4492,-8.27355 -2.24462,-8.29859 -3.8923,-16.62948 -3.12652,-16.62531 -2.39455,-16.59355 L 252.93551,283.0463 251.9294,266.51604 251.59538,250 l 0.33402,-16.51604 1.00611,-16.53027 1.69028,-16.55768 2.39455,-16.59355 3.12652,-16.6253 3.8923,-16.62948 2.24462,-8.2986 2.44921,-8.27355 2.6571,-8.2348 2.86695,-8.18031 3.07679,-8.10868 3.28397,-8.01928 3.48525,-7.912562 3.67698,-7.789987 3.85557,-7.653963 4.01832,-7.507345 8.46355,-14.542744 4.43139,-7.016581 4.58525,-6.820858 4.80038,-6.580282 5.142,-6.254352 2.765,-2.961092 2.94605,-2.81584 3.17938,-2.635464 3.47839,-2.410687 3.85901,-2.130368 4.3402,-1.781227 4.94422,-1.347538 5.6973,-0.810784 m 10.47616,475.078424 -5.22252,-0.81078 -4.53221,-1.34754 -3.97851,-1.78123 -3.53743,-2.13036 -3.18852,-2.41069 -2.91443,-2.63546 -2.70055,-2.81584 -2.53458,-2.9611 -4.7135,-6.25435 -4.40035,-6.58028 -4.20315,-6.82086 -4.0621,-7.01658 -7.75825,-14.54274 -7.21774,-15.16131 -3.37056,-7.78999 -3.19482,-7.91256 -3.01031,-8.01928 -2.82039,-8.10868 -5.06371,-16.41512 -4.30267,-16.57214 -3.56795,-16.62948 -2.86597,-16.62531 -2.19501,-16.59355 -1.54942,-16.55768 -0.92227,-16.53026 L 270.62909,250 l 0.30619,-16.51604 0.92227,-16.53027 1.54942,-16.55768 2.19501,-16.59355 2.86598,-16.6253 3.56794,-16.62948 4.30267,-16.57215 5.06372,-16.41511 2.82039,-8.10868 3.0103,-8.01928 3.19482,-7.912562 3.37056,-7.789987 7.21774,-15.161308 7.75825,-14.542744 4.0621,-7.016581 4.20315,-6.820858 4.40035,-6.580282 4.7135,-6.254352 2.53458,-2.961092 2.70055,-2.81584 2.91443,-2.635464 3.18852,-2.410687 3.53743,-2.130368 3.97851,-1.781227 4.53221,-1.347538 5.22252,-0.810784 m 10.47616,475.078424 -4.74774,-0.81078 -4.12019,-1.34754 -3.61683,-1.78123 -3.21584,-2.13036 -2.89866,-2.41069 -2.64948,-2.63546 -2.45505,-2.81584 -2.30416,-2.9611 -4.285,-6.25435 -4.00032,-6.58028 -3.82104,-6.82086 -3.69282,-7.01658 -7.05296,-14.54274 -6.56158,-15.16131 -5.96852,-15.70255 -5.30064,-16.12796 -4.60338,-16.41512 -3.91151,-16.57214 -3.24359,-16.62948 -2.60544,-16.62531 -1.99545,-16.59355 -1.40857,-16.55768 -0.83842,-16.53026 L 289.66281,250 l 0.27836,-16.51604 0.83842,-16.53027 1.40857,-16.55768 1.99545,-16.59355 2.60544,-16.6253 3.24359,-16.62948 3.91151,-16.57215 4.60338,-16.41511 5.30064,-16.12796 5.96852,-15.702549 6.56158,-15.161308 7.05296,-14.542744 3.69282,-7.016581 3.82104,-6.820858 4.00032,-6.580282 4.285,-6.254352 2.30416,-2.961092 2.45505,-2.81584 2.64948,-2.635464 2.89866,-2.410687 3.21584,-2.130368 3.61683,-1.781227 4.12019,-1.347538 4.74774,-0.810784 m 10.47617,475.078424 -4.27297,-0.81078 -3.70817,-1.34754 -3.25515,-1.78123 -2.89426,-2.13036 -2.60879,-2.41069 -2.38453,-2.63546 -4.28329,-5.77694 -3.8565,-6.25435 -3.60029,-6.58028 -6.76248,-13.83744 -6.34766,-14.54274 -5.90542,-15.16131 -5.37167,-15.70255 -4.77057,-16.12796 -4.14304,-16.41512 -3.52037,-16.57214 -2.91923,-16.62948 -2.34489,-16.62531 -1.79591,-16.59355 -1.26771,-16.55768 -0.75458,-16.53026 L 308.69653,250 l 0.25052,-16.51604 0.75458,-16.53027 1.26771,-16.55768 1.79591,-16.59355 2.3449,-16.6253 2.91922,-16.62948 3.52037,-16.57215 4.14304,-16.41511 4.77057,-16.12796 5.37167,-15.702549 5.90542,-15.161308 6.34766,-14.542744 6.76248,-13.837439 3.60029,-6.580282 3.8565,-6.254352 4.28329,-5.776932 2.38453,-2.635464 2.60879,-2.410687 2.89426,-2.130368 3.25515,-1.781227 3.70817,-1.347538 4.27297,-0.810784 m 10.47616,475.078424 -3.79819,-0.81078 -3.29616,-1.34754 -2.89346,-1.78123 -2.57268,-2.13036 -2.31892,-2.41069 -2.11959,-2.63546 -3.80736,-5.77694 -3.428,-6.25435 -3.20026,-6.58028 -6.01109,-13.83744 -5.64236,-14.54274 -5.24927,-15.16131 -4.77482,-15.70255 -4.2405,-16.12796 -3.68271,-16.41512 -3.12921,-16.57214 -2.59487,-16.62948 -2.08435,-16.62531 -1.59637,-16.59355 -1.12685,-16.55768 -0.67074,-16.53026 L 327.73025,250 l 0.22268,-16.51604 0.67074,-16.53027 1.12685,-16.55768 1.59637,-16.59355 2.08435,-16.6253 2.59487,-16.62948 3.12921,-16.57215 3.68271,-16.41511 4.2405,-16.12796 4.77482,-15.702549 5.24927,-15.161308 5.64236,-14.542744 6.01109,-13.837439 3.20026,-6.580282 3.428,-6.254352 3.80736,-5.776932 2.11959,-2.635464 2.31892,-2.410687 2.57268,-2.130368 2.89346,-1.781227 3.29616,-1.347538 3.79819,-0.810784 m 10.47616,475.078424 -3.32342,-0.81078 -2.88413,-1.34754 -2.53178,-1.78123 -2.25109,-2.13036 -2.02906,-2.41069 -1.85464,-2.63546 -3.33144,-5.77694 -2.9995,-6.25435 -2.80023,-6.58028 -5.2597,-13.83744 -4.93707,-14.54274 -4.59311,-15.16131 -4.17796,-15.70255 -3.71045,-16.12796 -3.22236,-16.41512 -2.73806,-16.57214 -2.27052,-16.62948 -1.8238,-16.62531 -1.39682,-16.59355 -0.986,-16.55768 -0.58689,-16.53026 L 346.76397,250 l 0.19485,-16.51604 0.58689,-16.53027 0.986,-16.55768 1.39682,-16.59355 1.82381,-16.6253 2.27051,-16.62948 2.73806,-16.57215 3.22236,-16.41511 3.71045,-16.12796 4.17797,-15.702549 4.5931,-15.161308 4.93707,-14.542744 5.2597,-13.837439 2.80023,-6.580282 2.9995,-6.254352 3.33144,-5.776932 1.85464,-2.635464 2.02906,-2.410687 2.25109,-2.130368 2.53178,-1.781227 2.88413,-1.347538 3.32342,-0.810784 m 10.47617,475.078424 -2.84865,-0.81078 -2.47211,-1.34754 -2.1701,-1.78123 -1.92951,-2.13036 -1.73919,-2.41069 -1.58969,-2.63546 -2.85552,-5.77694 -2.571,-6.25435 -2.40019,-6.58028 -4.50832,-13.83744 -4.23178,-14.54274 -3.93694,-15.16131 -3.58112,-15.70255 -3.18038,-16.12796 -2.76203,-16.41512 -2.34691,-16.57214 -1.94615,-16.62948 -1.56326,-16.62531 -1.19728,-16.59355 L 366.46775,283.0463 365.9647,266.51604 365.79769,250 l 0.16701,-16.51604 0.50305,-16.53027 0.84514,-16.55768 1.19728,-16.59355 1.56326,-16.6253 1.94615,-16.62948 2.34691,-16.57215 2.76203,-16.41511 3.18038,-16.12796 3.58112,-15.702549 3.93694,-15.161308 4.23178,-14.542744 4.50832,-13.837439 2.40019,-6.580282 2.571,-6.254352 2.85552,-5.776932 1.58969,-2.635464 1.73919,-2.410687 1.92951,-2.130368 2.1701,-1.781227 2.47211,-1.347538 2.84865,-0.810784 m 10.47616,475.078424 -2.37387,-0.81078 -2.06009,-1.34754 -1.80842,-1.78123 -1.60792,-2.13036 -1.44933,-2.41069 -1.32474,-2.63546 -2.37961,-5.77694 -2.1425,-6.25435 -2.00015,-6.58028 -3.75694,-13.83744 -3.52648,-14.54274 -3.28078,-15.16131 -2.98427,-15.70255 -2.65031,-16.12796 -2.30169,-16.41512 -1.95576,-16.57214 -1.6218,-16.62948 -1.30271,-16.62531 -0.99773,-16.59355 -0.70429,-16.55768 -0.41921,-16.53026 L 384.83141,250 l 0.13917,-16.51604 0.41921,-16.53027 0.70429,-16.55768 0.99773,-16.59355 1.30272,-16.6253 1.62179,-16.62948 1.95576,-16.57215 2.30169,-16.41511 2.65031,-16.12796 2.98427,-15.702549 3.28079,-15.161308 3.52647,-14.542744 3.75694,-13.837439 2.00015,-6.580282 2.1425,-6.254352 2.37961,-5.776932 1.32474,-2.635464 1.44933,-2.410687 1.60792,-2.130368 1.80842,-1.781227 2.06009,-1.347538 2.37387,-0.810784 m 10.47617,475.078424 -1.8991,-0.81078 -1.64808,-1.34754 -1.44673,-1.78123 -1.28634,-2.13036 -2.21925,-5.04615 -1.90369,-5.77694 -3.31412,-12.83463 -3.00555,-13.83744 -2.82118,-14.54274 -2.62463,-15.16131 -2.38741,-15.70255 -2.12026,-16.12796 -1.84135,-16.41512 -1.56461,-16.57214 -1.29743,-16.62948 -1.04217,-16.62531 -0.79819,-16.59355 -0.56342,-16.55768 -0.33537,-16.53026 L 403.86513,250 l 0.11134,-16.51604 0.33537,-16.53027 0.56342,-16.55768 0.79819,-16.59355 1.04217,-16.6253 1.29743,-16.62948 1.56461,-16.57215 1.84135,-16.41511 2.12026,-16.12796 2.38741,-15.702549 2.62463,-15.161308 2.82118,-14.542744 3.00555,-13.837439 3.31412,-12.834634 1.90369,-5.776932 2.21925,-5.046151 1.28634,-2.130368 1.44673,-1.781227 1.64808,-1.347538 1.8991,-0.810784 m 10.47616,475.078424 -1.42432,-0.81078 -1.23606,-1.34754 -1.08505,-1.78123 -0.96475,-2.13036 -1.66444,-5.04615 -1.42777,-5.77694 -2.48559,-12.83463 -2.25416,-13.83744 -2.11589,-14.54274 -1.96847,-15.16131 -1.79056,-15.70255 -1.59019,-16.12796 -1.38101,-16.41512 -1.17346,-16.57214 -1.75471,-33.25479 -1.0212,-33.15123 -0.33504,-33.0463 0.33504,-33.04631 1.0212,-33.15123 1.75471,-33.25478 1.17346,-16.57215 1.38101,-16.41511 1.59019,-16.12796 1.79056,-15.702549 1.96847,-15.161308 2.11589,-14.542744 2.25416,-13.837439 2.48559,-12.834634 1.42777,-5.776932 1.66444,-5.046151 0.96475,-2.130368 1.08505,-1.781227 1.23606,-1.347538 1.42432,-0.810784 m 10.47616,475.078424 -0.94955,-0.81078 -0.82403,-1.34754 -1.36654,-3.91159 -1.10963,-5.04615 -0.95184,-5.77694 -1.65706,-12.83463 -1.50277,-13.83744 -2.72291,-29.70405 -2.25383,-31.83051 -1.70298,-32.98726 -1.16981,-33.25479 -0.6808,-33.15123 -0.22336,-33.0463 0.22336,-33.04631 0.6808,-33.15123 1.16981,-33.25478 1.70298,-32.98726 2.25383,-31.830509 2.72291,-29.704052 1.50277,-13.837439 1.65706,-12.834634 0.95184,-5.776932 1.10963,-5.046151 1.36654,-3.911595 0.82403,-1.347538 0.94955,-0.810784 m 10.47617,475.078424 -0.47478,-0.81078 -0.41202,-1.34754 -0.68326,-3.91159 -1.03074,-10.82309 -1.57992,-26.67207 -1.36145,-29.70405 -1.12692,-31.83051 -0.85149,-32.98726 -0.5849,-33.25479 -0.3404,-33.15123 -0.11168,-33.0463 0.11168,-33.04631 0.3404,-33.15123 0.5849,-33.25478 0.85149,-32.98726 1.12692,-31.830509 1.36145,-29.704052 1.57992,-26.672073 1.03074,-10.823083 0.68326,-3.911595 0.41202,-1.347538 0.47478,-0.810784 M 480,487.53921 l 0,-43.56507 0,-61.53456 0,-66.24205 0,-66.19753 0,-66.19754 0,-66.24204 0,-61.534561 0,-43.565073 m 10.47616,475.078424 0.47478,-0.81078 0.41202,-1.34754 0.68326,-3.91159 1.03074,-10.82309 1.57992,-26.67207 1.36145,-29.70405 1.12692,-31.83051 0.85149,-32.98726 0.5849,-33.25479 0.3404,-33.15123 0.11168,-33.0463 -0.11168,-33.04631 -0.3404,-33.15123 -0.5849,-33.25478 -0.85149,-32.98726 -1.12692,-31.830509 -1.36145,-29.704052 -1.57992,-26.672073 -1.03074,-10.823083 -0.68326,-3.911595 -0.41202,-1.347538 -0.47478,-0.810784 m 10.47617,475.078424 0.94955,-0.81078 0.82403,-1.34754 1.36654,-3.91159 1.10963,-5.04615 0.95184,-5.77694 1.65706,-12.83463 1.50277,-13.83744 2.72291,-29.70405 2.25383,-31.83051 1.70298,-32.98726 1.16981,-33.25479 0.6808,-33.15123 0.22336,-33.0463 -0.22336,-33.04631 -0.6808,-33.15123 -1.16981,-33.25478 -1.70298,-32.98726 -2.25383,-31.830509 -2.72291,-29.704052 -1.50277,-13.837439 -1.65706,-12.834634 -0.95184,-5.776932 -1.10963,-5.046151 -1.36654,-3.911595 -0.82403,-1.347538 -0.94955,-0.810784 m 10.47616,475.078424 1.42432,-0.81078 1.23606,-1.34754 1.08505,-1.78123 0.96475,-2.13036 1.66444,-5.04615 1.42777,-5.77694 2.48559,-12.83463 2.25416,-13.83744 2.11589,-14.54274 1.96847,-15.16131 1.79056,-15.70255 1.59019,-16.12796 1.38101,-16.41512 1.17346,-16.57214 1.75471,-33.25479 1.0212,-33.15123 0.33504,-33.0463 -0.33504,-33.04631 -1.0212,-33.15123 -1.75471,-33.25478 -1.17346,-16.57215 -1.38101,-16.41511 -1.59019,-16.12796 -1.79056,-15.702549 -1.96847,-15.161308 -2.11589,-14.542744 -2.25416,-13.837439 -2.48559,-12.834634 -1.42777,-5.776932 -1.66444,-5.046151 -0.96475,-2.130368 -1.08505,-1.781227 -1.23606,-1.347538 -1.42432,-0.810784 m 10.47616,475.078424 1.8991,-0.81078 1.64808,-1.34754 1.44673,-1.78123 1.28634,-2.13036 2.21925,-5.04615 1.90369,-5.77694 3.31412,-12.83463 3.00555,-13.83744 2.82118,-14.54274 2.62463,-15.16131 2.38741,-15.70255 2.12026,-16.12796 1.84135,-16.41512 1.56461,-16.57214 1.29743,-16.62948 1.04217,-16.62531 0.79819,-16.59355 0.56342,-16.55768 0.33537,-16.53026 0.11134,-16.51604 -0.11134,-16.51604 -0.33537,-16.53027 -0.56342,-16.55768 -0.79819,-16.59355 -1.04217,-16.6253 -1.29743,-16.62948 -1.56461,-16.57215 -1.84135,-16.41511 -2.12026,-16.12796 -2.38741,-15.702549 -2.62463,-15.161308 -2.82118,-14.542744 -3.00555,-13.837439 -3.31412,-12.834634 -1.90369,-5.776932 -2.21925,-5.046151 -1.28634,-2.130368 -1.44673,-1.781227 -1.64808,-1.347538 -1.8991,-0.810784 m 10.47617,475.078424 2.37387,-0.81078 2.06009,-1.34754 1.80842,-1.78123 1.60792,-2.13036 1.44933,-2.41069 1.32474,-2.63546 2.37961,-5.77694 2.1425,-6.25435 2.00015,-6.58028 3.75694,-13.83744 3.52648,-14.54274 3.28078,-15.16131 2.98427,-15.70255 2.65031,-16.12796 2.30169,-16.41512 1.95576,-16.57214 1.6218,-16.62948 1.30271,-16.62531 0.99773,-16.59355 0.70429,-16.55768 0.41921,-16.53026 0.13917,-16.51604 -0.13917,-16.51604 -0.41921,-16.53027 -0.70429,-16.55768 -0.99773,-16.59355 -1.30272,-16.6253 -1.62179,-16.62948 -1.95576,-16.57215 -2.30169,-16.41511 -2.65031,-16.12796 -2.98427,-15.702549 -3.28079,-15.161308 -3.52647,-14.542744 -3.75694,-13.837439 -2.00015,-6.580282 -2.1425,-6.254352 -2.37961,-5.776932 -1.32474,-2.635464 -1.44933,-2.410687 -1.60792,-2.130368 -1.80842,-1.781227 -2.06009,-1.347538 -2.37387,-0.810784 m 10.47616,475.078424 2.84865,-0.81078 2.47211,-1.34754 2.1701,-1.78123 1.92951,-2.13036 1.73919,-2.41069 1.58969,-2.63546 2.85552,-5.77694 2.571,-6.25435 2.40019,-6.58028 4.50832,-13.83744 4.23178,-14.54274 3.93694,-15.16131 3.58112,-15.70255 3.18038,-16.12796 2.76203,-16.41512 2.34691,-16.57214 1.94615,-16.62948 1.56326,-16.62531 1.19728,-16.59355 0.84514,-16.55768 0.50305,-16.53026 0.16701,-16.51604 -0.16701,-16.51604 -0.50305,-16.53027 -0.84514,-16.55768 -1.19728,-16.59355 -1.56326,-16.6253 -1.94615,-16.62948 -2.34691,-16.57215 -2.76203,-16.41511 -3.18038,-16.12796 -3.58112,-15.702549 -3.93694,-15.161308 -4.23178,-14.542744 -4.50832,-13.837439 -2.40019,-6.580282 -2.571,-6.254352 -2.85552,-5.776932 -1.58969,-2.635464 -1.73919,-2.410687 -1.92951,-2.130368 -2.1701,-1.781227 -2.47211,-1.347538 -2.84865,-0.810784 m 10.47617,475.078424 3.32342,-0.81078 2.88413,-1.34754 2.53178,-1.78123 2.25109,-2.13036 2.02906,-2.41069 1.85464,-2.63546 3.33144,-5.77694 2.9995,-6.25435 2.80023,-6.58028 5.2597,-13.83744 4.93707,-14.54274 4.59311,-15.16131 4.17796,-15.70255 3.71045,-16.12796 3.22236,-16.41512 2.73806,-16.57214 2.27052,-16.62948 1.8238,-16.62531 1.39682,-16.59355 0.986,-16.55768 0.58689,-16.53026 0.19485,-16.51604 -0.19485,-16.51604 -0.58689,-16.53027 -0.986,-16.55768 -1.39682,-16.59355 -1.82381,-16.6253 -2.27051,-16.62948 -2.73806,-16.57215 -3.22236,-16.41511 -3.71045,-16.12796 -4.17797,-15.702549 -4.5931,-15.161308 -4.93707,-14.542744 -5.2597,-13.837439 -2.80023,-6.580282 -2.9995,-6.254352 -3.33144,-5.776932 -1.85464,-2.635464 -2.02906,-2.410687 -2.25109,-2.130368 -2.53178,-1.781227 -2.88413,-1.347538 -3.32342,-0.810784 m 10.47616,475.078424 3.79819,-0.81078 3.29616,-1.34754 2.89346,-1.78123 2.57268,-2.13036 2.31892,-2.41069 2.11959,-2.63546 3.80736,-5.77694 3.428,-6.25435 3.20026,-6.58028 6.01109,-13.83744 5.64236,-14.54274 5.24927,-15.16131 4.77482,-15.70255 4.2405,-16.12796 3.68271,-16.41512 3.12921,-16.57214 2.59487,-16.62948 2.08435,-16.62531 1.59637,-16.59355 1.12685,-16.55768 0.67074,-16.53026 0.22268,-16.51604 -0.22268,-16.51604 -0.67074,-16.53027 -1.12685,-16.55768 -1.59637,-16.59355 -2.08435,-16.6253 -2.59487,-16.62948 -3.12921,-16.57215 -3.68271,-16.41511 -4.2405,-16.12796 -4.77482,-15.702549 -5.24927,-15.161308 -5.64236,-14.542744 -6.01109,-13.837439 -3.20026,-6.580282 -3.428,-6.254352 -3.80736,-5.776932 -2.11959,-2.635464 -2.31892,-2.410687 -2.57268,-2.130368 -2.89346,-1.781227 -3.29616,-1.347538 -3.79819,-0.810784 m 10.47616,475.078424 4.27297,-0.81078 3.70817,-1.34754 3.25515,-1.78123 2.89426,-2.13036 2.60879,-2.41069 2.38453,-2.63546 4.28329,-5.77694 3.8565,-6.25435 3.60029,-6.58028 6.76248,-13.83744 6.34766,-14.54274 5.90542,-15.16131 5.37167,-15.70255 4.77057,-16.12796 4.14304,-16.41512 3.52037,-16.57214 2.91923,-16.62948 2.34489,-16.62531 1.79591,-16.59355 1.26771,-16.55768 0.75458,-16.53026 0.25052,-16.51604 -0.25052,-16.51604 -0.75458,-16.53027 -1.26771,-16.55768 -1.79591,-16.59355 -2.3449,-16.6253 -2.91922,-16.62948 -3.52037,-16.57215 -4.14304,-16.41511 -4.77057,-16.12796 -5.37167,-15.702549 -5.90542,-15.161308 -6.34766,-14.542744 -6.76248,-13.837439 -3.60029,-6.580282 -3.8565,-6.254352 -4.28329,-5.776932 -2.38453,-2.635464 -2.60879,-2.410687 -2.89426,-2.130368 -3.25515,-1.781227 -3.70817,-1.347538 -4.27297,-0.810784 m 10.47617,475.078424 4.74774,-0.81078 4.12019,-1.34754 3.61683,-1.78123 3.21584,-2.13036 2.89866,-2.41069 2.64948,-2.63546 2.45505,-2.81584 2.30416,-2.9611 4.285,-6.25435 4.00032,-6.58028 3.82104,-6.82086 3.69282,-7.01658 7.05296,-14.54274 6.56158,-15.16131 5.96852,-15.70255 5.30064,-16.12796 4.60338,-16.41512 3.91151,-16.57214 3.24359,-16.62948 2.60544,-16.62531 1.99545,-16.59355 1.40857,-16.55768 0.83842,-16.53026 0.27836,-16.51604 -0.27836,-16.51604 -0.83842,-16.53027 -1.40857,-16.55768 -1.99545,-16.59355 -2.60544,-16.6253 -3.24359,-16.62948 -3.91151,-16.57215 -4.60338,-16.41511 -5.30064,-16.12796 -5.96852,-15.702549 -6.56158,-15.161308 -7.05296,-14.542744 -3.69282,-7.016581 -3.82104,-6.820858 -4.00032,-6.580282 -4.285,-6.254352 -2.30416,-2.961092 -2.45505,-2.81584 -2.64948,-2.635464 -2.89866,-2.410687 -3.21584,-2.130368 -3.61683,-1.781227 -4.12019,-1.347538 -4.74774,-0.810784 m 10.47616,475.078424 5.22252,-0.81078 4.53221,-1.34754 3.97851,-1.78123 3.53743,-2.13036 3.18852,-2.41069 2.91443,-2.63546 2.70055,-2.81584 2.53458,-2.9611 4.7135,-6.25435 4.40035,-6.58028 4.20315,-6.82086 4.0621,-7.01658 7.75825,-14.54274 7.21774,-15.16131 3.37056,-7.78999 3.19482,-7.91256 3.01031,-8.01928 2.82039,-8.10868 5.06371,-16.41512 4.30267,-16.57214 3.56795,-16.62948 2.86597,-16.62531 2.19501,-16.59355 1.54942,-16.55768 0.92227,-16.53026 0.30619,-16.51604 -0.30619,-16.51604 -0.92227,-16.53027 -1.54942,-16.55768 -2.19501,-16.59355 -2.86598,-16.6253 -3.56794,-16.62948 -4.30267,-16.57215 -5.06372,-16.41511 -2.82039,-8.10868 -3.0103,-8.01928 -3.19482,-7.912562 -3.37056,-7.789987 -7.21774,-15.161308 -7.75825,-14.542744 -4.0621,-7.016581 -4.20315,-6.820858 -4.40035,-6.580282 -4.7135,-6.254352 -2.53458,-2.961092 -2.70055,-2.81584 -2.91443,-2.635464 -3.18852,-2.410687 -3.53743,-2.130368 -3.97851,-1.781227 -4.53221,-1.347538 -5.22252,-0.810784 m 10.47616,475.078424 5.6973,-0.81078 4.94422,-1.34754 4.3402,-1.78123 3.85901,-2.13036 3.47839,-2.41069 3.17938,-2.63546 2.94605,-2.81584 2.765,-2.9611 5.142,-6.25435 4.80038,-6.58028 4.58526,-6.82086 4.43138,-7.01658 8.46355,-14.54274 4.01832,-7.50735 3.85557,-7.65396 3.67698,-7.78999 3.48525,-7.91256 3.28397,-8.01928 3.07679,-8.10868 2.86695,-8.18032 2.65711,-8.2348 2.4492,-8.27355 2.24462,-8.29859 3.8923,-16.62948 3.12652,-16.62531 2.39455,-16.59355 1.69028,-16.55768 1.00611,-16.53026 0.33402,-16.51604 -0.33402,-16.51604 -1.00611,-16.53027 -1.69028,-16.55768 -2.39455,-16.59355 -3.12652,-16.6253 -3.8923,-16.62948 -2.24462,-8.2986 -2.44921,-8.27355 -2.6571,-8.2348 -2.86695,-8.18031 -3.07679,-8.10868 -3.28397,-8.01928 -3.48525,-7.912562 -3.67698,-7.789987 -3.85557,-7.653963 -4.01832,-7.507345 -8.46355,-14.542744 -4.43139,-7.016581 -4.58525,-6.820858 -4.80038,-6.580282 -5.142,-6.254352 -2.765,-2.961092 -2.94605,-2.81584 -3.17938,-2.635464 -3.47839,-2.410687 -3.85901,-2.130368 -4.3402,-1.781227 -4.94422,-1.347538 -5.6973,-0.810784 m 10.47617,475.078424 6.17206,-0.81078 5.35625,-1.34754 4.70188,-1.78123 4.1806,-2.13036 3.76825,-2.41069 3.44433,-2.63546 3.19155,-2.81584 2.99542,-2.9611 5.5705,-6.25435 5.20041,-6.58028 4.96736,-6.82086 4.80066,-7.01658 4.657,-7.19018 4.51185,-7.35256 4.35318,-7.50735 4.17687,-7.65396 3.98339,-7.78999 3.77569,-7.91256 3.55764,-8.01928 3.33319,-8.10868 3.10586,-8.18032 2.87853,-8.2348 2.65331,-8.27355 2.43166,-8.29859 2.21449,-8.31231 2.00218,-8.31717 3.38706,-16.62531 2.5941,-16.59355 1.83114,-16.55768 1.08994,-16.53026 0.36186,-16.51604 -0.36186,-16.51604 -1.08994,-16.53027 -1.83114,-16.55768 -2.5941,-16.59355 -3.38707,-16.6253 -2.00217,-8.31717 -2.21449,-8.31231 -2.43166,-8.2986 -2.65331,-8.27355 -2.87853,-8.2348 -3.10586,-8.18031 -3.33319,-8.10868 -3.55764,-8.01928 -3.77569,-7.912562 -3.98339,-7.789987 -4.17687,-7.653963 -4.35318,-7.507345 -4.51185,-7.352569 -4.657,-7.190175 -4.80066,-7.016581 -4.96736,-6.820858 -5.20041,-6.580282 -5.5705,-6.254352 -2.99542,-2.961092 -3.19155,-2.81584 -3.44433,-2.635464 -3.76825,-2.410687 -4.1806,-2.130368 -4.70188,-1.781227 -5.35625,-1.347538 -6.17206,-0.810784 m 10.47616,475.078424 6.64684,-0.81078 5.76827,-1.34754 5.06356,-1.78123 4.50218,-2.13036 4.05812,-2.41069 3.70928,-2.63546 3.43706,-2.81584 3.22583,-2.9611 5.999,-6.25435 5.60044,-6.58028 5.34947,-6.82086 5.16994,-7.01658 5.01523,-7.19018 4.85891,-7.35256 4.68805,-7.50735 4.49816,-7.65396 4.28981,-7.78999 4.06613,-7.91256 3.8313,-8.01928 3.58959,-8.10868 3.34477,-8.18032 3.09995,-8.2348 2.85741,-8.27355 2.61872,-8.29859 2.38483,-8.31231 2.15619,-8.31717 1.93289,-8.31559 1.71472,-8.30972 1.50135,-8.30141 1.29229,-8.29214 1.972,-16.55768 1.17379,-16.53026 0.38969,-16.51604 -0.38969,-16.51604 -1.17379,-16.53027 -1.972,-16.55768 -1.29229,-8.29213 -1.50135,-8.30142 -1.71472,-8.30971 -1.93289,-8.31559 -2.15619,-8.31717 -2.38483,-8.31231 -2.61872,-8.2986 -2.85741,-8.27355 -3.09995,-8.2348 -3.34478,-8.18031 -3.58958,-8.10868 -3.8313,-8.01928 -4.06613,-7.912562 -4.28981,-7.789987 -4.49816,-7.653963 -4.68805,-7.507345 -4.85891,-7.352569 -5.01523,-7.190175 -5.16994,-7.016581 -5.34947,-6.820858 -5.60044,-6.580282 -5.999,-6.254352 -3.22583,-2.961092 -3.43706,-2.81584 -3.70928,-2.635464 -4.05812,-2.410687 -4.50218,-2.130368 -5.06356,-1.781227 -5.76827,-1.347538 -6.64684,-0.810784 m 10.47616,475.078424 7.12162,-0.81078 6.18028,-1.34754 5.42525,-1.78123 4.82377,-2.13036 4.34798,-2.41069 3.97422,-2.63546 3.68257,-2.81584 3.45625,-2.9611 6.4275,-6.25435 6.00047,-6.58028 5.73157,-6.82086 5.53923,-7.01658 5.37346,-7.19018 5.20598,-7.35256 5.0229,-7.50735 4.81946,-7.65396 4.59623,-7.78999 4.35656,-7.91256 4.10497,-8.01928 3.84598,-8.10868 3.58369,-8.18032 3.32138,-8.2348 3.06151,-8.27355 2.80577,-8.29859 2.55517,-8.31231 2.31021,-8.31717 2.07094,-8.31559 1.83721,-8.30972 1.60859,-8.30141 1.3846,-8.29214 1.16466,-8.28297 0.94819,-8.27471 0.73454,-8.26778 0.52309,-8.26248 0.31323,-8.25892 0.1043,-8.25712 -0.1043,-8.25713 -0.31323,-8.25891 -0.52309,-8.26248 -0.73454,-8.26779 -0.94819,-8.2747 -1.16466,-8.28298 -1.3846,-8.29213 -1.60859,-8.30142 -1.83721,-8.30971 -2.07095,-8.31559 -2.3102,-8.31717 -2.55517,-8.31231 -2.80577,-8.2986 -3.06151,-8.27355 -3.32138,-8.2348 -3.58369,-8.18031 -3.84598,-8.10868 -4.10497,-8.01928 -4.35656,-7.912562 -4.59623,-7.789987 -4.81946,-7.653963 -5.02291,-7.507345 -5.20597,-7.352569 -5.37346,-7.190175 -5.53923,-7.016581 -5.73157,-6.820858 -6.00047,-6.580282 -6.4275,-6.254352 -3.45625,-2.961092 -3.68257,-2.81584 -3.97422,-2.635464 -4.34798,-2.410687 -4.82377,-2.130368 -5.42525,-1.781227 -6.18028,-1.347538 -7.12162,-0.810784 m 10.47617,475.078424 7.59639,-0.81078 6.5923,-1.34754 5.78693,-1.78123 5.14535,-2.13036 4.63785,-2.41069 4.23917,-2.63546 3.92807,-2.81584 3.68667,-2.9611 6.856,-6.25435 6.4005,-6.58028 6.11368,-6.82086 5.90851,-7.01658 5.73169,-7.19018 5.55304,-7.35256 5.35776,-7.50735 5.14076,-7.65396 4.90264,-7.78999 4.64701,-7.91256 4.37862,-8.01928 4.10239,-8.10868 3.8226,-8.18032 3.5428,-8.2348 3.26561,-8.27355 2.99282,-8.29859 2.72552,-8.31231 2.46422,-8.31717 2.20901,-8.31559 1.95969,-8.30972 1.71583,-8.30141 1.4769,-8.29214 1.24231,-8.28297 1.0114,-8.27471 0.78351,-8.26778 0.55796,-8.26248 0.33411,-8.25892 0.11126,-8.25712 -0.11126,-8.25713 -0.33411,-8.25891 -0.55796,-8.26248 -0.78351,-8.26779 -1.0114,-8.2747 -1.24231,-8.28298 -1.47691,-8.29213 -1.71582,-8.30142 -1.95969,-8.30971 -2.20901,-8.31559 -2.46422,-8.31717 -2.72552,-8.31231 -2.99282,-8.2986 -3.26561,-8.27355 -3.5428,-8.2348 -3.8226,-8.18031 -4.10239,-8.10868 -4.37863,-8.01928 -4.647,-7.912562 -4.90264,-7.789987 -5.14076,-7.653963 -5.35776,-7.507345 -5.55305,-7.352569 -5.73168,-7.190175 -5.90851,-7.016581 -6.11368,-6.820858 -6.4005,-6.580282 -6.856,-6.254352 -3.68667,-2.961092 -3.92807,-2.81584 -4.23917,-2.635464 -4.63785,-2.410687 -5.14535,-2.130368 -5.78693,-1.781227 -6.5923,-1.347538 -7.59639,-0.810784 m 10.47616,475.078424 8.07117,-0.81078 7.00432,-1.34754 6.14861,-1.78123 5.46693,-2.13036 4.92772,-2.41069 4.50412,-2.63546 4.17358,-2.81584 3.91707,-2.9611 7.28451,-6.25435 6.80053,-6.58028 6.49578,-6.82086 6.27779,-7.01658 6.08992,-7.19018 5.90011,-7.35256 5.69263,-7.50735 5.46205,-7.65396 5.20906,-7.78999 4.93744,-7.91256 4.65229,-8.01928 4.35879,-8.10868 4.06151,-8.18032 3.76423,-8.2348 3.46971,-8.27355 3.17987,-8.29859 2.89586,-8.31231 2.61824,-8.31717 2.34707,-8.31559 2.08217,-8.30972 1.82306,-8.30141 1.56922,-8.29214 1.31995,-8.28297 1.07461,-8.27471 0.83248,-8.26778 0.59284,-8.26248 0.35499,-8.25892 0.11821,-8.25712 -0.11821,-8.25713 -0.35499,-8.25891 -0.59284,-8.26248 -0.83248,-8.26779 -1.07461,-8.2747 -1.31996,-8.28298 -1.56921,-8.29213 -1.82306,-8.30142 -2.08217,-8.30971 -2.34708,-8.31559 -2.61823,-8.31717 -2.89586,-8.31231 -3.17987,-8.2986 -3.46971,-8.27355 -3.76423,-8.2348 -4.06152,-8.18031 -4.35878,-8.10868 -4.65229,-8.01928 -4.93744,-7.912562 -5.20906,-7.789987 -5.46205,-7.653963 -5.69263,-7.507345 -5.90011,-7.352569 -6.08992,-7.190175 -6.27779,-7.016581 -6.49578,-6.820858 -6.80054,-6.580282 -7.2845,-6.254352 -3.91708,-2.961092 -4.17357,-2.81584 -4.50413,-2.635464 -4.92771,-2.410687 -5.46693,-2.130368 -6.14861,-1.781227 -7.00432,-1.347538 -8.07117,-0.810784 m 10.47616,475.078424 8.54594,-0.81078 7.41634,-1.34754 6.5103,-1.78123 5.78852,-2.13036 5.21757,-2.41069 4.76908,-2.63546 4.41908,-2.81584 4.14749,-2.9611 7.713,-6.25435 7.20057,-6.58028 6.87789,-6.82086 6.64707,-7.01658 6.44815,-7.19018 6.24718,-7.35256 6.02748,-7.50735 5.78335,-7.65396 5.51547,-7.78999 5.22788,-7.91256 4.92596,-8.01928 4.61518,-8.10868 4.30043,-8.18032 3.98565,-8.2348 3.67381,-8.27355 3.36693,-8.29859 3.0662,-8.31231 2.77225,-8.31717 2.48514,-8.31559 2.20465,-8.30972 1.9303,-8.30141 1.66152,-8.29214 1.3976,-8.28297 1.13782,-8.27471 0.88145,-8.26778 0.62771,-8.26248 0.37587,-8.25892 0.12517,-8.25712 -0.12517,-8.25713 -0.37587,-8.25891 -0.62771,-8.26248 -0.88145,-8.26779 -1.13782,-8.2747 -1.3976,-8.28298 -1.66152,-8.29213 -1.93031,-8.30142 -2.20464,-8.30971 -2.48514,-8.31559 -2.77225,-8.31717 -3.06621,-8.31231 -3.36692,-8.2986 -3.67381,-8.27355 -3.98565,-8.2348 -4.30043,-8.18031 -4.61518,-8.10868 -4.92596,-8.01928 -5.22788,-7.912562 -5.51547,-7.789987 -5.78335,-7.653963 -6.02749,-7.507345 -6.24717,-7.352569 -6.44815,-7.190175 -6.64707,-7.016581 -6.87789,-6.820858 -7.20057,-6.580282 -7.713,-6.254352 -4.14749,-2.961092 -4.41908,-2.81584 -4.76908,-2.635464 -5.21757,-2.410687 -5.78852,-2.130368 -6.5103,-1.781227 -7.41634,-1.347538 -8.54594,-0.810784 m 10.47617,475.078424 9.02071,-0.81078 7.82836,-1.34754 6.87198,-1.78123 6.1101,-2.13036 5.50744,-2.41069 5.03403,-2.63546 4.66458,-2.81584 4.37791,-2.9611 8.1415,-6.25435 7.60061,-6.58028 7.25998,-6.82086 7.01636,-7.01658 6.80638,-7.19018 6.59424,-7.35256 6.36234,-7.50735 6.10465,-7.65396 5.82189,-7.78999 5.51832,-7.91256 5.19962,-8.01928 4.87158,-8.10868 4.53934,-8.18032 4.20708,-8.2348 3.87791,-8.27355 3.55397,-8.29859 3.23656,-8.31231 2.92626,-8.31717 2.6232,-8.31559 2.32712,-8.30972 2.03755,-8.30141 1.75382,-8.29214 1.47525,-8.28297 1.20103,-8.27471 0.93042,-8.26778 0.66258,-8.26248 0.39676,-8.25892 0.13212,-8.25712 -0.13212,-8.25713 -0.39676,-8.25891 -0.66258,-8.26248 -0.93042,-8.26779 -1.20103,-8.2747 -1.47525,-8.28298 -1.75382,-8.29213 -2.03755,-8.30142 -2.32712,-8.30971 -2.62321,-8.31559 -2.92626,-8.31717 -3.23655,-8.31231 -3.55397,-8.2986 -3.87791,-8.27355 -4.20708,-8.2348 -4.53934,-8.18031 -4.87158,-8.10868 -5.19963,-8.01928 -5.51831,-7.912562 -5.82189,-7.789987 -6.10465,-7.653963 -6.36234,-7.507345 -6.59424,-7.352569 -6.80638,-7.190175 -7.01636,-7.016581 -7.25999,-6.820858 -7.6006,-6.580282 -8.1415,-6.254352 -4.37791,-2.961092 -4.66458,-2.81584 -5.03403,-2.635464 -5.50744,-2.410687 -6.1101,-2.130368 -6.87198,-1.781227 -7.82836,-1.347538 -9.02071,-0.810784 m 10.47616,475.078424 9.49549,-0.81078 8.24038,-1.34754 7.23366,-1.78123 6.43169,-2.13036 5.7973,-2.41069 5.29898,-2.63546 4.91008,-2.81584 4.60833,-2.9611 8.57,-6.25435 8.00064,-6.58028 7.64209,-6.82086 7.38564,-7.01658 7.16461,-7.19018 6.9413,-7.35256 6.69721,-7.50735 6.42595,-7.65396 6.1283,-7.78999 5.80875,-7.91256 5.47329,-8.01928 5.12798,-8.10868 4.77825,-8.18032 4.4285,-8.2348 4.08201,-8.27355 3.74103,-8.29859 3.4069,-8.31231 3.08027,-8.31717 2.76127,-8.31559 2.4496,-8.30972 2.14479,-8.30141 1.84613,-8.29214 1.55289,-8.28297 1.26424,-8.27471 0.97939,-8.26778 0.69746,-8.26248 0.41763,-8.25892 0.13907,-8.25712 -0.13907,-8.25713 -0.41763,-8.25891 -0.69746,-8.26248 -0.97939,-8.26779 -1.26424,-8.2747 -1.55289,-8.28298 -1.84613,-8.29213 -2.14479,-8.30142 -2.44961,-8.30971 -2.76126,-8.31559 -3.08027,-8.31717 -3.4069,-8.31231 -3.74103,-8.2986 -4.08201,-8.27355 -4.4285,-8.2348 -4.77826,-8.18031 -5.12798,-8.10868 -5.47328,-8.01928 -5.80876,-7.912562 -6.1283,-7.789987 -6.42594,-7.653963 -6.69721,-7.507345 -6.9413,-7.352569 -7.16462,-7.190175 -7.38563,-7.016581 -7.64209,-6.820858 -8.00064,-6.580282 -8.57,-6.254352 -4.60833,-2.961092 -4.91008,-2.81584 -5.29898,-2.635464 -5.7973,-2.410687 -6.43169,-2.130368 -7.23366,-1.781227 -8.24038,-1.347538 -9.49549,-0.810784 m 10.47617,475.078424 9.97026,-0.81078 8.6524,-1.34754 7.59534,-1.78123 6.75327,-2.13036 6.08717,-2.41069 5.56392,-2.63546 5.1556,-2.81584 4.83874,-2.9611 8.9985,-6.25435 8.40067,-6.58028 8.02419,-6.82086 7.75492,-7.01658 7.52285,-7.19018 7.28836,-7.35256 7.03207,-7.50735 6.74725,-7.65396 6.43471,-7.78999 6.09919,-7.91256 5.74695,-8.01928 5.38438,-8.10868 5.01717,-8.18032 4.64993,-8.2348 4.28611,-8.27355 3.92807,-8.29859 3.57725,-8.31231 3.23429,-8.31717 2.89932,-8.31559 2.57209,-8.30972 2.25203,-8.30141 1.93843,-8.29214 1.63054,-8.28297 1.32746,-8.27471 1.02835,-8.26778 0.73233,-8.26248 0.43852,-8.25892 0.14602,-8.25712 -0.14602,-8.25713 -0.43852,-8.25891 -0.73233,-8.26248 -1.02836,-8.26779 -1.32746,-8.2747 -1.63053,-8.28298 -1.93844,-8.29213 -2.25202,-8.30142 -2.57209,-8.30971 -2.89933,-8.31559 -3.23428,-8.31717 -3.57725,-8.31231 -3.92807,-8.2986 -4.28612,-8.27355 -4.64992,-8.2348 -5.01717,-8.18031 -5.38438,-8.10868 -5.74695,-8.01928 -6.09919,-7.912562 -6.43472,-7.789987 -6.74724,-7.653963 -7.03207,-7.507345 -7.28837,-7.352569 -7.52284,-7.190175 -7.75492,-7.016581 -8.02419,-6.820858 -8.40067,-6.580282 -8.9985,-6.254352 -4.83875,-2.961092 -5.15559,-2.81584 -5.56392,-2.635464 -6.08717,-2.410687 -6.75327,-2.130368 -7.59535,-1.781227 -8.65239,-1.347538 -9.97026,-0.810784 m 10.47616,475.078424 10.44504,-0.81078 9.06441,-1.34754 7.95703,-1.78123 7.07486,-2.13036 6.37703,-2.41069 5.82887,-2.63546 5.4011,-2.81584 5.06916,-2.9611 9.427,-6.25435 8.8007,-6.58028 8.4063,-6.82086 8.1242,-7.01658 7.88107,-7.19018 7.63544,-7.35256 7.36692,-7.50735 7.06855,-7.65396 6.74113,-7.78999 6.38963,-7.91256 6.02061,-8.01928 5.64078,-8.10868 5.25608,-8.18032 4.87135,-8.2348 4.49021,-8.27355 4.11513,-8.29859 3.74759,-8.31231 3.3883,-8.31717 3.03739,-8.31559 2.69457,-8.30972 2.35926,-8.30141 2.03075,-8.29214 1.70817,-8.28297 1.39068,-8.27471 1.07732,-8.26778 0.7672,-8.26248 0.4594,-8.25892 0.15298,-8.25712 -0.15298,-8.25713 -0.4594,-8.25891 -0.7672,-8.26248 -1.07732,-8.26779 -1.39068,-8.2747 -1.70817,-8.28298 -2.03075,-8.29213 -2.35926,-8.30142 -2.69457,-8.30971 -3.03739,-8.31559 -3.3883,-8.31717 -3.74759,-8.31231 -4.11513,-8.2986 -4.49021,-8.27355 -4.87135,-8.2348 -5.25608,-8.18031 -5.64078,-8.10868 -6.02062,-8.01928 -6.38963,-7.912562 -6.74112,-7.789987 -7.06855,-7.653963 -7.36692,-7.507345 -7.63544,-7.352569 -7.88107,-7.190175 -8.1242,-7.016581 -8.4063,-6.820858 -8.8007,-6.580282 -9.427,-6.254352 -5.06916,-2.961092 -5.4011,-2.81584 -5.82887,-2.635464 -6.37703,-2.410687 -7.07487,-2.130368 -7.95702,-1.781227 -9.06441,-1.347538 -10.44504,-0.810784 m 10.47616,475.078424 10.91981,-0.81078 9.47644,-1.34754 8.31871,-1.78123 7.39644,-2.13036 6.6669,-2.41069 6.09382,-2.63546 5.6466,-2.81584 5.29958,-2.9611 9.8555,-6.25435 9.20073,-6.58028 8.7884,-6.82086 8.49349,-7.01658 8.2393,-7.19018 7.9825,-7.35256 7.70179,-7.50735 7.38984,-7.65396 7.04754,-7.78999 6.68007,-7.91256 6.29428,-8.01928 5.89718,-8.10868 5.49499,-8.18032 5.09278,-8.2348 4.69431,-8.27355 4.30218,-8.29859 3.91793,-8.31231 3.54232,-8.31717 3.17545,-8.31559 2.81705,-8.30972 2.4665,-8.30141 2.12305,-8.29214 1.78582,-8.28297 1.45389,-8.27471 1.12629,-8.26778 0.80208,-8.26248 0.48028,-8.25892 0.15993,-8.25712 -0.15993,-8.25713 -0.48028,-8.25891 -0.80208,-8.26248 -1.12629,-8.26779 -1.45389,-8.2747 -1.78582,-8.28298 -2.12305,-8.29213 -2.4665,-8.30142 -2.81705,-8.30971 -3.17546,-8.31559 -3.54231,-8.31717 -3.91793,-8.31231 -4.30218,-8.2986 -4.69432,-8.27355 -5.09277,-8.2348 -5.49499,-8.18031 -5.89718,-8.10868 -6.29428,-8.01928 -6.68007,-7.912562 -7.04754,-7.789987 -7.38984,-7.653963 -7.70179,-7.507345 -7.9825,-7.352569 -8.2393,-7.190175 -8.49349,-7.016581 -8.7884,-6.820858 -9.20073,-6.580282 -9.8555,-6.254352 -5.29958,-2.961092 -5.6466,-2.81584 -6.09382,-2.635464 -6.6669,-2.410687 -7.39645,-2.130368 -8.3187,-1.781227 -9.47644,-1.347538 -10.91981,-0.810784"
       id="path10"
       style="fill:none;stroke:#000000;stroke-opacity:1"
       inkscape:connector-curvature="0" />
  </g>
</svg>
