<?xml version="1.0" encoding="UTF-8" standalone="no"?>
<!-- Created with Inkscape (http://www.inkscape.org/) -->

<svg
   xmlns:dc="http://purl.org/dc/elements/1.1/"
   xmlns:cc="http://creativecommons.org/ns#"
   xmlns:rdf="http://www.w3.org/1999/02/22-rdf-syntax-ns#"
   xmlns:svg="http://www.w3.org/2000/svg"
   xmlns="http://www.w3.org/2000/svg"
   xmlns:sodipodi="http://sodipodi.sourceforge.net/DTD/sodipodi-0.dtd"
   xmlns:inkscape="http://www.inkscape.org/namespaces/inkscape"
   width="960"
   height="500"
   viewBox="0 0 960 500"
   version="1.1"
   id="svg2"
   inkscape:version="0.91 r13725"
   sodipodi:docname="base.svg">
  <metadata
     id="metadata14">
    <rdf:RDF>
      <cc:Work
         rdf:about="">
        <dc:format>image/svg+xml</dc:format>
        <dc:type
           rdf:resource="http://purl.org/dc/dcmitype/StillImage" />
        <dc:title></dc:title>
      </cc:Work>
    </rdf:RDF>
  </metadata>
  <defs
     id="defs12" />
  <sodipodi:namedview
     pagecolor="#ffffff"
     bordercolor="#666666"
     borderopacity="1"
     objecttolerance="10"
     gridtolerance="10"
     guidetolerance="10"
     inkscape:pageopacity="0"
     inkscape:pageshadow="2"
     inkscape:window-width="1680"
     inkscape:window-height="987"
     id="namedview10"
     showgrid="false"
     inkscape:zoom="0.98111066"
     inkscape:cx="355.11891"
     inkscape:cy="306.25604"
     inkscape:window-x="-8"
     inkscape:window-y="-8"
     inkscape:window-maximized="1"
     inkscape:current-layer="layer3" />
  <g
     inkscape:groupmode="layer"
     id="layer4"
     inkscape:label="back">
    <path
       id="sphere"
       d="M228.57208253316594,12.460785375990469L480,12.460785375990469L731.4279174668341,12.460785375990469L742.8225042383983,13.27156944207988L752.7109591863313,14.619106515594979L761.3913491679461,16.400333763613645L769.1093806545234,18.530701789275895L776.0661485845737,20.94138853193479L782.424914994471,23.576852512263713L788.3170194985687,26.39269267206913L793.8470148447593,29.353784484812792L804.1310158382381,35.60813612528722L813.7317762236394,42.18841835842437L822.902286984003,49.009276153043345L831.7650518380347,56.02585729552885L840.3625861041382,63.216033056732726L848.6921507322825,70.56860210604893L856.7287980293588,78.07594743562365L864.4399358002961,85.72991011102155L871.793895723485,93.51989713599127L878.7644004659287,101.4324572248353L885.3323447039959,109.45174127561583L891.4859218496341,117.56041713310768L897.2198264310734,125.74073396689052L902.5340287495605,133.9755332548512L907.4324420289544,142.2490837860091L911.9216725086862,150.5476799521L916.0099507590226,158.85998840063056L919.7062800429586,167.17716023178292L923.0197980239883,175.49274653899644L925.9593257513308,183.80246626243263L928.5330678119205,192.10387893274276L930.748425854372,200.39601265927647L932.6118911867104,208.67899123450943L934.1289883638324,216.95369490021466L935.3042487885982,225.22147840868993L936.141200092376,233.48395861488027L936.6423626658127,241.74287289595256L936.8092488212658,250L936.6423626658127,258.25712710404747L936.141200092376,266.51604138511976L935.3042487885982,274.7785215913101L934.1289883638324,283.04630509978534L932.6118911867104,291.32100876549055L930.748425854372,299.6039873407235L928.5330678119205,307.89612106725724L925.9593257513308,316.19753373756737L923.0197980239883,324.50725346100353L919.7062800429586,332.8228397682171L916.0099507590226,341.1400115993695L911.9216725086862,349.4523200479L907.4324420289544,357.7509162139909L902.5340287495605,366.0244667451488L897.2198264310734,374.2592660331095L891.4859218496341,382.43958286689235L885.3323447039959,390.54825872438414L878.7644004659287,398.5675427751647L871.793895723485,406.4801028640087L864.4399358002961,414.2700898889784L856.7287980293588,421.9240525643763L848.6921507322825,429.43139789395104L840.3625861041382,436.7839669432673L831.7650518380347,443.97414270447115L822.902286984003,450.99072384695666L813.7317762236394,457.81158164157563L804.1310158382381,464.3918638747128L793.8470148447593,470.64621551518724L788.3170194985687,473.60730732793087L782.424914994471,476.4231474877363L776.0661485845737,479.05861146806524L769.1093806545234,481.4692982107241L761.3913491679461,483.5996662363864L752.7109591863313,485.380893484405L742.8225042383983,486.7284305579201L731.4279174668341,487.53921462400956L480,487.53921462400956L228.57208253316594,487.53921462400956L217.17749576160168,486.7284305579201L207.28904081366875,485.380893484405L198.60865083205385,483.5996662363864L190.89061934547652,481.4692982107241L183.93385141542632,479.05861146806524L177.57508500552905,476.4231474877363L171.68298050143125,473.60730732793087L166.15298515524069,470.64621551518724L155.8689841617619,464.3918638747128L146.26822377636057,457.81158164157563L137.09771301599704,450.99072384695666L128.23494816196535,443.97414270447115L119.63741389586176,436.7839669432673L111.30784926771753,429.43139789395104L103.27120197064119,421.9240525643763L95.56006419970385,414.2700898889784L88.20610427651502,406.4801028640087L81.23559953407135,398.5675427751647L74.66765529600411,390.54825872438414L68.51407815036589,382.43958286689235L62.7801735689265,374.2592660331095L57.46597125043945,366.0244667451488L52.56755797104563,357.7509162139909L48.0783274913137,349.4523200479L43.9900492409775,341.1400115993695L40.29371995704139,332.8228397682171L36.9802019760117,324.50725346100353L34.040674248669234,316.19753373756737L31.466932188079397,307.89612106725724L29.251574145627956,299.6039873407235L27.38810881328959,291.32100876549055L25.871011636167623,283.04630509978534L24.69575121140184,274.7785215913101L23.85879990762396,266.51604138511976L23.357637334187245,258.25712710404747L23.190751178734274,250L23.357637334187245,241.74287289595256L23.85879990762396,233.48395861488027L24.69575121140184,225.22147840868993L25.871011636167623,216.95369490021466L27.38810881328959,208.67899123450943L29.251574145627956,200.39601265927647L31.466932188079397,192.10387893274276L34.040674248669234,183.80246626243263L36.9802019760117,175.49274653899644L40.29371995704139,167.17716023178292L43.9900492409775,158.85998840063056L48.0783274913137,150.5476799521L52.56755797104563,142.2490837860091L57.46597125043945,133.9755332548512L62.7801735689265,125.74073396689052L68.51407815036589,117.56041713310768L74.66765529600411,109.45174127561583L81.23559953407135,101.4324572248353L88.20610427651502,93.51989713599127L95.56006419970385,85.72991011102155L103.27120197064119,78.07594743562365L111.30784926771753,70.56860210604893L119.63741389586176,63.216033056732726L128.23494816196535,56.02585729552885L137.09771301599704,49.009276153043345L146.26822377636057,42.18841835842437L155.8689841617619,35.60813612528722L166.15298515524069,29.353784484812792L171.68298050143125,26.39269267206913L177.57508500552905,23.576852512263713L183.93385141542632,20.94138853193479L190.89061934547652,18.530701789275895L198.60865083205385,16.400333763613645L207.28904081366875,14.619106515594979L217.17749576160168,13.27156944207988L228.57208253316594,12.460785375990469Z"
       style="fill:#ffffff;fill-opacity:1;stroke:#000000;stroke-opacity:1;stroke-width:4;stroke-miterlimit:4;stroke-dasharray:none" />
  </g>
  <g
     inkscape:label="Layer 1"
     inkscape:groupmode="layer"
     id="layer1">
    <path
       class="land"
       d="M883.3128481017955,370.5700051170886L884.770908522042,373.01362073001326L874.4977549818561,380.20217068322427L863.6951665879817,387.1836545630789L861.7637235447611,382.73790398742585L872.7391384811202,376.7807215321228ZM895.3502036088031,356.6127845903017L898.1436060463336,365.4124657227378L887.7755382037708,366.4452640440752ZM605.9022922175336,289.8830951069664L603.8747903348401,300.2429693498715L600.0822858396391,311.8624759467586L595.9919674451761,323.4745653950662L588.4821666597901,323.60453135408875L587.164445873561,314.90075387945785L589.9654185011946,301.1501266451283L602.959927752825,288.45965215427043ZM841.1475274120521,290.4007698012583L845.1773339505503,294.025404610468L845.3792780717702,305.68759459527644L856.316588071933,324.38435936535507L855.0358115135953,332.8352715934074L849.4792289752268,343.2379560536017L843.2364748324786,350.3424441233121L836.6373297728621,357.3905051556038L824.0049139703094,365.02501360171584L817.9057395011487,363.64129465968415L811.9604378872502,362.0519671925991L807.5995605546302,354.20677857294714L803.4096390342414,346.09748042504623L797.4536532990219,342.8479522124443L784.2602907312098,344.9277923468709L776.5435772078945,349.86504576101584L761.8335617728452,353.37020252501594L759.3409835561491,344.9277923468709L759.7010769508472,333.3709095311233L759.7471396204614,321.7851546860861L764.3423982920187,314.25157416087734L781.2062234680411,307.8925241651755L786.1930085628671,300.7613313234314L795.9327833335046,291.8245410628092L805.3623278964996,292.3423372417198L809.1645955663389,286.7777013210315L816.6550865685908,284.57869917668523L825.0372091151928,286.26024171683633L820.2865411470742,293.2485602959521L828.3838591607862,301.0205259303469ZM820.4492999598215,253.4448816474345L821.0534677579819,258.09259210276724L830.9576926879253,254.99407646687675L846.6701106286848,261.32047626764745L846.3989160168694,272.4279154478469L840.5540786815338,277.33837831718785L831.0663864579154,271.5235529053526L829.5973931764232,265.8401667528302L814.731716224085,258.2217016198931ZM748.1853792100487,267.13168247325734L740.2022190243013,262.3534731527886L730.3115680434529,244.6662600239969L742.5154185002823,252.15390652282818L749.1934986389819,258.99636809904075ZM778.9930137218429,244.6662600239969L774.1772173433451,260.6748729004542L759.7328070667902,258.60903280926846L756.7980686170221,251.37932735773825L758.1543626491641,244.14985085506734L766.7397026838277,240.92216397126407L774.5472966221017,232.0118661216187L782.1386481978486,234.07834328290483ZM355.6955648328718,101.30097116019869L359.7147870272125,112.73641352129232L353.1215537496389,111.28797379806295L346.3879786844711,110.08083675607742ZM473.70592710659366,79.2419561924377L477.60761597345424,87.00950270367161L481.1079502598955,94.98367272798177L481.1229425608549,101.05189621138771L471.909584823777,102.54790683632899L468.34887296373864,97.57613061242142L472.1319037586595,90.20381614509614L466.9486510367068,84.26657372672122ZM306.22380858182805,51.03708331730283L314.9752849605314,51.321551391942705L323.42604124804143,51.911490890158774L320.39048299243734,56.99378608719874L312.0968849951206,60.01097440522901L304.2023024389743,63.229869206274714L296.6767749309481,66.63026297196319L289.49105132504866,70.1946895540868L283.6089388184884,75.22017925006091L285.5434905516057,79.02807728518673L287.2480039115372,82.94470339923532L295.42230128315555,85.6259622139977L303.051013256107,88.7425788520519L309.93062104169746,86.77074729796959L316.89901465262403,84.98932434310788L315.30921280818575,78.7666466304567L320.64196197730405,69.3831673554005L329.46026764282806,69.03594355173371L338.0883522604007,71.61672765469152L346.07375126594275,74.63228842589564L349.2524719900414,81.49865788031187L351.9164809959771,88.62101659037612L354.98756891116886,92.78963071130255L357.84877993582234,97.08135753520205L346.7641753890343,102.54790683632899L334.6355440568974,105.42544321990917L333.66182119169736,114.0041261292327L326.027489376894,117.58787840287678L318.57439966290656,121.39297759845766L315.80123099044647,127.80501831580389L307.2104876969065,130.2500729102099L303.1689561408331,137.7275062166554L299.3650634863498,145.2505377266499L290.7542003177244,152.22971847576156L282.48962286387496,159.41028784142935L274.30096340143086,159.98406561533005L266.0868046316024,160.8067759584677L257.8567534617352,161.8742927748545L249.62065146092564,163.18135044194406L241.67360634097182,169.42332737867036L237.39291361524485,183.9785100579988L244.092579378257,196.69415113517024L253.54692047888136,193.32273575179116L255.67615733428025,188.26270953727706L263.9551885990051,186.5752754416319L258.72594627129695,201.35970905182262L271.1865515264721,205.89289497995787L268.3768218006389,216.6329920859401L274.1579478394248,224.2601884212466L278.96672908142045,221.80454695809752L285.5663630900733,224.64787570382285L289.4043588756896,218.83121529212596L306.32010746447406,216.37434563511286L324.45500260973256,221.0289731770271L335.2276264589973,232.39934826923468L345.93693250176716,234.07834328290483L349.8395974021572,237.69417685412728L356.52258081495256,250.7338467905388L374.8223364479113,258.60903280926846L378.5649465824066,258.47992196631486L390.58838044990244,266.09846298437253L391.2661735188637,276.43367509550774L381.9748682818275,290.53019346193764L380.80723396931637,307.6330862335546L376.02055509834304,317.62787843347655L365.354825492854,320.87559017282484L360.8774731470033,326.20416092841765L360.6512618166326,334.3957863727092L354.8241034309032,343.7967232751586L348.7661502718412,352.9808887131386L342.07350385102507,361.56591244971696L334.99654154544294,369.7974543156502L331.3549946674033,376.221861173162L331.7647190592957,388.95524385385363L327.3025080875766,398.07968198178884L324.84730409968324,402.48907051363256L322.20937412084453,406.78276905520886L315.6541147311558,403.21146049654953L311.9491790330841,395.2491085611708L308.48167573661743,387.1836545630789L309.98685128229897,384.6460444426751L308.1734221229967,372.1207145151435L306.59947673276747,359.4633527701813L307.80530522481047,345.5776411197005L306.68955257944003,329.26435193816815L306.0299727161223,312.95337603732787L304.3232204146575,304.0019207885944L288.92033265751763,292.98962900397174L283.352579598213,282.07317878978654L278.1217792403223,271.13598608328556L274.25109020367637,268.03579690196295L276.34224507957106,260.029283653385L274.60413077812666,253.0575875064056L284.32451744705327,238.72717189442875L283.89655703559623,230.33267574079315L280.02551720679276,223.6140159252477L270.1050961612643,225.81086656639363L263.222493771112,220.25334518474813L258.598859006902,211.3293070922273L250.4586780622001,209.12928543861563L242.65036852865808,202.39610276645246L237.8326647546357,203.9504281787224L228.04087912118476,198.44068321084723L218.1454695561439,193.19303485202894L217.484527225661,182.93956972922172L211.88083319764274,172.1537709885652L199.73333458662506,170.07346949526163L197.88260601639547,152.65103754557038L191.99413780285641,148.49483317082814L188.9905561770516,135.28100384107347L194.0857544347282,121.77400868101734L199.8437919290081,108.44162412379194L198.0877155219224,100.80292652691224L198.077310256479,90.50553403674834L197.85423878533203,85.52467868307929L197.4200098928062,80.67128764885479L191.69257424292636,79.01817424556677L185.61475805808192,77.61109698827212L179.18745646476356,76.45995880460893L172.4177879796011,75.57335431750727L159.32376487032604,78.58133482781255L146.37894438913713,82.10567238947525L144.79088426703788,79.3156395391099L142.98403070827584,76.62818504929498L140.93313021948848,74.05046752301865L138.61187593735735,71.59019049459718L146.30692848443414,67.18990926477994L146.39451009375898,63.899241384516614L146.22538860186177,60.6946162365459L158.4197795594397,54.70084503424738L171.58076721289524,48.972123965459616L184.17118593098445,49.001175239555295L195.96569299706618,49.62462931559813L206.80088329206444,50.82465236358502L216.57704964788257,52.56917963000657L226.86495298296796,50.56597026864108L237.3875614153707,48.86390975051083L245.46994502198336,49.90582294585667L252.96815087911332,51.25062972073255L259.86726411946137,52.87971963047801L266.1718907614926,54.77290085052542L277.33239665259117,54.799115704491896L288.0503172250534,55.32653228625779L296.9726067866289,53.05717098427891ZM268.40712849861563,42.14809799765351L276.2460912551529,42.61335784339215L283.7118517785587,43.30546269776309L276.08268458800256,51.80203232897665L268.31754935871504,52.52434021599478L260.57109708499223,53.44857531734817L258.2571844034336,49.61299172203951L255.20786322836707,45.960511942348234ZM319.53138593612186,42.14809799765351L328.338301902481,40.68530060371222L333.4711984348984,42.61255903487441L338.0661023008058,44.685756251883845L342.17709113985245,46.88968060765711L345.8563039964563,49.210862072348704L349.1523834520689,51.637541201478825L352.1097376174835,54.15956029882514L354.7683307293841,56.768209484093035L357.16378969841753,59.456051480046085L350.58236633163415,64.85974543292292L344.50190923188984,70.42689491633635L340.0838442195145,67.97202103653973L335.35295480561615,65.67431069274124L330.2891369370706,63.54562722041413L324.8750125775566,61.59846184345773L331.1949761200384,59.00644995847617L337.79181877687364,56.54825886674311L335.1397026613422,53.409116724068014L332.07886330980836,50.38318537562796L321.52382513764167,48.87783924725676L310.1974840949797,47.89213600249431L314.7134178228988,44.987380609775755ZM594.3357970300461,128.4480411865008L596.3857807027838,139.28974144714934L607.6073141247824,141.10250405699594L607.6119116052932,129.34877425579444L598.4294144952621,122.92864261427071L595.8557785076629,111.59718761766177L591.3528928473319,115.08239965525672L587.0153278562327,118.71100070221777ZM132.81536396463463,52.34966441117243L132.81557507173386,52.34977204905209L120.46747739747826,62.50487347019046L120.46592728900521,62.50619805505784L132.81536396463463,52.34966441117243ZM839.5340727109948,62.50619805505784L844.1301560567183,67.65049470764313L841.2014805611926,69.24489952416539L838.5107460167083,70.94345710645865L836.0450582667067,72.74093808171222L833.7908969056004,74.63228842589564L826.8900645542444,75.15176265134153L820.3195444313325,75.92685877658701L829.5636373822942,89.59441097509645L827.8239799023372,94.83817124226232L826.4329084992253,100.30530499865924L820.3871826903951,94.17897438108892L814.0453655731736,88.13508966755657L812.4605583616424,80.97304678083538L811.2457089903432,74.04531881336939L802.1698146321396,71.70672736299201L799.4711937517427,75.20187449269349L797.2029519438852,78.88542057742904L787.2789217342405,78.31638530029934L777.6599307017547,78.17331294283832L775.8607526196346,80.98339160509039L774.2563081305124,83.88859737377692L771.5450703891447,89.9599592285845L779.9833915238678,92.10663778437552L788.3662243421325,94.49132086230978L794.3044893883749,107.6863325058944L792.4614933965678,114.80882062694926L790.8364764039459,122.16053838599628L785.0818592534845,122.54452345652741L781.8738954697087,127.60365462937698L778.8299067206722,132.8281445188362L767.5694978005071,134.00041987987254L756.6805541882081,135.79781592215664L763.5063686338826,140.4549353808233L764.6324970027533,147.06700179004554L770.8475530303789,154.57489499353878L776.7206876758913,162.14100976420409L772.6035175165406,177.74301013546153L766.951449796396,182.93956972922172L757.6410533372618,186.5752754416319L749.2979637829843,186.05599066489575L743.5928104047102,193.97120574396456L753.334482661611,205.1159662708206L755.2862859870484,215.72769925750669L746.0580447733848,224.77710213429813L734.0571921354504,210.55289394420862L730.3663003071995,220.77043660292534L734.3774251610538,228.13654473996743L742.0026615901709,235.7571961296205L737.2829045914998,241.95505133258902L729.0716785764175,225.42321460081925L728.1174455540137,211.45870248367675L723.3056141047412,200.19359505859094L715.6408571314931,196.43486672863293L703.9345107605619,185.7963353309197L695.2821660639311,190.72828214587378L681.3734040075855,203.30283099853045L681.5921372394498,219.6069461450379L673.6920979570857,223.8724890161128L669.2259664098834,213.45158106036968L664.4617145775426,203.04377679942286L660.4062055886423,187.22433249812158L655.3106325922382,188.65206434872917L649.401737548513,181.86036941518918L643.2888025988516,175.14369075713802L631.3937523342593,176.18349298004716L621.1645190828228,174.23378813353955L613.5950011766059,171.02313351899264L605.9374065212256,167.9929509067509L607.8697908553341,179.30228671646142L616.5089850774277,175.14369075713802L628.2581384819598,184.36807871676768L624.164902416893,193.97120574396456L618.3949374593245,199.41608428645682L602.3537438504989,208.8704214969987L589.5516334904648,212.8819255696263L586.8444597157358,200.71189041319718L577.2563865472157,187.35413734524093L575.1552703959242,180.34166214253906L565.7467341086144,167.34275601540634L561.5454754515183,168.38306132324297L566.5742752154904,176.8031128510283L571.3932283340323,185.27699896254265L573.614775151402,195.2679730399211L578.4246885471549,203.17330499693125L589.1207504170275,213.65813312836116L591.4426340357109,219.34837555477588L608.9282781874784,214.69297368043826L605.3171027662208,230.0743235758215L598.048917007983,241.5677219531188L582.1449719928224,257.57615824881174L578.2715010605338,267.38999625683505L582.0938514085275,281.6043850485215L582.5440900639235,293.1190936038798L578.763305620977,299.206353922117L566.7503498864219,308.1519712588678L567.5401590549268,321.00552270069653L561.1484191563867,324.6443140339269L559.1584041384932,333.3554380687605L553.5995892623084,340.03838136642224L547.8410652868105,346.6172820477364L541.8209556476908,349.9949157580387L534.3568990144248,351.40813408337806L526.8526025527202,352.59153525812536L521.8943716990609,341.213481612193L517.1727863309364,329.71446078688405L515.3369059179802,315.0305961972582L509.22878394131743,298.9472225728418L514.2949915552733,285.35475792492076L510.27787492023435,264.8070147630152L502.3534274252157,253.31578342719743L504.91862777301327,240.92216397126407L501.62980346082617,236.01546951425047L494.8515735940005,237.43592172113947L490.86506288911147,231.6243754291841L474.9724351374073,236.14460509405035L460.93886514509427,237.3067931612334L447.2041084695082,227.1029582994304L438.03774030732495,214.30492209955096L439.4660795870393,190.85802653166735L437.7028625735051,188.26270953727706L444.55885086322274,172.67380438569734L456.8021340235763,161.88092860823974L459.27017990770116,152.00141752073648L465.82924815709833,144.6020317781884L474.8250664721006,146.41815972180711L483.39443288050205,142.13894963894558L492.9602091251058,140.83407679197222L502.599056993339,139.9370016970286L506.7118968931832,151.87150200489685L516.580062583044,156.1731399736729L526.2337229605367,160.84062618575584L530.3156899496545,153.6905679332586L540.2417747312004,156.16884713055265L550.0551360794573,159.0202153709647L562.9228471121489,157.9800728314366L566.1452290118364,147.84575665152954L557.3408278674896,143.56469636053657L545.5779223914801,142.00937203162695L541.3607748669406,133.73143285768984L548.1857389582419,128.57668191879833L554.856507590322,127.24469520364681L561.6142752675815,126.13461503343449L569.3390889165954,129.34877425579444L575.9018538174046,124.46642488657724L565.8677550281109,118.5834684129033L564.5918897165665,111.7236863783215L555.0990132361973,114.53394411173926L545.9226991929943,117.81863317226006L541.6044509143626,131.66749229598742L533.5180291464665,133.08617806502102L525.3204340371893,127.16230243740411L516.7391278610844,126.98974485518383L508.177953077496,127.16230243740411L500.41158797973526,119.34891418037435L493.71790058584526,121.1580760973228L487.1322130063362,123.18479567334262L480.79341863519596,132.41878119666688L474.8553732253815,141.8798005870268L466.8809441377294,141.48082302348155L458.88880023117645,141.3615774059796L457.5312378513304,135.79781592215664L461.64727161187517,121.13724722556967L468.661792484089,121.53126990052115L475.64297588630376,122.16053838599628L473.23976793757396,110.20708258897636L479.7135067964175,104.81331995689393L486.54483759592466,99.68061035180341L493.7683002790913,94.84027210562985L501.4194809800136,90.32579187092287L510.7547792596275,92.64924368886113L518.1347074208011,90.4864234478213L525.7370273128232,88.62101659037612L524.8456126031958,84.26657372672122L531.4134094476791,80.48478110444572L538.4130074848725,76.98933982489785L528.7358094057586,75.94615481133093L518.9848395092711,75.33786762071065L516.3803001558673,80.64964165432039L514.0117934998111,86.07571461224941L506.88072892340625,85.59254069643671L501.65226801333836,76.98933982489785L491.9141788577062,79.36087253468594L490.2886106899607,70.31077327840123L495.5459776236538,66.94720006912456L501.1802511880015,63.75534848219715L504.51888522341926,60.22513922413512L508.17051071321555,56.79423220387565L512.1880028373439,53.47302792444552L516.6342414602844,50.274363001876395L524.6675159052129,48.40198259492169L533.2292717910144,46.81701447482382L542.6854389813731,49.617564652636304L551.4152720776406,52.71951569942806L559.4867520538418,56.08478710797965L566.972045571627,59.680879480479604L574.8413724307246,55.917594369858165L583.7133278675963,52.56917963000657L592.5969059683875,51.57522616339756L601.850847413125,50.92798608118508L605.3685462680062,46.535831872437655L607.4564892171761,44.41754669736261L609.8051362852196,42.3580137924134L618.8637470084415,41.46708319579881L628.3952072690956,40.893549441467854L636.7765082093601,38.34078921423722L646.5332257742131,36.18079250771629L657.7513481247129,34.472775359670266L670.4054841317356,33.27334040723284L670.4054841317356,33.27334040723284L680.9758263216225,37.07353140285974L690.3211811103043,41.10204237171382L702.489297855313,40.789226170729506L715.1733045197432,40.988407474751284L728.1291297747746,41.693502286569895L741.1205286152178,42.88380810292435L750.2129170851815,43.63932851881202L759.2836504356251,44.62672359987309L768.2730020254946,45.83368297104488L777.1339292849368,47.246470750785846L788.9912265682216,51.146226032754925L795.3259450474791,50.58406901086968L801.983114645736,50.21312561024618L816.1436707038533,50.0568568103061L827.1846360353654,52.34966441117243L839.5340727109948,62.50619805505784ZM367.6336127001851,20.66348605259435L377.1813541372801,22.027010538823333L369.74913925414995,23.364554309222598L363.19528817650416,24.808344262210824L357.36141953257965,26.34488473834807L352.1193646947162,27.96251668029501L347.36629617889264,29.651199272081527L343.0197844733138,31.402309155982664L335.2939853671364,35.06335034653131L334.46990099192726,31.78517883256157L333.0218871824036,28.64712052942403L331.98130795603123,27.141021317245276L330.6662094027781,25.68368890176933L329.0106532863071,24.281183804164158L326.9274596038613,22.940457864892778L346.1635854020051,21.508402104115476ZM435.8704318888831,19.967400879917648L443.0310520611162,20.869231468146978L449.24292115435145,21.8714757225257L454.6506734217576,22.963354158803924L459.38288398464294,24.1351846593129L451.8295648379602,26.623688779208635L445.67277467229684,29.309679977647164L444.422186845462,39.44105376273026L440.59800652737835,44.40333720828903L437.3084329572984,49.51390434947271L431.659011891582,51.477322865772265L426.3048608076844,53.558697142067416L419.53971319795846,55.24185903980168L413.04119753036593,57.09433455124898L406.8060729374353,59.10397328946365L400.8268703653091,61.25921809821824L395.0699580365731,68.19719292782307L389.86551848102215,75.33786762071065L380.319117283207,73.22511620717208L379.1226356305974,68.984421061147L377.7318690797591,64.82425501880923L376.1043450082138,60.75063008869441L374.18768164833006,56.7709387342492L378.32692461970566,45.960511942348234L376.53855201499846,41.176863519422994L375.3691716012511,38.85063718173123L373.9681601074648,36.57513500570187L365.59164719326117,35.852359056410336L356.8185721618345,35.364300894662875L354.6571306450152,32.65994345211959L351.8745118463603,30.069355173143435L356.71383630355683,28.219053139529734L362.09127850587004,26.447861014592547L368.1324963904087,24.767921055148918L374.9988531137318,23.193535545729645L387.9706078695922,21.905269870583197L402.6161470000687,20.91408082187948L418.76092116562927,20.258066632677014Z"
       id="path8"
       style="fill:#cccccc;stroke:none;stroke-opacity:1;fill-opacity:1" />
  </g>
  <g
     inkscape:groupmode="layer"
     id="layer3"
     inkscape:label="graticule"
     style="display:inline">
    <path
       class="graticule"
       d="m 228.57207,487.53921 -11.39458,-0.81078 -9.88846,-1.34754 -8.68038,-1.78123 -7.71804,-2.13036 -6.95676,-2.41069 -6.35877,-2.63546 -5.8921,-2.81584 -5.53,-2.9611 -10.284,-6.25435 -9.60076,-6.58028 -9.17051,-6.82086 -8.86276,-7.01658 -8.59754,-7.19018 -8.32956,-7.35256 -8.03665,-7.50735 -7.711138,-7.65396 -7.35396,-7.78999 -6.970505,-7.91256 -6.567944,-8.01928 -6.153577,-8.10868 -5.733904,-8.18032 -5.314203,-8.2348 -4.898413,-8.27355 -4.48923,-8.29859 -4.088278,-8.31231 -3.696329,-8.31717 -3.313518,-8.31559 -2.939528,-8.30972 -2.573742,-8.30141 -2.215358,-8.29214 -1.863465,-8.28297 -1.517097,-8.27471 -1.17526,-8.26778 L 23.8588,266.51604 23.357637,258.25712 23.190751,250 l 0.166886,-8.25713 0.501163,-8.25891 0.836952,-8.26248 1.17526,-8.26779 1.517097,-8.2747 1.863466,-8.28298 2.215358,-8.29213 2.573742,-8.30142 2.939527,-8.30971 3.313518,-8.31559 3.69633,-8.31717 4.088278,-8.31231 4.48923,-8.2986 4.898413,-8.27355 5.314203,-8.2348 5.733904,-8.18031 6.153577,-8.10868 6.567944,-8.01928 6.970505,-7.912562 7.35396,-7.789987 7.711136,-7.653963 8.03665,-7.507345 8.32956,-7.352569 8.59754,-7.190175 8.86276,-7.016581 9.17051,-6.820858 9.60076,-6.580282 10.284,-6.254352 5.53,-2.961092 5.8921,-2.81584 6.35877,-2.635464 6.95676,-2.410687 7.71804,-2.130368 8.68038,-1.781227 9.88846,-1.347538 11.39458,-0.810784 m 10.47617,475.078424 -10.91981,-0.81078 -9.47644,-1.34754 -8.31871,-1.78123 -7.39644,-2.13036 -6.6669,-2.41069 -6.09382,-2.63546 -5.6466,-2.81584 -5.29958,-2.9611 -9.8555,-6.25435 -9.20073,-6.58028 -8.7884,-6.82086 -8.49349,-7.01658 -8.2393,-7.19018 -7.9825,-7.35256 -7.70179,-7.50735 -7.38984,-7.65396 -7.04754,-7.78999 -6.680069,-7.91256 -6.29428,-8.01928 -5.897178,-8.10868 -5.494992,-8.18032 -5.092777,-8.2348 -4.694313,-8.27355 -4.302179,-8.29859 -3.917933,-8.31231 -3.542315,-8.31717 -3.175455,-8.31559 -2.817047,-8.30972 -2.466503,-8.30141 -2.123051,-8.29214 -1.785821,-8.28297 -1.453885,-8.27471 -1.126291,-8.26778 -0.802078,-8.26248 -0.480281,-8.25892 L 42.22447,250 l 0.159933,-8.25713 0.48028,-8.25891 0.802079,-8.26248 1.126291,-8.26779 1.453885,-8.2747 1.785821,-8.28298 2.123051,-8.29213 2.466503,-8.30142 2.817048,-8.30971 3.175454,-8.31559 3.542316,-8.31717 3.917933,-8.31231 4.302179,-8.2986 4.694313,-8.27355 5.092777,-8.2348 5.494992,-8.18031 5.897178,-8.10868 6.29428,-8.01928 6.680067,-7.912562 7.04754,-7.789987 7.38984,-7.653963 7.70179,-7.507345 7.9825,-7.352569 8.2393,-7.190175 8.49349,-7.016581 8.7884,-6.820858 9.20073,-6.580282 9.8555,-6.254352 5.29958,-2.961092 5.6466,-2.81584 6.09382,-2.635464 6.6669,-2.410687 7.39645,-2.130368 8.3187,-1.781227 9.47644,-1.347538 10.91981,-0.810784 m 10.47616,475.078424 -10.44504,-0.81078 -9.06441,-1.34754 -7.95703,-1.78123 -7.07486,-2.13036 -6.37703,-2.41069 -5.82887,-2.63546 -5.4011,-2.81584 -5.06916,-2.9611 -9.427,-6.25435 -8.8007,-6.58028 -8.4063,-6.82086 -8.1242,-7.01658 -7.88107,-7.19018 -7.63544,-7.35256 -7.36692,-7.50735 -7.06855,-7.65396 -6.74113,-7.78999 -6.38963,-7.91256 -6.02061,-8.01928 -5.64078,-8.10868 -5.256079,-8.18032 -4.871352,-8.2348 -4.490212,-8.27355 -4.115128,-8.29859 -3.747588,-8.31231 -3.388302,-8.31717 -3.037392,-8.31559 -2.694567,-8.30972 -2.359263,-8.30141 -2.030745,-8.29214 -1.708176,-8.28297 -1.390672,-8.27471 -1.077322,-8.26778 -0.767206,-8.26248 -0.459399,-8.25892 L 61.258189,250 l 0.152979,-8.25713 0.459399,-8.25891 0.767205,-8.26248 1.077322,-8.26779 1.390673,-8.2747 1.708176,-8.28298 2.030745,-8.29213 2.359264,-8.30142 2.694567,-8.30971 3.037391,-8.31559 3.388302,-8.31717 3.747589,-8.31231 4.115127,-8.2986 4.490213,-8.27355 4.871352,-8.2348 5.256077,-8.18031 5.64078,-8.10868 6.02062,-8.01928 6.38963,-7.912562 6.74112,-7.789987 7.06855,-7.653963 7.36692,-7.507345 7.63544,-7.352569 7.88107,-7.190175 8.1242,-7.016581 8.4063,-6.820858 8.8007,-6.580282 9.427,-6.254352 5.06916,-2.961092 5.4011,-2.81584 5.82887,-2.635464 6.37703,-2.410687 7.07487,-2.130368 7.95702,-1.781227 9.06441,-1.347538 10.44504,-0.810784 m 10.47616,475.078424 -9.97026,-0.81078 -8.6524,-1.34754 -7.59534,-1.78123 -6.75327,-2.13036 -6.08717,-2.41069 -5.56392,-2.63546 -5.1556,-2.81584 -4.83874,-2.9611 -8.9985,-6.25435 -8.40067,-6.58028 -8.02419,-6.82086 -7.75492,-7.01658 -7.52285,-7.19018 -7.28836,-7.35256 -7.03207,-7.50735 -6.74725,-7.65396 -6.43471,-7.78999 -6.09919,-7.91256 -5.74695,-8.01928 -5.38438,-8.10868 -5.01717,-8.18032 -4.64993,-8.2348 -4.28611,-8.27355 -3.92807,-8.29859 -3.577248,-8.31231 -3.234288,-8.31717 -2.899328,-8.31559 -2.572087,-8.30972 -2.252024,-8.30141 -1.938438,-8.29214 -1.630532,-8.28297 -1.32746,-8.27471 -1.028353,-8.26778 -0.732332,-8.26248 -0.438517,-8.25892 L 80.291907,250 l 0.146026,-8.25713 0.438517,-8.25891 0.732333,-8.26248 1.028352,-8.26779 1.327461,-8.2747 1.630532,-8.28298 1.938438,-8.29213 2.252024,-8.30142 2.572087,-8.30971 2.899328,-8.31559 3.234288,-8.31717 3.577247,-8.31231 3.92807,-8.2986 4.28612,-8.27355 4.64992,-8.2348 5.01717,-8.18031 5.38438,-8.10868 5.74695,-8.01928 6.09919,-7.912562 6.43472,-7.789987 6.74724,-7.653963 7.03207,-7.507345 7.28837,-7.352569 7.52284,-7.190175 7.75492,-7.016581 8.02419,-6.820858 8.40067,-6.580282 8.9985,-6.254352 4.83875,-2.961092 5.15559,-2.81584 5.56392,-2.635464 6.08717,-2.410687 6.75327,-2.130368 7.59535,-1.781227 8.65239,-1.347538 9.97026,-0.810784 m 10.47617,475.078424 -9.49549,-0.81078 -8.24038,-1.34754 -7.23366,-1.78123 -6.43169,-2.13036 -5.7973,-2.41069 -5.29898,-2.63546 -4.91008,-2.81584 -4.60833,-2.9611 -8.57,-6.25435 -8.00064,-6.58028 -7.64209,-6.82086 -7.38564,-7.01658 -7.16461,-7.19018 -6.9413,-7.35256 -6.69721,-7.50735 -6.42595,-7.65396 -6.1283,-7.78999 -5.80875,-7.91256 -5.47329,-8.01928 -5.12798,-8.10868 -4.77825,-8.18032 -4.4285,-8.2348 -4.08201,-8.27355 -3.74103,-8.29859 -3.4069,-8.31231 -3.08027,-8.31717 -2.76127,-8.31559 -2.4496,-8.30972 -2.14479,-8.30141 -1.84613,-8.29214 -1.55289,-8.28297 -1.26424,-8.27471 -0.97939,-8.26778 -0.697457,-8.26248 -0.417635,-8.25892 L 99.325626,250 l 0.139072,-8.25713 0.417635,-8.25891 0.697457,-8.26248 0.97939,-8.26779 1.26424,-8.2747 1.55289,-8.28298 1.84613,-8.29213 2.14479,-8.30142 2.44961,-8.30971 2.76126,-8.31559 3.08027,-8.31717 3.4069,-8.31231 3.74103,-8.2986 4.08201,-8.27355 4.4285,-8.2348 4.77826,-8.18031 5.12798,-8.10868 5.47328,-8.01928 5.80876,-7.912562 6.1283,-7.789987 6.42594,-7.653963 6.69721,-7.507345 6.9413,-7.352569 7.16462,-7.190175 7.38563,-7.016581 7.64209,-6.820858 8.00064,-6.580282 8.57,-6.254352 4.60833,-2.961092 4.91008,-2.81584 5.29898,-2.635464 5.7973,-2.410687 6.43169,-2.130368 7.23366,-1.781227 8.24038,-1.347538 9.49549,-0.810784 m 10.47616,475.078424 -9.02071,-0.81078 -7.82836,-1.34754 -6.87198,-1.78123 -6.1101,-2.13036 -5.50744,-2.41069 -5.03403,-2.63546 -4.66458,-2.81584 -4.37791,-2.9611 -8.1415,-6.25435 -7.60061,-6.58028 -7.25998,-6.82086 -7.01636,-7.01658 -6.80638,-7.19018 -6.59424,-7.35256 -6.36234,-7.50735 -6.10465,-7.65396 -5.82189,-7.78999 -5.51832,-7.91256 -5.19962,-8.01928 -4.87158,-8.10868 -4.53934,-8.18032 -4.20708,-8.2348 -3.87791,-8.27355 -3.55397,-8.29859 -3.23656,-8.31231 -2.92626,-8.31717 -2.6232,-8.31559 -2.32712,-8.30972 -2.03755,-8.30141 -1.75382,-8.29214 -1.47525,-8.28297 -1.20103,-8.27471 -0.93042,-8.26778 -0.66258,-8.26248 -0.39676,-8.25892 -0.13212,-8.25712 0.13212,-8.25713 0.39676,-8.25891 0.66258,-8.26248 0.93042,-8.26779 1.20103,-8.2747 1.47525,-8.28298 1.75382,-8.29213 2.03755,-8.30142 2.32712,-8.30971 2.62321,-8.31559 2.92626,-8.31717 3.23655,-8.31231 3.55397,-8.2986 3.87791,-8.27355 4.20708,-8.2348 4.53934,-8.18031 4.87158,-8.10868 5.19963,-8.01928 5.51831,-7.912562 5.82189,-7.789987 6.10465,-7.653963 6.36234,-7.507345 6.59424,-7.352569 6.80638,-7.190175 7.01636,-7.016581 7.25999,-6.820858 7.6006,-6.580282 8.1415,-6.254352 4.37791,-2.961092 4.66458,-2.81584 5.03403,-2.635464 5.50744,-2.410687 6.1101,-2.130368 6.87198,-1.781227 7.82836,-1.347538 9.02071,-0.810784 m 10.47617,475.078424 -8.54594,-0.81078 -7.41634,-1.34754 -6.5103,-1.78123 -5.78852,-2.13036 -5.21757,-2.41069 -4.76908,-2.63546 -4.41908,-2.81584 -4.14749,-2.9611 -7.713,-6.25435 -7.20057,-6.58028 -6.87789,-6.82086 -6.64707,-7.01658 -6.44815,-7.19018 -6.24718,-7.35256 -6.02748,-7.50735 -5.78335,-7.65396 -5.51547,-7.78999 -5.22788,-7.91256 -4.92596,-8.01928 -4.61518,-8.10868 -4.30043,-8.18032 -3.98565,-8.2348 -3.67381,-8.27355 -3.36693,-8.29859 -3.0662,-8.31231 -2.77225,-8.31717 -2.48514,-8.31559 -2.20465,-8.30972 -1.9303,-8.30141 -1.66152,-8.29214 -1.3976,-8.28297 -1.13782,-8.27471 -0.88145,-8.26778 -0.62771,-8.26248 -0.37587,-8.25892 -0.12517,-8.25712 0.12517,-8.25713 0.37587,-8.25891 0.62771,-8.26248 0.88145,-8.26779 1.13782,-8.2747 1.3976,-8.28298 1.66152,-8.29213 1.93031,-8.30142 2.20464,-8.30971 2.48514,-8.31559 2.77225,-8.31717 3.06621,-8.31231 3.36692,-8.2986 3.67381,-8.27355 3.98565,-8.2348 4.30043,-8.18031 4.61518,-8.10868 4.92596,-8.01928 5.22788,-7.912562 5.51547,-7.789987 5.78335,-7.653963 6.02749,-7.507345 6.24717,-7.352569 6.44815,-7.190175 6.64707,-7.016581 6.87789,-6.820858 7.20057,-6.580282 7.713,-6.254352 4.14749,-2.961092 4.41908,-2.81584 4.76908,-2.635464 5.21757,-2.410687 5.78852,-2.130368 6.5103,-1.781227 7.41634,-1.347538 8.54594,-0.810784 m 10.47616,475.078424 -8.07117,-0.81078 -7.00432,-1.34754 -6.14861,-1.78123 -5.46693,-2.13036 -4.92772,-2.41069 -4.50412,-2.63546 -4.17358,-2.81584 -3.91707,-2.9611 -7.28451,-6.25435 -6.80053,-6.58028 -6.49578,-6.82086 -6.27779,-7.01658 -6.08992,-7.19018 -5.90011,-7.35256 -5.69263,-7.50735 -5.46205,-7.65396 -5.20906,-7.78999 -4.93744,-7.91256 -4.65229,-8.01928 -4.35879,-8.10868 -4.06151,-8.18032 -3.76423,-8.2348 -3.46971,-8.27355 -3.17987,-8.29859 -2.89586,-8.31231 -2.61824,-8.31717 -2.34707,-8.31559 -2.08217,-8.30972 -1.82306,-8.30141 -1.56922,-8.29214 -1.31995,-8.28297 -1.07461,-8.27471 -0.83248,-8.26778 -0.59284,-8.26248 -0.35499,-8.25892 -0.11821,-8.25712 0.11821,-8.25713 0.35499,-8.25891 0.59284,-8.26248 0.83248,-8.26779 1.07461,-8.2747 1.31996,-8.28298 1.56921,-8.29213 1.82306,-8.30142 2.08217,-8.30971 2.34708,-8.31559 2.61823,-8.31717 2.89586,-8.31231 3.17987,-8.2986 3.46971,-8.27355 3.76423,-8.2348 4.06152,-8.18031 4.35878,-8.10868 4.65229,-8.01928 4.93744,-7.912562 5.20906,-7.789987 5.46205,-7.653963 5.69263,-7.507345 5.90011,-7.352569 6.08992,-7.190175 6.27779,-7.016581 6.49578,-6.820858 6.80054,-6.580282 7.2845,-6.254352 3.91708,-2.961092 4.17357,-2.81584 4.50413,-2.635464 4.92771,-2.410687 5.46693,-2.130368 6.14861,-1.781227 7.00432,-1.347538 8.07117,-0.810784 m 10.47616,475.078424 -7.59639,-0.81078 -6.5923,-1.34754 -5.78693,-1.78123 -5.14535,-2.13036 -4.63785,-2.41069 -4.23917,-2.63546 -3.92807,-2.81584 -3.68667,-2.9611 -6.856,-6.25435 -6.4005,-6.58028 -6.11368,-6.82086 -5.90851,-7.01658 -5.73169,-7.19018 -5.55304,-7.35256 -5.35776,-7.50735 -5.14076,-7.65396 -4.90264,-7.78999 -4.64701,-7.91256 -4.37862,-8.01928 -4.10239,-8.10868 -3.8226,-8.18032 -3.5428,-8.2348 -3.26561,-8.27355 -2.99282,-8.29859 -2.72552,-8.31231 -2.46422,-8.31717 -2.20901,-8.31559 -1.95969,-8.30972 -1.71583,-8.30141 -1.4769,-8.29214 -1.24231,-8.28297 -1.0114,-8.27471 -0.78351,-8.26778 -0.55796,-8.26248 -0.33411,-8.25892 L 175.4605,250 l 0.11126,-8.25713 0.33411,-8.25891 0.55796,-8.26248 0.78351,-8.26779 1.0114,-8.2747 1.24231,-8.28298 1.47691,-8.29213 1.71582,-8.30142 1.95969,-8.30971 2.20901,-8.31559 2.46422,-8.31717 2.72552,-8.31231 2.99282,-8.2986 3.26561,-8.27355 3.5428,-8.2348 3.8226,-8.18031 4.10239,-8.10868 4.37863,-8.01928 4.647,-7.912562 4.90264,-7.789987 5.14076,-7.653963 5.35776,-7.507345 5.55305,-7.352569 5.73168,-7.190175 5.90851,-7.016581 6.11368,-6.820858 6.4005,-6.580282 6.856,-6.254352 3.68667,-2.961092 3.92807,-2.81584 4.23917,-2.635464 4.63785,-2.410687 5.14535,-2.130368 5.78693,-1.781227 6.5923,-1.347538 7.59639,-0.810784 m 10.47617,475.078424 -7.12162,-0.81078 -6.18028,-1.34754 -5.42525,-1.78123 -4.82377,-2.13036 -4.34798,-2.41069 -3.97422,-2.63546 -3.68257,-2.81584 -3.45625,-2.9611 -6.4275,-6.25435 -6.00047,-6.58028 -5.73157,-6.82086 -5.53923,-7.01658 -5.37346,-7.19018 -5.20598,-7.35256 -5.0229,-7.50735 -4.81946,-7.65396 -4.59623,-7.78999 -4.35656,-7.91256 -4.10497,-8.01928 -3.84598,-8.10868 -3.58369,-8.18032 -3.32138,-8.2348 -3.06151,-8.27355 -2.80577,-8.29859 -2.55517,-8.31231 -2.31021,-8.31717 -2.07094,-8.31559 -1.83721,-8.30972 -1.60859,-8.30141 -1.3846,-8.29214 -1.16466,-8.28297 -0.94819,-8.27471 -0.73454,-8.26778 -0.52309,-8.26248 -0.31323,-8.25892 -0.1043,-8.25712 0.1043,-8.25713 0.31323,-8.25891 0.52309,-8.26248 0.73454,-8.26779 0.94819,-8.2747 1.16466,-8.28298 1.3846,-8.29213 1.60859,-8.30142 1.83721,-8.30971 2.07095,-8.31559 2.3102,-8.31717 2.55517,-8.31231 2.80577,-8.2986 3.06151,-8.27355 3.32138,-8.2348 3.58369,-8.18031 3.84598,-8.10868 4.10497,-8.01928 4.35656,-7.912562 4.59623,-7.789987 4.81946,-7.653963 5.02291,-7.507345 5.20597,-7.352569 5.37346,-7.190175 5.53923,-7.016581 5.73157,-6.820858 6.00047,-6.580282 6.4275,-6.254352 3.45625,-2.961092 3.68257,-2.81584 3.97422,-2.635464 4.34798,-2.410687 4.82377,-2.130368 5.42525,-1.781227 6.18028,-1.347538 7.12162,-0.810784 m 10.47616,475.078424 -6.64684,-0.81078 -5.76827,-1.34754 -5.06356,-1.78123 -4.50218,-2.13036 -4.05812,-2.41069 -3.70928,-2.63546 -3.43706,-2.81584 -3.22583,-2.9611 -5.999,-6.25435 -5.60044,-6.58028 -5.34947,-6.82086 -5.16994,-7.01658 -5.01523,-7.19018 -4.85891,-7.35256 -4.68805,-7.50735 -4.49816,-7.65396 -4.28981,-7.78999 -4.06613,-7.91256 -3.8313,-8.01928 -3.58959,-8.10868 -3.34477,-8.18032 -3.09995,-8.2348 -2.85741,-8.27355 -2.61872,-8.29859 -2.38483,-8.31231 -2.15619,-8.31717 -1.93289,-8.31559 -1.71472,-8.30972 -1.50135,-8.30141 -1.29229,-8.29214 -1.972,-16.55768 -1.17379,-16.53026 L 213.52794,250 l 0.38969,-16.51604 1.17379,-16.53027 1.972,-16.55768 1.29229,-8.29213 1.50135,-8.30142 1.71472,-8.30971 1.93289,-8.31559 2.15619,-8.31717 2.38483,-8.31231 2.61872,-8.2986 2.85741,-8.27355 3.09995,-8.2348 3.34478,-8.18031 3.58958,-8.10868 3.8313,-8.01928 4.06613,-7.912562 4.28981,-7.789987 4.49816,-7.653963 4.68805,-7.507345 4.85891,-7.352569 5.01523,-7.190175 5.16994,-7.016581 5.34947,-6.820858 5.60044,-6.580282 5.999,-6.254352 3.22583,-2.961092 3.43706,-2.81584 3.70928,-2.635464 4.05812,-2.410687 4.50218,-2.130368 5.06356,-1.781227 5.76827,-1.347538 6.64684,-0.810784 m 10.47616,475.078424 -6.17206,-0.81078 -5.35625,-1.34754 -4.70188,-1.78123 -4.1806,-2.13036 -3.76825,-2.41069 -3.44433,-2.63546 -3.19155,-2.81584 -2.99542,-2.9611 -5.5705,-6.25435 -5.20041,-6.58028 -4.96736,-6.82086 -4.80066,-7.01658 -4.657,-7.19018 -4.51185,-7.35256 -4.35318,-7.50735 -4.17687,-7.65396 -3.98339,-7.78999 -3.77569,-7.91256 -3.55764,-8.01928 -3.33319,-8.10868 -3.10586,-8.18032 -2.87853,-8.2348 -2.65331,-8.27355 -2.43166,-8.29859 -2.21449,-8.31231 -2.00218,-8.31717 -3.38706,-16.62531 -2.5941,-16.59355 -1.83114,-16.55768 -1.08994,-16.53026 L 232.56166,250 l 0.36186,-16.51604 1.08994,-16.53027 1.83114,-16.55768 2.5941,-16.59355 3.38707,-16.6253 2.00217,-8.31717 2.21449,-8.31231 2.43166,-8.2986 2.65331,-8.27355 2.87853,-8.2348 3.10586,-8.18031 3.33319,-8.10868 3.55764,-8.01928 3.77569,-7.912562 3.98339,-7.789987 4.17687,-7.653963 4.35318,-7.507345 4.51185,-7.352569 4.657,-7.190175 4.80066,-7.016581 4.96736,-6.820858 5.20041,-6.580282 5.5705,-6.254352 2.99542,-2.961092 3.19155,-2.81584 3.44433,-2.635464 3.76825,-2.410687 4.1806,-2.130368 4.70188,-1.781227 5.35625,-1.347538 6.17206,-0.810784 m 10.47617,475.078424 -5.6973,-0.81078 -4.94422,-1.34754 -4.3402,-1.78123 -3.85901,-2.13036 -3.47839,-2.41069 -3.17938,-2.63546 -2.94605,-2.81584 -2.765,-2.9611 -5.142,-6.25435 -4.80038,-6.58028 -4.58526,-6.82086 -4.43138,-7.01658 -8.46355,-14.54274 -4.01832,-7.50735 -3.85557,-7.65396 -3.67698,-7.78999 -3.48525,-7.91256 -3.28397,-8.01928 -3.07679,-8.10868 -2.86695,-8.18032 -2.65711,-8.2348 -2.4492,-8.27355 -2.24462,-8.29859 -3.8923,-16.62948 -3.12652,-16.62531 -2.39455,-16.59355 L 252.93551,283.0463 251.9294,266.51604 251.59538,250 l 0.33402,-16.51604 1.00611,-16.53027 1.69028,-16.55768 2.39455,-16.59355 3.12652,-16.6253 3.8923,-16.62948 2.24462,-8.2986 2.44921,-8.27355 2.6571,-8.2348 2.86695,-8.18031 3.07679,-8.10868 3.28397,-8.01928 3.48525,-7.912562 3.67698,-7.789987 3.85557,-7.653963 4.01832,-7.507345 8.46355,-14.542744 4.43139,-7.016581 4.58525,-6.820858 4.80038,-6.580282 5.142,-6.254352 2.765,-2.961092 2.94605,-2.81584 3.17938,-2.635464 3.47839,-2.410687 3.85901,-2.130368 4.3402,-1.781227 4.94422,-1.347538 5.6973,-0.810784 m 10.47616,475.078424 -5.22252,-0.81078 -4.53221,-1.34754 -3.97851,-1.78123 -3.53743,-2.13036 -3.18852,-2.41069 -2.91443,-2.63546 -2.70055,-2.81584 -2.53458,-2.9611 -4.7135,-6.25435 -4.40035,-6.58028 -4.20315,-6.82086 -4.0621,-7.01658 -7.75825,-14.54274 -7.21774,-15.16131 -3.37056,-7.78999 -3.19482,-7.91256 -3.01031,-8.01928 -2.82039,-8.10868 -5.06371,-16.41512 -4.30267,-16.57214 -3.56795,-16.62948 -2.86597,-16.62531 -2.19501,-16.59355 -1.54942,-16.55768 -0.92227,-16.53026 L 270.62909,250 l 0.30619,-16.51604 0.92227,-16.53027 1.54942,-16.55768 2.19501,-16.59355 2.86598,-16.6253 3.56794,-16.62948 4.30267,-16.57215 5.06372,-16.41511 2.82039,-8.10868 3.0103,-8.01928 3.19482,-7.912562 3.37056,-7.789987 7.21774,-15.161308 7.75825,-14.542744 4.0621,-7.016581 4.20315,-6.820858 4.40035,-6.580282 4.7135,-6.254352 2.53458,-2.961092 2.70055,-2.81584 2.91443,-2.635464 3.18852,-2.410687 3.53743,-2.130368 3.97851,-1.781227 4.53221,-1.347538 5.22252,-0.810784 m 10.47616,475.078424 -4.74774,-0.81078 -4.12019,-1.34754 -3.61683,-1.78123 -3.21584,-2.13036 -2.89866,-2.41069 -2.64948,-2.63546 -2.45505,-2.81584 -2.30416,-2.9611 -4.285,-6.25435 -4.00032,-6.58028 -3.82104,-6.82086 -3.69282,-7.01658 -7.05296,-14.54274 -6.56158,-15.16131 -5.96852,-15.70255 -5.30064,-16.12796 -4.60338,-16.41512 -3.91151,-16.57214 -3.24359,-16.62948 -2.60544,-16.62531 -1.99545,-16.59355 -1.40857,-16.55768 -0.83842,-16.53026 L 289.66281,250 l 0.27836,-16.51604 0.83842,-16.53027 1.40857,-16.55768 1.99545,-16.59355 2.60544,-16.6253 3.24359,-16.62948 3.91151,-16.57215 4.60338,-16.41511 5.30064,-16.12796 5.96852,-15.702549 6.56158,-15.161308 7.05296,-14.542744 3.69282,-7.016581 3.82104,-6.820858 4.00032,-6.580282 4.285,-6.254352 2.30416,-2.961092 2.45505,-2.81584 2.64948,-2.635464 2.89866,-2.410687 3.21584,-2.130368 3.61683,-1.781227 4.12019,-1.347538 4.74774,-0.810784 m 10.47617,475.078424 -4.27297,-0.81078 -3.70817,-1.34754 -3.25515,-1.78123 -2.89426,-2.13036 -2.60879,-2.41069 -2.38453,-2.63546 -4.28329,-5.77694 -3.8565,-6.25435 -3.60029,-6.58028 -6.76248,-13.83744 -6.34766,-14.54274 -5.90542,-15.16131 -5.37167,-15.70255 -4.77057,-16.12796 -4.14304,-16.41512 -3.52037,-16.57214 -2.91923,-16.62948 -2.34489,-16.62531 -1.79591,-16.59355 -1.26771,-16.55768 -0.75458,-16.53026 L 308.69653,250 l 0.25052,-16.51604 0.75458,-16.53027 1.26771,-16.55768 1.79591,-16.59355 2.3449,-16.6253 2.91922,-16.62948 3.52037,-16.57215 4.14304,-16.41511 4.77057,-16.12796 5.37167,-15.702549 5.90542,-15.161308 6.34766,-14.542744 6.76248,-13.837439 3.60029,-6.580282 3.8565,-6.254352 4.28329,-5.776932 2.38453,-2.635464 2.60879,-2.410687 2.89426,-2.130368 3.25515,-1.781227 3.70817,-1.347538 4.27297,-0.810784 m 10.47616,475.078424 -3.79819,-0.81078 -3.29616,-1.34754 -2.89346,-1.78123 -2.57268,-2.13036 -2.31892,-2.41069 -2.11959,-2.63546 -3.80736,-5.77694 -3.428,-6.25435 -3.20026,-6.58028 -6.01109,-13.83744 -5.64236,-14.54274 -5.24927,-15.16131 -4.77482,-15.70255 -4.2405,-16.12796 -3.68271,-16.41512 -3.12921,-16.57214 -2.59487,-16.62948 -2.08435,-16.62531 -1.59637,-16.59355 -1.12685,-16.55768 -0.67074,-16.53026 L 327.73025,250 l 0.22268,-16.51604 0.67074,-16.53027 1.12685,-16.55768 1.59637,-16.59355 2.08435,-16.6253 2.59487,-16.62948 3.12921,-16.57215 3.68271,-16.41511 4.2405,-16.12796 4.77482,-15.702549 5.24927,-15.161308 5.64236,-14.542744 6.01109,-13.837439 3.20026,-6.580282 3.428,-6.254352 3.80736,-5.776932 2.11959,-2.635464 2.31892,-2.410687 2.57268,-2.130368 2.89346,-1.781227 3.29616,-1.347538 3.79819,-0.810784 m 10.47616,475.078424 -3.32342,-0.81078 -2.88413,-1.34754 -2.53178,-1.78123 -2.25109,-2.13036 -2.02906,-2.41069 -1.85464,-2.63546 -3.33144,-5.77694 -2.9995,-6.25435 -2.80023,-6.58028 -5.2597,-13.83744 -4.93707,-14.54274 -4.59311,-15.16131 -4.17796,-15.70255 -3.71045,-16.12796 -3.22236,-16.41512 -2.73806,-16.57214 -2.27052,-16.62948 -1.8238,-16.62531 -1.39682,-16.59355 -0.986,-16.55768 -0.58689,-16.53026 L 346.76397,250 l 0.19485,-16.51604 0.58689,-16.53027 0.986,-16.55768 1.39682,-16.59355 1.82381,-16.6253 2.27051,-16.62948 2.73806,-16.57215 3.22236,-16.41511 3.71045,-16.12796 4.17797,-15.702549 4.5931,-15.161308 4.93707,-14.542744 5.2597,-13.837439 2.80023,-6.580282 2.9995,-6.254352 3.33144,-5.776932 1.85464,-2.635464 2.02906,-2.410687 2.25109,-2.130368 2.53178,-1.781227 2.88413,-1.347538 3.32342,-0.810784 m 10.47617,475.078424 -2.84865,-0.81078 -2.47211,-1.34754 -2.1701,-1.78123 -1.92951,-2.13036 -1.73919,-2.41069 -1.58969,-2.63546 -2.85552,-5.77694 -2.571,-6.25435 -2.40019,-6.58028 -4.50832,-13.83744 -4.23178,-14.54274 -3.93694,-15.16131 -3.58112,-15.70255 -3.18038,-16.12796 -2.76203,-16.41512 -2.34691,-16.57214 -1.94615,-16.62948 -1.56326,-16.62531 -1.19728,-16.59355 L 366.46775,283.0463 365.9647,266.51604 365.79769,250 l 0.16701,-16.51604 0.50305,-16.53027 0.84514,-16.55768 1.19728,-16.59355 1.56326,-16.6253 1.94615,-16.62948 2.34691,-16.57215 2.76203,-16.41511 3.18038,-16.12796 3.58112,-15.702549 3.93694,-15.161308 4.23178,-14.542744 4.50832,-13.837439 2.40019,-6.580282 2.571,-6.254352 2.85552,-5.776932 1.58969,-2.635464 1.73919,-2.410687 1.92951,-2.130368 2.1701,-1.781227 2.47211,-1.347538 2.84865,-0.810784 m 10.47616,475.078424 -2.37387,-0.81078 -2.06009,-1.34754 -1.80842,-1.78123 -1.60792,-2.13036 -1.44933,-2.41069 -1.32474,-2.63546 -2.37961,-5.77694 -2.1425,-6.25435 -2.00015,-6.58028 -3.75694,-13.83744 -3.52648,-14.54274 -3.28078,-15.16131 -2.98427,-15.70255 -2.65031,-16.12796 -2.30169,-16.41512 -1.95576,-16.57214 -1.6218,-16.62948 -1.30271,-16.62531 -0.99773,-16.59355 -0.70429,-16.55768 -0.41921,-16.53026 L 384.83141,250 l 0.13917,-16.51604 0.41921,-16.53027 0.70429,-16.55768 0.99773,-16.59355 1.30272,-16.6253 1.62179,-16.62948 1.95576,-16.57215 2.30169,-16.41511 2.65031,-16.12796 2.98427,-15.702549 3.28079,-15.161308 3.52647,-14.542744 3.75694,-13.837439 2.00015,-6.580282 2.1425,-6.254352 2.37961,-5.776932 1.32474,-2.635464 1.44933,-2.410687 1.60792,-2.130368 1.80842,-1.781227 2.06009,-1.347538 2.37387,-0.810784 m 10.47617,475.078424 -1.8991,-0.81078 -1.64808,-1.34754 -1.44673,-1.78123 -1.28634,-2.13036 -2.21925,-5.04615 -1.90369,-5.77694 -3.31412,-12.83463 -3.00555,-13.83744 -2.82118,-14.54274 -2.62463,-15.16131 -2.38741,-15.70255 -2.12026,-16.12796 -1.84135,-16.41512 -1.56461,-16.57214 -1.29743,-16.62948 -1.04217,-16.62531 -0.79819,-16.59355 -0.56342,-16.55768 -0.33537,-16.53026 L 403.86513,250 l 0.11134,-16.51604 0.33537,-16.53027 0.56342,-16.55768 0.79819,-16.59355 1.04217,-16.6253 1.29743,-16.62948 1.56461,-16.57215 1.84135,-16.41511 2.12026,-16.12796 2.38741,-15.702549 2.62463,-15.161308 2.82118,-14.542744 3.00555,-13.837439 3.31412,-12.834634 1.90369,-5.776932 2.21925,-5.046151 1.28634,-2.130368 1.44673,-1.781227 1.64808,-1.347538 1.8991,-0.810784 m 10.47616,475.078424 -1.42432,-0.81078 -1.23606,-1.34754 -1.08505,-1.78123 -0.96475,-2.13036 -1.66444,-5.04615 -1.42777,-5.77694 -2.48559,-12.83463 -2.25416,-13.83744 -2.11589,-14.54274 -1.96847,-15.16131 -1.79056,-15.70255 -1.59019,-16.12796 -1.38101,-16.41512 -1.17346,-16.57214 -1.75471,-33.25479 -1.0212,-33.15123 -0.33504,-33.0463 0.33504,-33.04631 1.0212,-33.15123 1.75471,-33.25478 1.17346,-16.57215 1.38101,-16.41511 1.59019,-16.12796 1.79056,-15.702549 1.96847,-15.161308 2.11589,-14.542744 2.25416,-13.837439 2.48559,-12.834634 1.42777,-5.776932 1.66444,-5.046151 0.96475,-2.130368 1.08505,-1.781227 1.23606,-1.347538 1.42432,-0.810784 m 10.47616,475.078424 -0.94955,-0.81078 -0.82403,-1.34754 -1.36654,-3.91159 -1.10963,-5.04615 -0.95184,-5.77694 -1.65706,-12.83463 -1.50277,-13.83744 -2.72291,-29.70405 -2.25383,-31.83051 -1.70298,-32.98726 -1.16981,-33.25479 -0.6808,-33.15123 -0.22336,-33.0463 0.22336,-33.04631 0.6808,-33.15123 1.16981,-33.25478 1.70298,-32.98726 2.25383,-31.830509 2.72291,-29.704052 1.50277,-13.837439 1.65706,-12.834634 0.95184,-5.776932 1.10963,-5.046151 1.36654,-3.911595 0.82403,-1.347538 0.94955,-0.810784 m 10.47617,475.078424 -0.47478,-0.81078 -0.41202,-1.34754 -0.68326,-3.91159 -1.03074,-10.82309 -1.57992,-26.67207 -1.36145,-29.70405 -1.12692,-31.83051 -0.85149,-32.98726 -0.5849,-33.25479 -0.3404,-33.15123 -0.11168,-33.0463 0.11168,-33.04631 0.3404,-33.15123 0.5849,-33.25478 0.85149,-32.98726 1.12692,-31.830509 1.36145,-29.704052 1.57992,-26.672073 1.03074,-10.823083 0.68326,-3.911595 0.41202,-1.347538 0.47478,-0.810784 M 480,487.53921 l 0,-43.56507 0,-61.53456 0,-66.24205 0,-66.19753 0,-66.19754 0,-66.24204 0,-61.534561 0,-43.565073 m 10.47616,475.078424 0.47478,-0.81078 0.41202,-1.34754 0.68326,-3.91159 1.03074,-10.82309 1.57992,-26.67207 1.36145,-29.70405 1.12692,-31.83051 0.85149,-32.98726 0.5849,-33.25479 0.3404,-33.15123 0.11168,-33.0463 -0.11168,-33.04631 -0.3404,-33.15123 -0.5849,-33.25478 -0.85149,-32.98726 -1.12692,-31.830509 -1.36145,-29.704052 -1.57992,-26.672073 -1.03074,-10.823083 -0.68326,-3.911595 -0.41202,-1.347538 -0.47478,-0.810784 m 10.47617,475.078424 0.94955,-0.81078 0.82403,-1.34754 1.36654,-3.91159 1.10963,-5.04615 0.95184,-5.77694 1.65706,-12.83463 1.50277,-13.83744 2.72291,-29.70405 2.25383,-31.83051 1.70298,-32.98726 1.16981,-33.25479 0.6808,-33.15123 0.22336,-33.0463 -0.22336,-33.04631 -0.6808,-33.15123 -1.16981,-33.25478 -1.70298,-32.98726 -2.25383,-31.830509 -2.72291,-29.704052 -1.50277,-13.837439 -1.65706,-12.834634 -0.95184,-5.776932 -1.10963,-5.046151 -1.36654,-3.911595 -0.82403,-1.347538 -0.94955,-0.810784 m 10.47616,475.078424 1.42432,-0.81078 1.23606,-1.34754 1.08505,-1.78123 0.96475,-2.13036 1.66444,-5.04615 1.42777,-5.77694 2.48559,-12.83463 2.25416,-13.83744 2.11589,-14.54274 1.96847,-15.16131 1.79056,-15.70255 1.59019,-16.12796 1.38101,-16.41512 1.17346,-16.57214 1.75471,-33.25479 1.0212,-33.15123 0.33504,-33.0463 -0.33504,-33.04631 -1.0212,-33.15123 -1.75471,-33.25478 -1.17346,-16.57215 -1.38101,-16.41511 -1.59019,-16.12796 -1.79056,-15.702549 -1.96847,-15.161308 -2.11589,-14.542744 -2.25416,-13.837439 -2.48559,-12.834634 -1.42777,-5.776932 -1.66444,-5.046151 -0.96475,-2.130368 -1.08505,-1.781227 -1.23606,-1.347538 -1.42432,-0.810784 m 10.47616,475.078424 1.8991,-0.81078 1.64808,-1.34754 1.44673,-1.78123 1.28634,-2.13036 2.21925,-5.04615 1.90369,-5.77694 3.31412,-12.83463 3.00555,-13.83744 2.82118,-14.54274 2.62463,-15.16131 2.38741,-15.70255 2.12026,-16.12796 1.84135,-16.41512 1.56461,-16.57214 1.29743,-16.62948 1.04217,-16.62531 0.79819,-16.59355 0.56342,-16.55768 0.33537,-16.53026 0.11134,-16.51604 -0.11134,-16.51604 -0.33537,-16.53027 -0.56342,-16.55768 -0.79819,-16.59355 -1.04217,-16.6253 -1.29743,-16.62948 -1.56461,-16.57215 -1.84135,-16.41511 -2.12026,-16.12796 -2.38741,-15.702549 -2.62463,-15.161308 -2.82118,-14.542744 -3.00555,-13.837439 -3.31412,-12.834634 -1.90369,-5.776932 -2.21925,-5.046151 -1.28634,-2.130368 -1.44673,-1.781227 -1.64808,-1.347538 -1.8991,-0.810784 m 10.47617,475.078424 2.37387,-0.81078 2.06009,-1.34754 1.80842,-1.78123 1.60792,-2.13036 1.44933,-2.41069 1.32474,-2.63546 2.37961,-5.77694 2.1425,-6.25435 2.00015,-6.58028 3.75694,-13.83744 3.52648,-14.54274 3.28078,-15.16131 2.98427,-15.70255 2.65031,-16.12796 2.30169,-16.41512 1.95576,-16.57214 1.6218,-16.62948 1.30271,-16.62531 0.99773,-16.59355 0.70429,-16.55768 0.41921,-16.53026 0.13917,-16.51604 -0.13917,-16.51604 -0.41921,-16.53027 -0.70429,-16.55768 -0.99773,-16.59355 -1.30272,-16.6253 -1.62179,-16.62948 -1.95576,-16.57215 -2.30169,-16.41511 -2.65031,-16.12796 -2.98427,-15.702549 -3.28079,-15.161308 -3.52647,-14.542744 -3.75694,-13.837439 -2.00015,-6.580282 -2.1425,-6.254352 -2.37961,-5.776932 -1.32474,-2.635464 -1.44933,-2.410687 -1.60792,-2.130368 -1.80842,-1.781227 -2.06009,-1.347538 -2.37387,-0.810784 m 10.47616,475.078424 2.84865,-0.81078 2.47211,-1.34754 2.1701,-1.78123 1.92951,-2.13036 1.73919,-2.41069 1.58969,-2.63546 2.85552,-5.77694 2.571,-6.25435 2.40019,-6.58028 4.50832,-13.83744 4.23178,-14.54274 3.93694,-15.16131 3.58112,-15.70255 3.18038,-16.12796 2.76203,-16.41512 2.34691,-16.57214 1.94615,-16.62948 1.56326,-16.62531 1.19728,-16.59355 0.84514,-16.55768 0.50305,-16.53026 0.16701,-16.51604 -0.16701,-16.51604 -0.50305,-16.53027 -0.84514,-16.55768 -1.19728,-16.59355 -1.56326,-16.6253 -1.94615,-16.62948 -2.34691,-16.57215 -2.76203,-16.41511 -3.18038,-16.12796 -3.58112,-15.702549 -3.93694,-15.161308 -4.23178,-14.542744 -4.50832,-13.837439 -2.40019,-6.580282 -2.571,-6.254352 -2.85552,-5.776932 -1.58969,-2.635464 -1.73919,-2.410687 -1.92951,-2.130368 -2.1701,-1.781227 -2.47211,-1.347538 -2.84865,-0.810784 m 10.47617,475.078424 3.32342,-0.81078 2.88413,-1.34754 2.53178,-1.78123 2.25109,-2.13036 2.02906,-2.41069 1.85464,-2.63546 3.33144,-5.77694 2.9995,-6.25435 2.80023,-6.58028 5.2597,-13.83744 4.93707,-14.54274 4.59311,-15.16131 4.17796,-15.70255 3.71045,-16.12796 3.22236,-16.41512 2.73806,-16.57214 2.27052,-16.62948 1.8238,-16.62531 1.39682,-16.59355 0.986,-16.55768 0.58689,-16.53026 0.19485,-16.51604 -0.19485,-16.51604 -0.58689,-16.53027 -0.986,-16.55768 -1.39682,-16.59355 -1.82381,-16.6253 -2.27051,-16.62948 -2.73806,-16.57215 -3.22236,-16.41511 -3.71045,-16.12796 -4.17797,-15.702549 -4.5931,-15.161308 -4.93707,-14.542744 -5.2597,-13.837439 -2.80023,-6.580282 -2.9995,-6.254352 -3.33144,-5.776932 -1.85464,-2.635464 -2.02906,-2.410687 -2.25109,-2.130368 -2.53178,-1.781227 -2.88413,-1.347538 -3.32342,-0.810784 m 10.47616,475.078424 3.79819,-0.81078 3.29616,-1.34754 2.89346,-1.78123 2.57268,-2.13036 2.31892,-2.41069 2.11959,-2.63546 3.80736,-5.77694 3.428,-6.25435 3.20026,-6.58028 6.01109,-13.83744 5.64236,-14.54274 5.24927,-15.16131 4.77482,-15.70255 4.2405,-16.12796 3.68271,-16.41512 3.12921,-16.57214 2.59487,-16.62948 2.08435,-16.62531 1.59637,-16.59355 1.12685,-16.55768 0.67074,-16.53026 0.22268,-16.51604 -0.22268,-16.51604 -0.67074,-16.53027 -1.12685,-16.55768 -1.59637,-16.59355 -2.08435,-16.6253 -2.59487,-16.62948 -3.12921,-16.57215 -3.68271,-16.41511 -4.2405,-16.12796 -4.77482,-15.702549 -5.24927,-15.161308 -5.64236,-14.542744 -6.01109,-13.837439 -3.20026,-6.580282 -3.428,-6.254352 -3.80736,-5.776932 -2.11959,-2.635464 -2.31892,-2.410687 -2.57268,-2.130368 -2.89346,-1.781227 -3.29616,-1.347538 -3.79819,-0.810784 m 10.47616,475.078424 4.27297,-0.81078 3.70817,-1.34754 3.25515,-1.78123 2.89426,-2.13036 2.60879,-2.41069 2.38453,-2.63546 4.28329,-5.77694 3.8565,-6.25435 3.60029,-6.58028 6.76248,-13.83744 6.34766,-14.54274 5.90542,-15.16131 5.37167,-15.70255 4.77057,-16.12796 4.14304,-16.41512 3.52037,-16.57214 2.91923,-16.62948 2.34489,-16.62531 1.79591,-16.59355 1.26771,-16.55768 0.75458,-16.53026 0.25052,-16.51604 -0.25052,-16.51604 -0.75458,-16.53027 -1.26771,-16.55768 -1.79591,-16.59355 -2.3449,-16.6253 -2.91922,-16.62948 -3.52037,-16.57215 -4.14304,-16.41511 -4.77057,-16.12796 -5.37167,-15.702549 -5.90542,-15.161308 -6.34766,-14.542744 -6.76248,-13.837439 -3.60029,-6.580282 -3.8565,-6.254352 -4.28329,-5.776932 -2.38453,-2.635464 -2.60879,-2.410687 -2.89426,-2.130368 -3.25515,-1.781227 -3.70817,-1.347538 -4.27297,-0.810784 m 10.47617,475.078424 4.74774,-0.81078 4.12019,-1.34754 3.61683,-1.78123 3.21584,-2.13036 2.89866,-2.41069 2.64948,-2.63546 2.45505,-2.81584 2.30416,-2.9611 4.285,-6.25435 4.00032,-6.58028 3.82104,-6.82086 3.69282,-7.01658 7.05296,-14.54274 6.56158,-15.16131 5.96852,-15.70255 5.30064,-16.12796 4.60338,-16.41512 3.91151,-16.57214 3.24359,-16.62948 2.60544,-16.62531 1.99545,-16.59355 1.40857,-16.55768 0.83842,-16.53026 0.27836,-16.51604 -0.27836,-16.51604 -0.83842,-16.53027 -1.40857,-16.55768 -1.99545,-16.59355 -2.60544,-16.6253 -3.24359,-16.62948 -3.91151,-16.57215 -4.60338,-16.41511 -5.30064,-16.12796 -5.96852,-15.702549 -6.56158,-15.161308 -7.05296,-14.542744 -3.69282,-7.016581 -3.82104,-6.820858 -4.00032,-6.580282 -4.285,-6.254352 -2.30416,-2.961092 -2.45505,-2.81584 -2.64948,-2.635464 -2.89866,-2.410687 -3.21584,-2.130368 -3.61683,-1.781227 -4.12019,-1.347538 -4.74774,-0.810784 m 10.47616,475.078424 5.22252,-0.81078 4.53221,-1.34754 3.97851,-1.78123 3.53743,-2.13036 3.18852,-2.41069 2.91443,-2.63546 2.70055,-2.81584 2.53458,-2.9611 4.7135,-6.25435 4.40035,-6.58028 4.20315,-6.82086 4.0621,-7.01658 7.75825,-14.54274 7.21774,-15.16131 3.37056,-7.78999 3.19482,-7.91256 3.01031,-8.01928 2.82039,-8.10868 5.06371,-16.41512 4.30267,-16.57214 3.56795,-16.62948 2.86597,-16.62531 2.19501,-16.59355 1.54942,-16.55768 0.92227,-16.53026 0.30619,-16.51604 -0.30619,-16.51604 -0.92227,-16.53027 -1.54942,-16.55768 -2.19501,-16.59355 -2.86598,-16.6253 -3.56794,-16.62948 -4.30267,-16.57215 -5.06372,-16.41511 -2.82039,-8.10868 -3.0103,-8.01928 -3.19482,-7.912562 -3.37056,-7.789987 -7.21774,-15.161308 -7.75825,-14.542744 -4.0621,-7.016581 -4.20315,-6.820858 -4.40035,-6.580282 -4.7135,-6.254352 -2.53458,-2.961092 -2.70055,-2.81584 -2.91443,-2.635464 -3.18852,-2.410687 -3.53743,-2.130368 -3.97851,-1.781227 -4.53221,-1.347538 -5.22252,-0.810784 m 10.47616,475.078424 5.6973,-0.81078 4.94422,-1.34754 4.3402,-1.78123 3.85901,-2.13036 3.47839,-2.41069 3.17938,-2.63546 2.94605,-2.81584 2.765,-2.9611 5.142,-6.25435 4.80038,-6.58028 4.58526,-6.82086 4.43138,-7.01658 8.46355,-14.54274 4.01832,-7.50735 3.85557,-7.65396 3.67698,-7.78999 3.48525,-7.91256 3.28397,-8.01928 3.07679,-8.10868 2.86695,-8.18032 2.65711,-8.2348 2.4492,-8.27355 2.24462,-8.29859 3.8923,-16.62948 3.12652,-16.62531 2.39455,-16.59355 1.69028,-16.55768 1.00611,-16.53026 0.33402,-16.51604 -0.33402,-16.51604 -1.00611,-16.53027 -1.69028,-16.55768 -2.39455,-16.59355 -3.12652,-16.6253 -3.8923,-16.62948 -2.24462,-8.2986 -2.44921,-8.27355 -2.6571,-8.2348 -2.86695,-8.18031 -3.07679,-8.10868 -3.28397,-8.01928 -3.48525,-7.912562 -3.67698,-7.789987 -3.85557,-7.653963 -4.01832,-7.507345 -8.46355,-14.542744 -4.43139,-7.016581 -4.58525,-6.820858 -4.80038,-6.580282 -5.142,-6.254352 -2.765,-2.961092 -2.94605,-2.81584 -3.17938,-2.635464 -3.47839,-2.410687 -3.85901,-2.130368 -4.3402,-1.781227 -4.94422,-1.347538 -5.6973,-0.810784 m 10.47617,475.078424 6.17206,-0.81078 5.35625,-1.34754 4.70188,-1.78123 4.1806,-2.13036 3.76825,-2.41069 3.44433,-2.63546 3.19155,-2.81584 2.99542,-2.9611 5.5705,-6.25435 5.20041,-6.58028 4.96736,-6.82086 4.80066,-7.01658 4.657,-7.19018 4.51185,-7.35256 4.35318,-7.50735 4.17687,-7.65396 3.98339,-7.78999 3.77569,-7.91256 3.55764,-8.01928 3.33319,-8.10868 3.10586,-8.18032 2.87853,-8.2348 2.65331,-8.27355 2.43166,-8.29859 2.21449,-8.31231 2.00218,-8.31717 3.38706,-16.62531 2.5941,-16.59355 1.83114,-16.55768 1.08994,-16.53026 0.36186,-16.51604 -0.36186,-16.51604 -1.08994,-16.53027 -1.83114,-16.55768 -2.5941,-16.59355 -3.38707,-16.6253 -2.00217,-8.31717 -2.21449,-8.31231 -2.43166,-8.2986 -2.65331,-8.27355 -2.87853,-8.2348 -3.10586,-8.18031 -3.33319,-8.10868 -3.55764,-8.01928 -3.77569,-7.912562 -3.98339,-7.789987 -4.17687,-7.653963 -4.35318,-7.507345 -4.51185,-7.352569 -4.657,-7.190175 -4.80066,-7.016581 -4.96736,-6.820858 -5.20041,-6.580282 -5.5705,-6.254352 -2.99542,-2.961092 -3.19155,-2.81584 -3.44433,-2.635464 -3.76825,-2.410687 -4.1806,-2.130368 -4.70188,-1.781227 -5.35625,-1.347538 -6.17206,-0.810784 m 10.47616,475.078424 6.64684,-0.81078 5.76827,-1.34754 5.06356,-1.78123 4.50218,-2.13036 4.05812,-2.41069 3.70928,-2.63546 3.43706,-2.81584 3.22583,-2.9611 5.999,-6.25435 5.60044,-6.58028 5.34947,-6.82086 5.16994,-7.01658 5.01523,-7.19018 4.85891,-7.35256 4.68805,-7.50735 4.49816,-7.65396 4.28981,-7.78999 4.06613,-7.91256 3.8313,-8.01928 3.58959,-8.10868 3.34477,-8.18032 3.09995,-8.2348 2.85741,-8.27355 2.61872,-8.29859 2.38483,-8.31231 2.15619,-8.31717 1.93289,-8.31559 1.71472,-8.30972 1.50135,-8.30141 1.29229,-8.29214 1.972,-16.55768 1.17379,-16.53026 0.38969,-16.51604 -0.38969,-16.51604 -1.17379,-16.53027 -1.972,-16.55768 -1.29229,-8.29213 -1.50135,-8.30142 -1.71472,-8.30971 -1.93289,-8.31559 -2.15619,-8.31717 -2.38483,-8.31231 -2.61872,-8.2986 -2.85741,-8.27355 -3.09995,-8.2348 -3.34478,-8.18031 -3.58958,-8.10868 -3.8313,-8.01928 -4.06613,-7.912562 -4.28981,-7.789987 -4.49816,-7.653963 -4.68805,-7.507345 -4.85891,-7.352569 -5.01523,-7.190175 -5.16994,-7.016581 -5.34947,-6.820858 -5.60044,-6.580282 -5.999,-6.254352 -3.22583,-2.961092 -3.43706,-2.81584 -3.70928,-2.635464 -4.05812,-2.410687 -4.50218,-2.130368 -5.06356,-1.781227 -5.76827,-1.347538 -6.64684,-0.810784 m 10.47616,475.078424 7.12162,-0.81078 6.18028,-1.34754 5.42525,-1.78123 4.82377,-2.13036 4.34798,-2.41069 3.97422,-2.63546 3.68257,-2.81584 3.45625,-2.9611 6.4275,-6.25435 6.00047,-6.58028 5.73157,-6.82086 5.53923,-7.01658 5.37346,-7.19018 5.20598,-7.35256 5.0229,-7.50735 4.81946,-7.65396 4.59623,-7.78999 4.35656,-7.91256 4.10497,-8.01928 3.84598,-8.10868 3.58369,-8.18032 3.32138,-8.2348 3.06151,-8.27355 2.80577,-8.29859 2.55517,-8.31231 2.31021,-8.31717 2.07094,-8.31559 1.83721,-8.30972 1.60859,-8.30141 1.3846,-8.29214 1.16466,-8.28297 0.94819,-8.27471 0.73454,-8.26778 0.52309,-8.26248 0.31323,-8.25892 0.1043,-8.25712 -0.1043,-8.25713 -0.31323,-8.25891 -0.52309,-8.26248 -0.73454,-8.26779 -0.94819,-8.2747 -1.16466,-8.28298 -1.3846,-8.29213 -1.60859,-8.30142 -1.83721,-8.30971 -2.07095,-8.31559 -2.3102,-8.31717 -2.55517,-8.31231 -2.80577,-8.2986 -3.06151,-8.27355 -3.32138,-8.2348 -3.58369,-8.18031 -3.84598,-8.10868 -4.10497,-8.01928 -4.35656,-7.912562 -4.59623,-7.789987 -4.81946,-7.653963 -5.02291,-7.507345 -5.20597,-7.352569 -5.37346,-7.190175 -5.53923,-7.016581 -5.73157,-6.820858 -6.00047,-6.580282 -6.4275,-6.254352 -3.45625,-2.961092 -3.68257,-2.81584 -3.97422,-2.635464 -4.34798,-2.410687 -4.82377,-2.130368 -5.42525,-1.781227 -6.18028,-1.347538 -7.12162,-0.810784 m 10.47617,475.078424 7.59639,-0.81078 6.5923,-1.34754 5.78693,-1.78123 5.14535,-2.13036 4.63785,-2.41069 4.23917,-2.63546 3.92807,-2.81584 3.68667,-2.9611 6.856,-6.25435 6.4005,-6.58028 6.11368,-6.82086 5.90851,-7.01658 5.73169,-7.19018 5.55304,-7.35256 5.35776,-7.50735 5.14076,-7.65396 4.90264,-7.78999 4.64701,-7.91256 4.37862,-8.01928 4.10239,-8.10868 3.8226,-8.18032 3.5428,-8.2348 3.26561,-8.27355 2.99282,-8.29859 2.72552,-8.31231 2.46422,-8.31717 2.20901,-8.31559 1.95969,-8.30972 1.71583,-8.30141 1.4769,-8.29214 1.24231,-8.28297 1.0114,-8.27471 0.78351,-8.26778 0.55796,-8.26248 0.33411,-8.25892 0.11126,-8.25712 -0.11126,-8.25713 -0.33411,-8.25891 -0.55796,-8.26248 -0.78351,-8.26779 -1.0114,-8.2747 -1.24231,-8.28298 -1.47691,-8.29213 -1.71582,-8.30142 -1.95969,-8.30971 -2.20901,-8.31559 -2.46422,-8.31717 -2.72552,-8.31231 -2.99282,-8.2986 -3.26561,-8.27355 -3.5428,-8.2348 -3.8226,-8.18031 -4.10239,-8.10868 -4.37863,-8.01928 -4.647,-7.912562 -4.90264,-7.789987 -5.14076,-7.653963 -5.35776,-7.507345 -5.55305,-7.352569 -5.73168,-7.190175 -5.90851,-7.016581 -6.11368,-6.820858 -6.4005,-6.580282 -6.856,-6.254352 -3.68667,-2.961092 -3.92807,-2.81584 -4.23917,-2.635464 -4.63785,-2.410687 -5.14535,-2.130368 -5.78693,-1.781227 -6.5923,-1.347538 -7.59639,-0.810784 m 10.47616,475.078424 8.07117,-0.81078 7.00432,-1.34754 6.14861,-1.78123 5.46693,-2.13036 4.92772,-2.41069 4.50412,-2.63546 4.17358,-2.81584 3.91707,-2.9611 7.28451,-6.25435 6.80053,-6.58028 6.49578,-6.82086 6.27779,-7.01658 6.08992,-7.19018 5.90011,-7.35256 5.69263,-7.50735 5.46205,-7.65396 5.20906,-7.78999 4.93744,-7.91256 4.65229,-8.01928 4.35879,-8.10868 4.06151,-8.18032 3.76423,-8.2348 3.46971,-8.27355 3.17987,-8.29859 2.89586,-8.31231 2.61824,-8.31717 2.34707,-8.31559 2.08217,-8.30972 1.82306,-8.30141 1.56922,-8.29214 1.31995,-8.28297 1.07461,-8.27471 0.83248,-8.26778 0.59284,-8.26248 0.35499,-8.25892 0.11821,-8.25712 -0.11821,-8.25713 -0.35499,-8.25891 -0.59284,-8.26248 -0.83248,-8.26779 -1.07461,-8.2747 -1.31996,-8.28298 -1.56921,-8.29213 -1.82306,-8.30142 -2.08217,-8.30971 -2.34708,-8.31559 -2.61823,-8.31717 -2.89586,-8.31231 -3.17987,-8.2986 -3.46971,-8.27355 -3.76423,-8.2348 -4.06152,-8.18031 -4.35878,-8.10868 -4.65229,-8.01928 -4.93744,-7.912562 -5.20906,-7.789987 -5.46205,-7.653963 -5.69263,-7.507345 -5.90011,-7.352569 -6.08992,-7.190175 -6.27779,-7.016581 -6.49578,-6.820858 -6.80054,-6.580282 -7.2845,-6.254352 -3.91708,-2.961092 -4.17357,-2.81584 -4.50413,-2.635464 -4.92771,-2.410687 -5.46693,-2.130368 -6.14861,-1.781227 -7.00432,-1.347538 -8.07117,-0.810784 m 10.47616,475.078424 8.54594,-0.81078 7.41634,-1.34754 6.5103,-1.78123 5.78852,-2.13036 5.21757,-2.41069 4.76908,-2.63546 4.41908,-2.81584 4.14749,-2.9611 7.713,-6.25435 7.20057,-6.58028 6.87789,-6.82086 6.64707,-7.01658 6.44815,-7.19018 6.24718,-7.35256 6.02748,-7.50735 5.78335,-7.65396 5.51547,-7.78999 5.22788,-7.91256 4.92596,-8.01928 4.61518,-8.10868 4.30043,-8.18032 3.98565,-8.2348 3.67381,-8.27355 3.36693,-8.29859 3.0662,-8.31231 2.77225,-8.31717 2.48514,-8.31559 2.20465,-8.30972 1.9303,-8.30141 1.66152,-8.29214 1.3976,-8.28297 1.13782,-8.27471 0.88145,-8.26778 0.62771,-8.26248 0.37587,-8.25892 0.12517,-8.25712 -0.12517,-8.25713 -0.37587,-8.25891 -0.62771,-8.26248 -0.88145,-8.26779 -1.13782,-8.2747 -1.3976,-8.28298 -1.66152,-8.29213 -1.93031,-8.30142 -2.20464,-8.30971 -2.48514,-8.31559 -2.77225,-8.31717 -3.06621,-8.31231 -3.36692,-8.2986 -3.67381,-8.27355 -3.98565,-8.2348 -4.30043,-8.18031 -4.61518,-8.10868 -4.92596,-8.01928 -5.22788,-7.912562 -5.51547,-7.789987 -5.78335,-7.653963 -6.02749,-7.507345 -6.24717,-7.352569 -6.44815,-7.190175 -6.64707,-7.016581 -6.87789,-6.820858 -7.20057,-6.580282 -7.713,-6.254352 -4.14749,-2.961092 -4.41908,-2.81584 -4.76908,-2.635464 -5.21757,-2.410687 -5.78852,-2.130368 -6.5103,-1.781227 -7.41634,-1.347538 -8.54594,-0.810784 m 10.47617,475.078424 9.02071,-0.81078 7.82836,-1.34754 6.87198,-1.78123 6.1101,-2.13036 5.50744,-2.41069 5.03403,-2.63546 4.66458,-2.81584 4.37791,-2.9611 8.1415,-6.25435 7.60061,-6.58028 7.25998,-6.82086 7.01636,-7.01658 6.80638,-7.19018 6.59424,-7.35256 6.36234,-7.50735 6.10465,-7.65396 5.82189,-7.78999 5.51832,-7.91256 5.19962,-8.01928 4.87158,-8.10868 4.53934,-8.18032 4.20708,-8.2348 3.87791,-8.27355 3.55397,-8.29859 3.23656,-8.31231 2.92626,-8.31717 2.6232,-8.31559 2.32712,-8.30972 2.03755,-8.30141 1.75382,-8.29214 1.47525,-8.28297 1.20103,-8.27471 0.93042,-8.26778 0.66258,-8.26248 0.39676,-8.25892 0.13212,-8.25712 -0.13212,-8.25713 -0.39676,-8.25891 -0.66258,-8.26248 -0.93042,-8.26779 -1.20103,-8.2747 -1.47525,-8.28298 -1.75382,-8.29213 -2.03755,-8.30142 -2.32712,-8.30971 -2.62321,-8.31559 -2.92626,-8.31717 -3.23655,-8.31231 -3.55397,-8.2986 -3.87791,-8.27355 -4.20708,-8.2348 -4.53934,-8.18031 -4.87158,-8.10868 -5.19963,-8.01928 -5.51831,-7.912562 -5.82189,-7.789987 -6.10465,-7.653963 -6.36234,-7.507345 -6.59424,-7.352569 -6.80638,-7.190175 -7.01636,-7.016581 -7.25999,-6.820858 -7.6006,-6.580282 -8.1415,-6.254352 -4.37791,-2.961092 -4.66458,-2.81584 -5.03403,-2.635464 -5.50744,-2.410687 -6.1101,-2.130368 -6.87198,-1.781227 -7.82836,-1.347538 -9.02071,-0.810784 m 10.47616,475.078424 9.49549,-0.81078 8.24038,-1.34754 7.23366,-1.78123 6.43169,-2.13036 5.7973,-2.41069 5.29898,-2.63546 4.91008,-2.81584 4.60833,-2.9611 8.57,-6.25435 8.00064,-6.58028 7.64209,-6.82086 7.38564,-7.01658 7.16461,-7.19018 6.9413,-7.35256 6.69721,-7.50735 6.42595,-7.65396 6.1283,-7.78999 5.80875,-7.91256 5.47329,-8.01928 5.12798,-8.10868 4.77825,-8.18032 4.4285,-8.2348 4.08201,-8.27355 3.74103,-8.29859 3.4069,-8.31231 3.08027,-8.31717 2.76127,-8.31559 2.4496,-8.30972 2.14479,-8.30141 1.84613,-8.29214 1.55289,-8.28297 1.26424,-8.27471 0.97939,-8.26778 0.69746,-8.26248 0.41763,-8.25892 0.13907,-8.25712 -0.13907,-8.25713 -0.41763,-8.25891 -0.69746,-8.26248 -0.97939,-8.26779 -1.26424,-8.2747 -1.55289,-8.28298 -1.84613,-8.29213 -2.14479,-8.30142 -2.44961,-8.30971 -2.76126,-8.31559 -3.08027,-8.31717 -3.4069,-8.31231 -3.74103,-8.2986 -4.08201,-8.27355 -4.4285,-8.2348 -4.77826,-8.18031 -5.12798,-8.10868 -5.47328,-8.01928 -5.80876,-7.912562 -6.1283,-7.789987 -6.42594,-7.653963 -6.69721,-7.507345 -6.9413,-7.352569 -7.16462,-7.190175 -7.38563,-7.016581 -7.64209,-6.820858 -8.00064,-6.580282 -8.57,-6.254352 -4.60833,-2.961092 -4.91008,-2.81584 -5.29898,-2.635464 -5.7973,-2.410687 -6.43169,-2.130368 -7.23366,-1.781227 -8.24038,-1.347538 -9.49549,-0.810784 m 10.47617,475.078424 9.97026,-0.81078 8.6524,-1.34754 7.59534,-1.78123 6.75327,-2.13036 6.08717,-2.41069 5.56392,-2.63546 5.1556,-2.81584 4.83874,-2.9611 8.9985,-6.25435 8.40067,-6.58028 8.02419,-6.82086 7.75492,-7.01658 7.52285,-7.19018 7.28836,-7.35256 7.03207,-7.50735 6.74725,-7.65396 6.43471,-7.78999 6.09919,-7.91256 5.74695,-8.01928 5.38438,-8.10868 5.01717,-8.18032 4.64993,-8.2348 4.28611,-8.27355 3.92807,-8.29859 3.57725,-8.31231 3.23429,-8.31717 2.89932,-8.31559 2.57209,-8.30972 2.25203,-8.30141 1.93843,-8.29214 1.63054,-8.28297 1.32746,-8.27471 1.02835,-8.26778 0.73233,-8.26248 0.43852,-8.25892 0.14602,-8.25712 -0.14602,-8.25713 -0.43852,-8.25891 -0.73233,-8.26248 -1.02836,-8.26779 -1.32746,-8.2747 -1.63053,-8.28298 -1.93844,-8.29213 -2.25202,-8.30142 -2.57209,-8.30971 -2.89933,-8.31559 -3.23428,-8.31717 -3.57725,-8.31231 -3.92807,-8.2986 -4.28612,-8.27355 -4.64992,-8.2348 -5.01717,-8.18031 -5.38438,-8.10868 -5.74695,-8.01928 -6.09919,-7.912562 -6.43472,-7.789987 -6.74724,-7.653963 -7.03207,-7.507345 -7.28837,-7.352569 -7.52284,-7.190175 -7.75492,-7.016581 -8.02419,-6.820858 -8.40067,-6.580282 -8.9985,-6.254352 -4.83875,-2.961092 -5.15559,-2.81584 -5.56392,-2.635464 -6.08717,-2.410687 -6.75327,-2.130368 -7.59535,-1.781227 -8.65239,-1.347538 -9.97026,-0.810784 m 10.47616,475.078424 10.44504,-0.81078 9.06441,-1.34754 7.95703,-1.78123 7.07486,-2.13036 6.37703,-2.41069 5.82887,-2.63546 5.4011,-2.81584 5.06916,-2.9611 9.427,-6.25435 8.8007,-6.58028 8.4063,-6.82086 8.1242,-7.01658 7.88107,-7.19018 7.63544,-7.35256 7.36692,-7.50735 7.06855,-7.65396 6.74113,-7.78999 6.38963,-7.91256 6.02061,-8.01928 5.64078,-8.10868 5.25608,-8.18032 4.87135,-8.2348 4.49021,-8.27355 4.11513,-8.29859 3.74759,-8.31231 3.3883,-8.31717 3.03739,-8.31559 2.69457,-8.30972 2.35926,-8.30141 2.03075,-8.29214 1.70817,-8.28297 1.39068,-8.27471 1.07732,-8.26778 0.7672,-8.26248 0.4594,-8.25892 0.15298,-8.25712 -0.15298,-8.25713 -0.4594,-8.25891 -0.7672,-8.26248 -1.07732,-8.26779 -1.39068,-8.2747 -1.70817,-8.28298 -2.03075,-8.29213 -2.35926,-8.30142 -2.69457,-8.30971 -3.03739,-8.31559 -3.3883,-8.31717 -3.74759,-8.31231 -4.11513,-8.2986 -4.49021,-8.27355 -4.87135,-8.2348 -5.25608,-8.18031 -5.64078,-8.10868 -6.02062,-8.01928 -6.38963,-7.912562 -6.74112,-7.789987 -7.06855,-7.653963 -7.36692,-7.507345 -7.63544,-7.352569 -7.88107,-7.190175 -8.1242,-7.016581 -8.4063,-6.820858 -8.8007,-6.580282 -9.427,-6.254352 -5.06916,-2.961092 -5.4011,-2.81584 -5.82887,-2.635464 -6.37703,-2.410687 -7.07487,-2.130368 -7.95702,-1.781227 -9.06441,-1.347538 -10.44504,-0.810784 m 10.47616,475.078424 10.91981,-0.81078 9.47644,-1.34754 8.31871,-1.78123 7.39644,-2.13036 6.6669,-2.41069 6.09382,-2.63546 5.6466,-2.81584 5.29958,-2.9611 9.8555,-6.25435 9.20073,-6.58028 8.7884,-6.82086 8.49349,-7.01658 8.2393,-7.19018 7.9825,-7.35256 7.70179,-7.50735 7.38984,-7.65396 7.04754,-7.78999 6.68007,-7.91256 6.29428,-8.01928 5.89718,-8.10868 5.49499,-8.18032 5.09278,-8.2348 4.69431,-8.27355 4.30218,-8.29859 3.91793,-8.31231 3.54232,-8.31717 3.17545,-8.31559 2.81705,-8.30972 2.4665,-8.30141 2.12305,-8.29214 1.78582,-8.28297 1.45389,-8.27471 1.12629,-8.26778 0.80208,-8.26248 0.48028,-8.25892 0.15993,-8.25712 -0.15993,-8.25713 -0.48028,-8.25891 -0.80208,-8.26248 -1.12629,-8.26779 -1.45389,-8.2747 -1.78582,-8.28298 -2.12305,-8.29213 -2.4665,-8.30142 -2.81705,-8.30971 -3.17546,-8.31559 -3.54231,-8.31717 -3.91793,-8.31231 -4.30218,-8.2986 -4.69432,-8.27355 -5.09277,-8.2348 -5.49499,-8.18031 -5.89718,-8.10868 -6.29428,-8.01928 -6.68007,-7.912562 -7.04754,-7.789987 -7.38984,-7.653963 -7.70179,-7.507345 -7.9825,-7.352569 -8.2393,-7.190175 -8.49349,-7.016581 -8.7884,-6.820858 -9.20073,-6.580282 -9.8555,-6.254352 -5.29958,-2.961092 -5.6466,-2.81584 -6.09382,-2.635464 -6.6669,-2.410687 -7.39645,-2.130368 -8.3187,-1.781227 -9.47644,-1.347538 -10.91981,-0.810784"
       id="path10"
       style="fill:none;stroke:#000000;stroke-opacity:1"
       inkscape:connector-curvature="0" />
  </g>
</svg>
